<svg width="52" height="68" viewBox="0 0 52 68" fill="none" xmlns="http://www.w3.org/2000/svg">
<path d="M17.9648 0.84375C36.2621 0.84375 51.0859 15.5836 51.0859 33.7549C51.0859 51.9262 36.2621 66.666 17.9648 66.666C-0.332331 66.6659 -15.1562 51.9262 -15.1562 33.7549C-15.1562 15.5836 -0.332309 0.843881 17.9648 0.84375Z" stroke="#787878" stroke-opacity="0.13" stroke-width="1.68775"/>
<path d="M18.3586 40.4482V33.3519M21.8432 36.9H14.7028M32.5537 32.6423V41.1578C32.5537 46.8347 31.1257 48.254 25.4134 48.254H11.1326C5.42027 48.254 3.99219 46.8347 3.99219 41.1578V26.9654C3.99219 21.2884 5.42027 19.8691 11.1326 19.8691H13.2747C15.4168 19.8691 15.8881 20.4936 16.7021 21.5722L18.8442 24.4107C19.3869 25.1203 19.701 25.5461 21.1291 25.5461H25.4134C31.1257 25.5461 32.5537 26.9654 32.5537 32.6423Z" stroke="#787878" stroke-width="2.12886" stroke-miterlimit="10" stroke-linecap="round"/>
</svg>
