<svg width="45" height="61" viewBox="0 0 45 61" fill="none" xmlns="http://www.w3.org/2000/svg">
<ellipse cx="30.4291" cy="30.2408" rx="30.4291" ry="30.2408" fill="#D0F56B"/>
<path d="M30.4287 0.755859C46.8211 0.755859 60.1025 13.9616 60.1025 30.2412C60.1023 46.5206 46.821 59.7256 30.4287 59.7256C14.0366 59.7254 0.756089 46.5205 0.755859 30.2412C0.755859 13.9618 14.0365 0.756044 30.4287 0.755859Z" stroke="#787878" stroke-opacity="0.13" stroke-width="1.51204"/>
<path d="M25.807 45.1818H34.9086C42.4933 45.1818 45.5272 42.1667 45.5272 34.6289V25.5836C45.5272 18.0459 42.4933 15.0308 34.9086 15.0308H25.807C18.2223 15.0308 15.1885 18.0459 15.1885 25.5836V34.6289C15.1885 42.1667 18.2223 45.1818 25.807 45.1818Z" stroke="black" stroke-width="2.26133" stroke-miterlimit="10" stroke-linecap="round" stroke-linejoin="round"/>
<path d="M35.6671 26.7143C36.9238 26.7143 37.9425 25.7019 37.9425 24.453C37.9425 23.2041 36.9238 22.1916 35.6671 22.1916C34.4104 22.1916 33.3917 23.2041 33.3917 24.453C33.3917 25.7019 34.4104 26.7143 35.6671 26.7143Z" stroke="black" stroke-width="2.26133" stroke-miterlimit="10" stroke-linecap="round" stroke-linejoin="round"/>
<path d="M25.0486 26.7143C26.3052 26.7143 27.324 25.7019 27.324 24.453C27.324 23.2041 26.3052 22.1916 25.0486 22.1916C23.7919 22.1916 22.7732 23.2041 22.7732 24.453C22.7732 25.7019 23.7919 26.7143 25.0486 26.7143Z" stroke="black" stroke-width="2.26133" stroke-miterlimit="10" stroke-linecap="round" stroke-linejoin="round"/>
<path d="M24.8969 32.0661H35.8188C36.5773 32.0661 37.1841 32.6691 37.1841 33.4229C37.1841 37.1767 34.135 40.2069 30.3578 40.2069C26.5807 40.2069 23.5316 37.1767 23.5316 33.4229C23.5316 32.6691 24.1384 32.0661 24.8969 32.0661Z" stroke="black" stroke-width="2.26133" stroke-miterlimit="10" stroke-linecap="round" stroke-linejoin="round"/>
</svg>
