<svg width="286" height="126" viewBox="0 0 286 126" fill="none" xmlns="http://www.w3.org/2000/svg">
<path d="M1.06567 27.6643H285.908" stroke="#AFAFAF" stroke-width="0.484716" stroke-dasharray="2.91 2.91"/>
<path d="M31.2997 105.122C19.377 102.558 6.46089 106.19 1.49316 108.326V125.842H183.972V49.791L169.273 55.6468C164.314 57.6226 158.923 58.2637 153.639 57.5063L145.402 56.3257C141.406 55.7531 137.337 55.9782 133.429 56.9881L104.22 64.5365C94.9937 72.0127 74.6259 88.7807 66.9613 96.0433C57.3806 107.258 46.2031 108.326 31.2997 105.122Z" fill="url(#paint0_linear_4926_1270)"/>
<path d="M184.358 5.8562V123.136" stroke="#18C456" stroke-width="0.484716"/>
<path d="M0.969727 108.841C5.95381 106.705 18.9125 103.073 30.8744 105.637C45.8269 108.841 57.0412 107.773 66.6534 96.5584C72.6145 90.9284 86.2346 79.5864 96.3689 71.2887C101.41 67.1616 107.299 64.2107 113.608 62.5857L130.473 58.2416C136.287 56.7441 142.339 56.4103 148.282 57.2593L149.06 57.3704C157.332 58.5522 165.771 57.4362 173.451 54.1443L215.486 36.1294C219.486 34.4151 223.22 32.1365 226.574 29.3632L242.351 16.3172C246.93 12.5303 252.206 9.67576 257.882 7.91442L280.259 0.969727" stroke="#18C456" stroke-width="1.93886" stroke-linecap="round"/>
<circle cx="184.509" cy="49.2399" r="5.87103" fill="#18C456"/>
<defs>
<linearGradient id="paint0_linear_4926_1270" x1="82.0201" y1="52.8067" x2="92.8016" y2="125.832" gradientUnits="userSpaceOnUse">
<stop stop-color="#18C456"/>
<stop offset="1" stop-color="white" stop-opacity="0"/>
</linearGradient>
</defs>
</svg>
