<svg width="281" height="143" viewBox="0 0 281 143" fill="none" xmlns="http://www.w3.org/2000/svg">
<path d="M40.7832 18.6196C29.039 38.4009 9.61944 42.362 1.37769 41.8699V134.129H279.492V70.7386C270.304 71.3281 249.708 70.7779 240.822 63.8612C231.936 56.9445 216.55 56.9183 209.968 57.7698C191.538 62.0142 179.936 52.3334 176.44 46.9625C168.418 33.9937 151.757 30.8498 143.529 37.7272C139.158 41.7953 134.412 44.7577 130.942 46.5646C128.43 47.8723 125.656 48.5603 122.824 48.594C120.985 48.6159 118.663 48.5589 115.966 48.338C105.22 48.1073 83.9958 30.7933 67.4433 15.2768C59.4621 7.79508 46.4266 9.24796 40.7832 18.6196Z" fill="url(#paint0_linear_4926_1284)"/>
<path d="M1.37769 41.8699C9.58301 42.362 28.9167 38.4009 40.609 18.6196C46.2179 9.26393 59.2259 7.81525 67.1681 15.2926C83.645 30.805 104.764 48.1074 115.46 48.338C118.128 48.5575 120.427 48.6152 122.253 48.5944C125.096 48.5621 127.879 47.8688 130.397 46.5499C133.85 44.7416 138.561 41.7843 142.901 37.7272C151.092 30.8498 167.679 33.9937 175.666 46.9625C179.147 52.3334 190.697 62.0142 209.046 57.7698C215.599 56.9183 230.917 56.9445 239.763 63.8612C248.61 70.7779 270.317 71.2641 279.464 70.6746" stroke="#FF7E5C" stroke-width="1.74382" stroke-linecap="round"/>
<path d="M14.3447 90.6241L0.871826 102.572V142.235H279.491V75.9145L255.061 47.3732C252.225 44.0593 247.63 42.8529 243.531 44.3461L229.557 49.4368C225.455 50.9313 220.856 49.7213 218.02 46.4013L204.945 31.0928C196.564 21.2811 186.869 21.069 180.567 32.3296C179.598 34.062 178.009 37.2727 177.286 39.1214C169.279 59.5869 146.195 77.0413 130.929 86.0029C126.834 88.4065 121.811 88.3309 117.596 86.1454L97.1078 75.522C91.5861 72.6588 84.8641 73.5477 80.2762 77.7476L65.2574 91.4964C57.8726 98.2567 46.503 98.1059 39.3 91.1521C32.3957 84.4865 21.5247 84.2566 14.3447 90.6241Z" fill="url(#paint1_linear_4926_1284)"/>
<path d="M0.871826 102.984L16.408 89.2062C22.4541 83.8443 31.5833 83.9499 37.5037 89.4503L41.6974 93.3465C47.5911 98.8221 56.6708 98.9547 62.7218 93.6534L80.4292 78.1401C85.3379 73.8397 92.3954 73.0256 98.1542 76.0955L117.144 86.2185C121.636 88.6131 127.027 88.7273 131.407 86.133C145.809 77.6016 166.821 61.7161 175.805 42.9383C177.727 38.9208 179.395 34.7611 181.777 30.9979C182.448 29.9381 183.096 28.9356 183.719 27.9925C187.852 21.7327 195.138 21.756 200.164 27.3247L215.463 44.2763C219.839 49.1248 226.76 50.7565 232.841 48.3733L240.26 45.4659C246.609 42.9775 253.838 44.8739 258.149 50.1585L279.491 76.3264" stroke="black" stroke-width="1.74382" stroke-linecap="round"/>
<defs>
<linearGradient id="paint0_linear_4926_1284" x1="140.435" y1="0" x2="140.435" y2="134.129" gradientUnits="userSpaceOnUse">
<stop stop-color="#FF7E5C"/>
<stop offset="1" stop-color="#D9D9D9" stop-opacity="0"/>
</linearGradient>
<linearGradient id="paint1_linear_4926_1284" x1="140.182" y1="17.3219" x2="140.182" y2="142.229" gradientUnits="userSpaceOnUse">
<stop/>
<stop offset="1" stop-color="#D9D9D9" stop-opacity="0"/>
</linearGradient>
</defs>
</svg>
