<svg width="17" height="19" viewBox="0 0 17 19" fill="none" xmlns="http://www.w3.org/2000/svg">
<path fill-rule="evenodd" clip-rule="evenodd" d="M6.46907 18.1179C9.45521 14.9607 8.94188 16.6277 12.8253 14.7768C14.6737 13.8959 16.729 11.5414 16.4403 8.76038L8.78807 8.76334C8.30342 10.1781 6.45513 16.9269 6.46907 18.1179Z" fill="black"/>
<path fill-rule="evenodd" clip-rule="evenodd" d="M5.00765 13.4552C5.53389 12.0723 6.14486 10.2295 6.36234 8.75845H4.72625C4.95218 6.15404 5.07741 7.29386 6.80996 7.0394C7.71174 6.63439 7.0582 3.10704 13.0641 1.72279C6.55659 -1.56497 -0.877995 7.61042 5.00765 13.4552Z" fill="black"/>
<path fill-rule="evenodd" clip-rule="evenodd" d="M5.25387 16.0232C4.36584 14.4165 0.0498417 10.9526 2.41062 5.49732C4.41345 0.869306 7.36404 0.732754 11.5869 0.633975C8.55572 -0.433321 4.29158 -0.580452 1.41793 3.65674C-1.38202 7.62652 -0.000389262 14.8827 5.25392 16.0232H5.25387Z" fill="black"/>
<path fill-rule="evenodd" clip-rule="evenodd" d="M9.49578 7.17648H16.476C16.3235 5.21048 15.0582 3.17042 13.1658 3.13418C11.2427 3.09735 9.6478 5.32058 9.49573 7.17648H9.49578Z" fill="black"/>
</svg>
