<svg width="148" height="28" viewBox="0 0 148 28" fill="none" xmlns="http://www.w3.org/2000/svg">
<path d="M36.2101 13.0266C36.2101 14.2876 36.516 15.2739 37.1277 15.9855C37.752 16.6972 38.6197 17.053 39.7309 17.053C40.2802 17.053 40.8608 16.9656 41.4725 16.7908C42.0843 16.6035 42.6586 16.3414 43.1955 16.0043L43.3827 19.0007C42.8584 19.2753 42.2841 19.4876 41.6598 19.6374C41.048 19.7872 40.4425 19.8621 39.8432 19.8621C38.4574 19.8621 37.2651 19.5937 36.2663 19.0569C35.2799 18.5075 34.5246 17.721 34.0002 16.6972C33.4758 15.6734 33.2137 14.4499 33.2137 13.0266C33.2137 11.6033 33.4758 10.3797 34.0002 9.35596C34.5246 8.33219 35.2799 7.55187 36.2663 7.01501C37.2651 6.46567 38.4574 6.191 39.8432 6.191C40.4425 6.191 41.048 6.26591 41.6598 6.41573C42.2841 6.56555 42.8584 6.77155 43.3827 7.03374L43.1955 10.0302C42.6586 9.70554 42.0843 9.45584 41.4725 9.28105C40.8608 9.09378 40.2802 9.00014 39.7309 9.00014C38.6197 9.00014 37.752 9.35596 37.1277 10.0676C36.516 10.7668 36.2101 11.7531 36.2101 13.0266ZM47.8531 5.53553V19.5625H45.2125V5.53553H47.8531ZM53.099 19.5625H50.4771V12.652H49.6157V10.2174H53.099V19.5625ZM51.5259 8.98141C51.0639 8.98141 50.7019 8.85032 50.4397 8.58813C50.19 8.32594 50.0651 7.96388 50.0651 7.50193C50.0651 7.03998 50.19 6.67792 50.4397 6.41573C50.7019 6.15354 51.0639 6.02245 51.5259 6.02245C51.9629 6.02245 52.3062 6.15354 52.5559 6.41573C52.8181 6.67792 52.9492 7.03998 52.9492 7.50193C52.9492 7.96388 52.8181 8.32594 52.5559 8.58813C52.3062 8.85032 51.9629 8.98141 51.5259 8.98141ZM59.668 19.8621C58.844 19.8621 58.0761 19.6998 57.3645 19.3752C56.6528 19.0506 56.066 18.52 55.6041 17.7834C55.1546 17.0343 54.9299 16.0729 54.9299 14.8993C54.9299 13.3637 55.3294 12.1526 56.1285 11.2662C56.9275 10.3797 58.0137 9.93652 59.3871 9.93652C60.7355 9.93652 61.7904 10.3423 62.552 11.1538C63.3136 11.9653 63.6944 13.1077 63.6944 14.581C63.6944 14.9805 63.6632 15.3051 63.6008 15.5548H57.608C57.7703 16.8283 58.5131 17.465 59.8365 17.465C60.311 17.465 60.7667 17.3963 61.2036 17.259C61.6406 17.1217 62.0152 16.9344 62.3273 16.6972L62.4397 19.2254C61.6906 19.6499 60.7667 19.8621 59.668 19.8621ZM61.2036 14.2813C61.1537 13.7195 60.9664 13.2825 60.6418 12.9704C60.3297 12.6458 59.9114 12.4835 59.3871 12.4835C58.9002 12.4835 58.4944 12.6707 58.1698 13.0453C57.8577 13.4074 57.6641 13.9005 57.5892 14.5248L61.2036 14.2813ZM66.7675 10.2174L67.629 13.9442H67.7226C67.7351 12.858 67.9661 11.9216 68.4155 11.1351C68.8775 10.336 69.6578 9.93652 70.7565 9.93652C71.6554 9.93652 72.3858 10.3048 72.9476 11.0414C73.5094 11.7656 73.7903 12.7581 73.7903 14.0191V19.5625H71.1685V14.3188C71.1685 13.732 71.0374 13.2825 70.7752 12.9704C70.5255 12.6458 70.1572 12.4835 69.6703 12.4835C69.2708 12.4835 68.9212 12.6333 68.6215 12.9329C68.3219 13.2326 68.0972 13.6071 67.9473 14.0566C67.7975 14.506 67.7226 14.9555 67.7226 15.405V19.5625H65.082V10.2174H66.7675ZM81.8704 19.6561C81.4959 19.7935 80.9278 19.8621 80.1662 19.8621C79.055 19.8497 78.1499 19.5438 77.4507 18.9445C76.764 18.3327 76.4207 17.3152 76.4207 15.8919V12.652H75.1472V10.2174H76.7391L76.4207 7.46447H79.3984L78.3684 10.2174H81.7955V12.652H79.0426V15.7233C79.0426 16.3351 79.1861 16.7596 79.4733 16.9968C79.7604 17.2216 80.1475 17.3339 80.6344 17.3339C81.1088 17.3339 81.4834 17.284 81.7581 17.1841L81.8704 19.6561ZM88.157 5.96488C87.9864 5.96488 87.8248 6.00146 87.6724 6.07461C87.52 6.14776 87.3859 6.26664 87.27 6.43124C87.1603 6.58974 87.0719 6.79396 87.0049 7.04391C86.9378 7.29385 86.9043 7.59562 86.9043 7.9492V10.1987H88.9069V10.8571H86.9043V18.0628C86.9043 18.8919 86.7945 19.657 86.5751 20.3581C86.3617 21.0591 86.0356 21.6626 85.5966 22.1686C85.1577 22.6807 84.609 23.08 83.9507 23.3665C83.2923 23.6531 82.5241 23.7963 81.6463 23.7963C81.3354 23.7963 81.0367 23.7689 80.7501 23.714C80.4636 23.6653 80.2106 23.5952 79.9912 23.5037C79.7717 23.4123 79.598 23.3025 79.4699 23.1745C79.3358 23.0526 79.2688 22.9154 79.2688 22.763C79.2688 22.6533 79.284 22.5405 79.3145 22.4247C79.345 22.3149 79.3907 22.2144 79.4516 22.1229C79.5126 22.0315 79.5888 21.9553 79.6802 21.8943C79.7656 21.8394 79.8662 21.812 79.982 21.812C80.0491 21.812 80.11 21.8455 80.1649 21.9126C80.2137 21.9797 80.2655 22.062 80.3204 22.1595C80.3752 22.257 80.4392 22.3637 80.5124 22.4795C80.5794 22.6015 80.6678 22.7112 80.7776 22.8087C80.8873 22.9063 81.0245 22.9886 81.1891 23.0556C81.3476 23.1227 81.5426 23.1562 81.7743 23.1562C82.0852 23.1562 82.3595 23.0922 82.5973 22.9642C82.835 22.8423 83.0393 22.6716 83.21 22.4521C83.3807 22.2326 83.5239 21.9736 83.6397 21.6748C83.7556 21.3761 83.847 21.0561 83.9141 20.7147C83.9811 20.3733 84.0269 20.0167 84.0512 19.6448C84.0817 19.2729 84.097 18.9011 84.097 18.5292V10.8571H82.4144V10.1987H84.097V9.12882C84.097 8.59235 84.161 8.12599 84.289 7.72973C84.4231 7.32738 84.5969 6.986 84.8102 6.70557C85.0297 6.42514 85.2766 6.19653 85.5509 6.01974C85.8252 5.84295 86.1026 5.70274 86.383 5.5991C86.6696 5.49547 86.9469 5.42536 87.2152 5.38878C87.4834 5.35221 87.7181 5.33392 87.9193 5.33392C88.3521 5.33392 88.7362 5.36745 89.0715 5.43451C89.4068 5.49547 89.6872 5.58082 89.9128 5.69055C90.1383 5.79418 90.309 5.91611 90.4248 6.05632C90.5407 6.19653 90.5986 6.3398 90.5986 6.4861C90.5986 6.59584 90.5803 6.70862 90.5437 6.82445C90.5132 6.93418 90.4675 7.03781 90.4066 7.13535C90.3456 7.2268 90.2694 7.303 90.1779 7.36396C90.0926 7.41883 89.9951 7.44626 89.8853 7.44626C89.8183 7.44626 89.7573 7.40968 89.7024 7.33653C89.6476 7.26337 89.5897 7.17193 89.5287 7.0622C89.4677 6.95247 89.4007 6.83359 89.3275 6.70557C89.2544 6.57755 89.1629 6.45867 89.0532 6.34894C88.9496 6.23921 88.8246 6.14776 88.6783 6.07461C88.532 6.00146 88.3582 5.96488 88.157 5.96488ZM94.0457 19.8621C92.5974 19.8621 91.4675 19.4252 90.656 18.5512C89.857 17.6773 89.4574 16.46 89.4574 14.8993C89.4574 13.3262 89.857 12.1089 90.656 11.2474C91.4675 10.3735 92.5974 9.93652 94.0457 9.93652C95.4815 9.93652 96.5989 10.3735 97.3979 11.2474C98.197 12.1214 98.5965 13.3449 98.5965 14.9181C98.5965 16.4787 98.197 17.696 97.3979 18.5699C96.5989 19.4314 95.4815 19.8621 94.0457 19.8621ZM92.1168 14.8993C92.1168 15.7358 92.2853 16.3726 92.6224 16.8095C92.9595 17.2465 93.4339 17.465 94.0457 17.465C94.645 17.465 95.1069 17.2465 95.4315 16.8095C95.7686 16.3726 95.9372 15.7358 95.9372 14.8993C95.9372 14.0628 95.7686 13.4261 95.4315 12.9891C95.1069 12.5521 94.645 12.3336 94.0457 12.3336C93.4339 12.3336 92.9595 12.5521 92.6224 12.9891C92.2853 13.4261 92.1168 14.0628 92.1168 14.8993ZM101.752 10.2174L102.669 14.1315H102.726C102.738 12.9954 102.913 12.0153 103.25 11.1913C103.587 10.3548 104.149 9.93652 104.936 9.93652C105.285 9.93652 105.647 10.0177 106.022 10.18L105.909 13.27C105.385 13.0453 104.929 12.9329 104.542 12.9329C103.93 12.9329 103.475 13.2014 103.175 13.7382C102.875 14.2626 102.726 15.0179 102.726 16.0043V19.5625H100.085V10.2174H101.752ZM114.19 13.0828C113.852 12.908 113.465 12.7644 113.028 12.652C112.604 12.5272 112.186 12.4647 111.774 12.4647C111.087 12.4647 110.538 12.6583 110.126 13.0453C109.726 13.4323 109.526 14.0503 109.526 14.8993C109.526 15.7483 109.726 16.3663 110.126 16.7534C110.538 17.1279 111.087 17.3152 111.774 17.3152C112.186 17.3152 112.604 17.259 113.028 17.1466C113.465 17.0343 113.852 16.8845 114.19 16.6972L114.321 19.2629C113.621 19.6624 112.723 19.8621 111.624 19.8621C110.775 19.8621 109.995 19.6998 109.283 19.3752C108.571 19.0506 107.991 18.52 107.541 17.7834C107.104 17.0343 106.886 16.0729 106.886 14.8993C106.886 13.7257 107.104 12.7706 107.541 12.034C107.991 11.2849 108.571 10.748 109.283 10.4234C109.995 10.0988 110.775 9.93652 111.624 9.93652C112.136 9.93652 112.623 9.98646 113.085 10.0863C113.559 10.1862 113.971 10.3298 114.321 10.5171L114.19 13.0828ZM120.265 19.8621C119.441 19.8621 118.673 19.6998 117.961 19.3752C117.25 19.0506 116.663 18.52 116.201 17.7834C115.752 17.0343 115.527 16.0729 115.527 14.8993C115.527 13.3637 115.926 12.1526 116.725 11.2662C117.524 10.3797 118.611 9.93652 119.984 9.93652C121.332 9.93652 122.387 10.3423 123.149 11.1538C123.911 11.9653 124.291 13.1077 124.291 14.581C124.291 14.9805 124.26 15.3051 124.198 15.5548H118.205C118.367 16.8283 119.11 17.465 120.433 17.465C120.908 17.465 121.364 17.3963 121.801 17.259C122.238 17.1217 122.612 16.9344 122.924 16.6972L123.037 19.2254C122.287 19.6499 121.364 19.8621 120.265 19.8621ZM121.801 14.2813C121.751 13.7195 121.563 13.2825 121.239 12.9704C120.927 12.6458 120.508 12.4835 119.984 12.4835C119.497 12.4835 119.091 12.6707 118.767 13.0453C118.455 13.4074 118.261 13.9005 118.186 14.5248L121.801 14.2813ZM132.697 6.45318H138.109L141.743 19.5625H138.671L137.978 16.8283H132.828L132.135 19.5625H129.083L132.697 6.45318ZM137.416 14.6184L135.431 6.71537H135.375L133.39 14.6184H137.416ZM145.919 19.5625H143.297V12.652H142.436V10.2174H145.919V19.5625ZM144.346 8.98141C143.884 8.98141 143.522 8.85032 143.26 8.58813C143.01 8.32594 142.885 7.96388 142.885 7.50193C142.885 7.03998 143.01 6.67792 143.26 6.41573C143.522 6.15354 143.884 6.02245 144.346 6.02245C144.783 6.02245 145.126 6.15354 145.376 6.41573C145.638 6.67792 145.769 7.03998 145.769 7.50193C145.769 7.96388 145.638 8.32594 145.376 8.58813C145.126 8.85032 144.783 8.98141 144.346 8.98141Z" fill="white"/>
<path fill-rule="evenodd" clip-rule="evenodd" d="M9.92297 27.8072C14.5036 22.9641 13.7161 25.5212 19.6732 22.682C22.5085 21.3308 25.6612 17.7191 25.2184 13.4531L13.4802 13.4577C12.7368 15.6279 9.90159 25.9802 9.92297 27.8072Z" fill="url(#paint0_linear_4857_2008)"/>
<path fill-rule="evenodd" clip-rule="evenodd" d="M7.68163 20.6604C8.48884 18.5391 9.42604 15.7123 9.75965 13.4558H7.24996C7.59654 9.46071 7.78863 11.2091 10.4463 10.8188C11.8296 10.1975 10.8271 4.78676 20.0398 2.66339C10.0576 -2.37989 -1.34668 11.6947 7.68163 20.6604Z" fill="url(#paint1_linear_4857_2008)"/>
<path fill-rule="evenodd" clip-rule="evenodd" d="M8.05919 24.5788C6.697 22.1143 0.0764548 16.8008 3.69777 8.43263C6.77003 1.33348 11.2961 1.12401 17.7738 0.972487C13.1241 -0.664694 6.58309 -0.890387 2.17503 5.60927C-2.11995 11.6987 -0.00059711 22.8294 8.05927 24.5788H8.05919Z" fill="#35E834"/>
<path fill-rule="evenodd" clip-rule="evenodd" d="M14.5675 11.0139H25.2748C25.0409 7.99814 23.1 4.86878 20.1971 4.81319C17.2471 4.75669 14.8007 8.16703 14.5674 11.0139H14.5675Z" fill="#35E834"/>
<defs>
<linearGradient id="paint0_linear_4857_2008" x1="17.5916" y1="13.4531" x2="12.4839" y2="27.7666" gradientUnits="userSpaceOnUse">
<stop stop-color="#35E834"/>
<stop offset="1" stop-color="#D0F56B"/>
</linearGradient>
<linearGradient id="paint1_linear_4857_2008" x1="12.2191" y1="1.60156" x2="12.2191" y2="20.6604" gradientUnits="userSpaceOnUse">
<stop stop-color="#36D7ED"/>
<stop offset="1" stop-color="#EEFC53"/>
</linearGradient>
</defs>
</svg>
