<svg width="35" height="39" viewBox="0 0 35 39" fill="none" xmlns="http://www.w3.org/2000/svg">
<path fill-rule="evenodd" clip-rule="evenodd" d="M13.7057 38.3834C20.0321 31.6944 18.9446 35.226 27.172 31.3049C31.0879 29.4387 35.4421 24.4505 34.8307 18.5586L18.6187 18.5649C17.5919 21.5623 13.6762 35.86 13.7057 38.3834Z" fill="black"/>
<path fill-rule="evenodd" clip-rule="evenodd" d="M10.6097 28.5062C11.7246 25.5764 13.0189 21.6723 13.4797 18.5557H10.0135C10.4922 13.0381 10.7575 15.4529 14.428 14.9138C16.3385 14.0557 14.9539 6.58275 27.6779 3.65011C13.8912 -3.31528 -1.85954 16.1235 10.6097 28.5062Z" fill="black"/>
<path fill-rule="evenodd" clip-rule="evenodd" d="M11.1307 33.9464C9.24939 30.5425 0.105594 23.204 5.10709 11.6465C9.35026 1.8417 15.6013 1.5524 24.5479 1.34313C18.126 -0.918026 9.09207 -1.22973 3.00399 7.74711C-2.92792 16.1574 -0.000824683 31.5303 11.1309 33.9464H11.1307Z" fill="black"/>
<path fill-rule="evenodd" clip-rule="evenodd" d="M20.1183 15.2016H34.9065C34.5833 11.0365 31.9028 6.71445 27.8935 6.63768C23.8192 6.55964 20.4403 11.2697 20.1182 15.2016H20.1183Z" fill="black"/>
</svg>
