<svg width="12" height="12" viewBox="0 0 12 12" fill="none" xmlns="http://www.w3.org/2000/svg">
<path d="M11.5761 0.782736C11.55 0.366158 11.2178 0.0341891 10.8012 0.00846611C10.0736 -0.0346764 8.21419 0.0315199 6.67097 1.57474C6.46853 1.77756 6.19373 1.89153 5.90716 1.89153H2.85756C2.63817 1.89102 2.42769 1.97828 2.27301 2.13386L0.242781 4.16351C-0.207565 4.61399 -0.00137485 5.38305 0.613926 5.54782C0.646206 5.55647 0.678981 5.56315 0.71207 5.56783L1.15582 5.62975C2.36867 5.79898 3.49328 6.359 4.35921 7.22492C5.22537 8.09108 5.78545 9.21607 5.95452 10.4293L6.01669 10.8754C6.10671 11.506 6.8456 11.8027 7.34669 11.4094C7.37276 11.389 7.39758 11.3669 7.42101 11.3435L9.45125 9.31328C9.60678 9.15856 9.69402 8.94811 9.69357 8.72873V5.67694C9.69357 5.39061 9.80732 5.11601 10.0098 4.91354C11.5524 3.36914 11.6192 1.5109 11.5761 0.782736ZM0.715617 4.78765C0.702686 4.74592 0.71382 4.70047 0.744577 4.66944L2.77422 2.63507C2.79639 2.61308 2.82634 2.60076 2.85756 2.60079C3.88628 2.60079 4.40141 3.84461 3.67391 4.57194L3.50662 4.73919C3.22887 5.01688 2.83695 5.14821 2.44796 5.09395L0.811364 4.86567C0.76691 4.86068 0.729476 4.83018 0.715617 4.78765ZM8.98373 8.72696C8.9836 8.75826 8.97106 8.78823 8.94886 8.8103L6.9198 10.8399C6.85582 10.9046 6.74579 10.8758 6.72175 10.7881C6.72051 10.7835 6.71954 10.779 6.71885 10.7743L6.49052 9.13651C6.43629 8.74754 6.56763 8.35566 6.8453 8.07793L7.01258 7.91061C7.73991 7.18311 8.98373 7.69824 8.98373 8.72696ZM9.50799 4.41234L7.19622 6.72371C6.55129 7.36853 5.50577 7.36848 4.8609 6.72361C4.21604 6.07875 4.21599 5.03322 4.8608 4.3883L7.17277 2.07594C8.11626 1.1264 9.42399 0.6308 10.7598 0.71654C10.8185 0.721454 10.8647 0.76884 10.868 0.827657C10.9528 2.16248 10.4573 3.46896 9.50858 4.41175L9.50799 4.41234ZM4.37507 9.24028C4.37435 9.23957 4.37318 9.23971 4.37276 9.24063C4.1164 9.80489 3.25566 11.1118 0.827325 11.1118C0.631474 11.1118 0.472694 10.953 0.472694 10.7572C0.472694 8.32623 1.78245 7.46626 2.34571 7.21093C2.59414 7.09719 2.87253 7.29502 2.84683 7.56703C2.8349 7.69327 2.75653 7.80356 2.64124 7.85635C1.16153 8.52644 3.05703 10.4241 3.73112 8.94624C3.84487 8.69781 4.18489 8.66568 4.34315 8.8884C4.4162 8.9912 4.42919 9.12499 4.37741 9.23986C4.37699 9.24078 4.37578 9.241 4.37507 9.24028Z" fill="black"/>
</svg>
