<svg width="13" height="16" viewBox="0 0 13 16" fill="none" xmlns="http://www.w3.org/2000/svg">
<path d="M9.79607 9.76411C10.0935 9.76411 10.3463 9.65992 10.5545 9.45153C10.7627 9.24315 10.8668 8.99011 10.8668 8.69246C10.8668 8.3948 10.7627 8.14474 10.5545 7.94233C10.3463 7.73992 10.0935 7.6387 9.79607 7.6387C9.50309 7.6387 9.25408 7.74177 9.04898 7.94792C8.84389 8.15417 8.74136 8.40455 8.74136 8.69901C8.74136 8.99359 8.84389 9.24474 9.04898 9.45249C9.25408 9.66024 9.50309 9.76411 9.79607 9.76411ZM9.79272 11.8895C10.1465 11.8895 10.4779 11.807 10.7869 11.6418C10.8169 11.6258 10.8464 11.6091 10.8754 11.5919C11.3002 11.3391 11.1625 10.7515 10.691 10.6031C10.4033 10.5125 10.105 10.4673 9.79607 10.4673C9.48711 10.4673 9.18881 10.5125 8.90116 10.6031C8.42967 10.7515 8.29156 11.3393 8.71583 11.593C8.74401 11.6098 8.7727 11.6261 8.80192 11.6418C9.10853 11.807 9.43881 11.8895 9.79272 11.8895ZM0.958833 11.506C0.695154 11.506 0.469454 11.4121 0.281737 11.2243C0.0939112 11.0365 0 10.8108 0 10.5472V0.958833C0 0.695154 0.0939112 0.469403 0.281737 0.281577C0.469454 0.0938601 0.695154 0 0.958833 0H10.5472C10.8108 0 11.0366 0.0938601 11.2244 0.281577C11.4121 0.469403 11.506 0.695154 11.506 0.958833V5.35348C11.506 5.48932 11.4597 5.60316 11.3673 5.69499C11.2749 5.78694 11.1604 5.8329 11.0237 5.8329C10.8871 5.8329 10.7735 5.78694 10.683 5.69499C10.5924 5.60316 10.5472 5.48932 10.5472 5.35348C10.5472 2.92639 8.57961 0.958833 6.15251 0.958833H5.753C3.10525 0.958833 0.958833 3.10525 0.958833 5.753V10.5472H5.38544C5.52128 10.5472 5.63516 10.5934 5.72711 10.6859C5.81893 10.7782 5.86486 10.8928 5.86486 11.0295C5.86486 11.166 5.81893 11.2796 5.72711 11.3702C5.63516 11.4607 5.52128 11.506 5.38544 11.506H0.958833ZM0.958833 9.79607V10.5472V15.4692V9.79607ZM2.55689 8.47256C2.55689 8.60913 2.60285 8.72272 2.6948 8.81327C2.78662 8.90382 2.90047 8.9491 3.0363 8.9491H5.44937C5.5852 8.9491 5.69908 8.90286 5.79103 8.81039C5.88285 8.71803 5.92878 8.60351 5.92878 8.46681C5.92878 8.33024 5.88285 8.21665 5.79103 8.12611C5.69908 8.03556 5.5852 7.99027 5.44937 7.99027H3.0363C2.90047 7.99027 2.78662 8.03652 2.6948 8.12898C2.60285 8.22135 2.55689 8.33587 2.55689 8.47256ZM2.55689 5.75587C2.55689 5.89244 2.60285 6.00603 2.6948 6.09658C2.78662 6.18712 2.90047 6.23241 3.0363 6.23241H8.15008C8.28591 6.23241 8.39979 6.18616 8.49174 6.0937C8.58357 6.00133 8.62949 5.88682 8.62949 5.75012C8.62949 5.61355 8.58357 5.49996 8.49174 5.40941C8.39979 5.31887 8.28591 5.27358 8.15008 5.27358H3.0363C2.90047 5.27358 2.78662 5.31983 2.6948 5.41229C2.60285 5.50466 2.55689 5.61917 2.55689 5.75587ZM2.55689 3.03918C2.55689 3.17575 2.60285 3.28934 2.6948 3.37989C2.78662 3.47043 2.90047 3.51572 3.0363 3.51572H8.46969C8.60552 3.51572 8.7194 3.46947 8.81135 3.37701C8.90318 3.28464 8.94911 3.17012 8.94911 3.03343C8.94911 2.89686 8.90318 2.78327 8.81135 2.69272C8.7194 2.60218 8.60552 2.55689 8.46969 2.55689H3.0363C2.90047 2.55689 2.78662 2.60313 2.6948 2.6956C2.60285 2.78797 2.55689 2.90248 2.55689 3.03918ZM9.78808 12.7685C8.96243 12.7685 8.2566 12.4728 7.67066 11.8815C7.08472 11.2903 6.79173 10.5898 6.79173 9.78009C6.79173 8.94453 7.08465 8.23222 7.6705 7.64317C8.25635 7.05423 8.96486 6.75977 9.79607 6.75977C10.6164 6.75977 11.3222 7.05423 11.9135 7.64317C12.5048 8.23222 12.8004 8.94453 12.8004 9.78009C12.8004 10.5898 12.5048 11.2903 11.9135 11.8815C11.3222 12.4728 10.6137 12.7685 9.78808 12.7685Z" fill="black"/>
</svg>
