<svg width="13" height="15" viewBox="0 0 13 15" fill="none" xmlns="http://www.w3.org/2000/svg">
<path d="M2.23633 9.86762C2.23633 10.4076 2.34269 10.9423 2.54934 11.4412C2.75599 11.9401 3.05888 12.3935 3.44073 12.7753C3.82257 13.1571 4.27588 13.46 4.77478 13.6667C5.27368 13.8733 5.80839 13.9797 6.3484 13.9797C6.8884 13.9797 7.42312 13.8733 7.92202 13.6667C8.42092 13.46 8.87423 13.1571 9.25607 12.7753C9.63791 12.3935 9.94081 11.9401 10.1475 11.4412C10.3541 10.9423 10.4605 10.4076 10.4605 9.86762C10.4605 9.32762 10.3541 8.7929 10.1475 8.294C9.94081 7.7951 9.63791 7.34179 9.25607 6.95995C8.87423 6.57811 8.42092 6.27522 7.92202 6.06857C7.42312 5.86192 6.8884 5.75555 6.3484 5.75555C5.80839 5.75555 5.27368 5.86192 4.77478 6.06857C4.27588 6.27522 3.82257 6.57811 3.44073 6.95995C3.05888 7.34179 2.75599 7.7951 2.54934 8.294C2.34269 8.7929 2.23633 9.32762 2.23633 9.86762Z" stroke="black" stroke-width="0.933631" stroke-linecap="round" stroke-linejoin="round"/>
<path d="M10.195 8.41308C10.6508 8.15106 11.0278 7.77153 11.2869 7.3141C11.5459 6.85666 11.6774 6.33809 11.6677 5.81249C11.649 4.72855 11.2061 3.69514 10.4341 2.93404C10.4111 3.12479 10.3498 3.30891 10.2537 3.47531C10.1577 3.6417 10.0289 3.78691 9.8752 3.90219C9.72149 4.01747 9.54604 4.10042 9.3594 4.14604C9.17277 4.19167 8.97883 4.19902 8.78928 4.16766C8.2649 3.72664 7.90026 3.1253 7.75162 2.45644C7.60299 1.78758 7.67863 1.08839 7.96687 0.466797C5.39682 0.466797 3.75199 1.98298 3.44359 4.16766C3.0644 4.20727 2.68424 4.10218 2.37924 3.87343C2.07424 3.64468 1.8669 3.30915 1.79876 2.93404C-0.0205373 4.48135 -0.114528 7.61123 2.38267 8.77142" stroke="black" stroke-width="0.933631" stroke-linecap="round" stroke-linejoin="round"/>
<path d="M8.40345 9.86674H6.34741V7.22327" stroke="black" stroke-width="0.933631" stroke-linecap="round" stroke-linejoin="round"/>
</svg>
