<svg width="218" height="364" viewBox="0 0 218 364" fill="none" xmlns="http://www.w3.org/2000/svg">
<g filter="url(#filter0_d_4857_1529)">
<rect x="-28" y="36.8281" width="92.299" height="108.683" rx="5.46148" transform="rotate(-10.6041 -28 36.8281)" fill="white"/>
<rect x="-28" y="36.8281" width="92.299" height="108.683" rx="5.46148" transform="rotate(-10.6041 -28 36.8281)" fill="url(#paint0_linear_4857_1529)"/>
<rect x="-27.8407" y="36.9372" width="92.0259" height="108.41" rx="5.32494" transform="rotate(-10.6041 -27.8407 36.9372)" stroke="#DCDCDC" stroke-width="0.273074"/>
</g>
<g filter="url(#filter1_d_4857_1529)">
<rect x="71.1514" y="126.687" width="102.239" height="120.388" rx="6.04963" transform="rotate(-11.0709 71.1514 126.687)" fill="white"/>
<rect x="71.1514" y="126.687" width="102.239" height="120.388" rx="6.04963" transform="rotate(-11.0709 71.1514 126.687)" fill="url(#paint1_linear_4857_1529)"/>
<rect x="71.3288" y="126.806" width="101.936" height="120.085" rx="5.89839" transform="rotate(-11.0709 71.3288 126.806)" stroke="#DCDCDC" stroke-width="0.302481"/>
</g>
<path d="M89.6279 219.545L189.667 199.971" stroke="#787878" stroke-opacity="0.23" stroke-width="0.302481"/>
<rect x="141.559" y="214.007" width="45.0697" height="14.8216" rx="3.0843" transform="rotate(-11.0709 141.559 214.007)" fill="#FCFEFF"/>
<rect x="141.468" y="213.945" width="45.2251" height="14.977" rx="3.16201" transform="rotate(-11.0709 141.468 213.945)" stroke="black" stroke-opacity="0.2" stroke-width="0.155411"/>
<rect x="146.042" y="216.812" width="37.4527" height="6.75377" rx="3.37688" transform="rotate(-11.0709 146.042 216.812)" fill="#F0F0F0"/>
<rect x="94.9517" y="223.127" width="45.0697" height="14.8216" rx="3.0843" transform="rotate(-11.0709 94.9517 223.127)" fill="#FCFEFF"/>
<rect x="94.8605" y="223.066" width="45.2251" height="14.977" rx="3.16201" transform="rotate(-11.0709 94.8605 223.066)" stroke="black" stroke-opacity="0.2" stroke-width="0.155411"/>
<rect x="109.002" y="224.689" width="26.4011" height="6.75377" rx="3.37688" transform="rotate(-11.0709 109.002 224.689)" fill="#F0F0F0"/>
<path d="M102.135 230.301C101.832 230.034 101.68 229.9 101.589 229.434C101.498 228.968 101.588 228.787 101.768 228.426C102.128 227.704 102.799 226.834 103.988 226.602C105.178 226.369 106.127 226.921 106.732 227.454C107.036 227.721 107.187 227.854 107.279 228.321C107.37 228.787 107.28 228.968 107.099 229.329C106.739 230.051 106.069 230.921 104.879 231.153C103.689 231.386 102.741 230.833 102.135 230.301Z" stroke="black" stroke-width="0.302481"/>
<path d="M105.288 228.707C105.381 229.178 105.073 229.635 104.602 229.727C104.131 229.82 103.674 229.512 103.582 229.041C103.489 228.57 103.797 228.113 104.268 228.021C104.739 227.928 105.196 228.236 105.288 228.707Z" stroke="black" stroke-width="0.302481"/>
<g filter="url(#filter2_d_4857_1529)">
<rect x="92.0283" y="198.723" width="14.2229" height="14.2229" rx="3.55572" transform="rotate(-11.0709 92.0283 198.723)" fill="white"/>
<rect x="92.18" y="198.825" width="13.9643" height="13.9643" rx="3.42642" transform="rotate(-11.0709 92.18 198.825)" stroke="#DCDCDC" stroke-width="0.258598"/>
</g>
<g filter="url(#filter3_d_4857_1529)">
<rect x="109.539" y="195.299" width="14.2229" height="14.2229" rx="3.55572" transform="rotate(-11.0709 109.539 195.299)" fill="white"/>
<rect x="109.691" y="195.401" width="13.9643" height="13.9643" rx="3.42642" transform="rotate(-11.0709 109.691 195.401)" stroke="#DCDCDC" stroke-width="0.258598"/>
</g>
<g filter="url(#filter4_d_4857_1529)">
<rect x="127.051" y="191.875" width="14.2229" height="14.2229" rx="3.55572" transform="rotate(-11.0709 127.051 191.875)" fill="white"/>
<rect x="127.203" y="191.977" width="13.9643" height="13.9643" rx="3.42642" transform="rotate(-11.0709 127.203 191.977)" stroke="#DCDCDC" stroke-width="0.258598"/>
</g>
<path d="M96.7529 202.012L103.052 200.78C103.052 200.78 103.682 200.657 103.805 201.287L104.668 205.696C104.668 205.696 104.791 206.326 104.161 206.449L97.8622 207.682C97.8622 207.682 97.2323 207.805 97.109 207.175L96.2463 202.766C96.2463 202.766 96.123 202.136 96.7529 202.012Z" stroke="#787878" stroke-width="0.641836" stroke-linecap="round" stroke-linejoin="round"/>
<path d="M96.3672 202.248L100.023 204.018C100.148 204.078 100.289 204.097 100.425 204.07C100.562 204.043 100.686 203.973 100.779 203.87L103.498 200.853" stroke="#787878" stroke-width="0.641836" stroke-linecap="round" stroke-linejoin="round"/>
<path d="M139.339 200.522C138.577 200.672 137.764 200.64 136.9 200.427C136.037 200.214 135.2 199.835 134.391 199.291C133.582 198.746 132.916 198.114 132.393 197.395C131.871 196.675 131.535 195.934 131.386 195.172C131.361 195.045 131.382 194.931 131.45 194.83C131.518 194.729 131.616 194.667 131.742 194.642L133.122 194.372C133.214 194.354 133.299 194.371 133.378 194.424C133.456 194.477 133.518 194.55 133.564 194.643L134.072 195.83C134.104 195.921 134.119 196.007 134.117 196.085C134.116 196.164 134.093 196.236 134.05 196.3L133.261 197.486C133.488 197.742 133.721 197.976 133.961 198.188C134.2 198.4 134.457 198.596 134.73 198.774C135.022 198.976 135.323 199.154 135.633 199.309C135.943 199.463 136.261 199.59 136.587 199.69L137.335 198.541C137.386 198.456 137.453 198.391 137.534 198.348C137.615 198.305 137.699 198.282 137.785 198.279L139.008 198.305C139.111 198.312 139.204 198.349 139.285 198.415C139.366 198.482 139.416 198.564 139.436 198.662L139.696 199.992C139.721 200.119 139.699 200.233 139.631 200.334C139.563 200.435 139.466 200.498 139.339 200.522ZM132.859 197.002L133.499 196.037L133.06 194.998L132.006 195.204C132.073 195.477 132.174 195.76 132.309 196.05C132.445 196.341 132.628 196.658 132.859 197.002ZM137.195 199.868C137.489 199.94 137.801 199.984 138.132 200.001C138.463 200.019 138.777 200.005 139.076 199.96L138.869 198.906L137.814 198.897L137.195 199.868Z" fill="#787878"/>
<path d="M120.131 197.279C119.272 196.7 118.239 196.491 117.222 196.69C115.125 197.1 113.752 199.141 114.163 201.238C114.294 201.908 114.597 202.529 115.042 203.041L114.888 205.117L116.801 204.193C117.416 204.388 118.072 204.425 118.71 204.3L118.711 204.3C120.807 203.89 122.218 201.842 121.807 199.744C121.608 198.728 120.99 197.858 120.131 197.279ZM118.586 203.659C118.017 203.77 117.43 203.727 116.889 203.534L116.761 203.488L115.626 204.035L115.717 202.806L115.618 202.701C115.202 202.259 114.922 201.71 114.805 201.112C114.464 199.37 115.605 197.673 117.35 197.332C118.195 197.167 119.052 197.34 119.766 197.822C120.479 198.303 121.001 199.025 121.165 199.87C121.506 201.614 120.329 203.318 118.586 203.659ZM119.857 200.951C119.753 200.922 119.24 200.784 119.147 200.77C119.053 200.755 118.987 200.752 118.942 200.86C118.898 200.968 118.758 201.216 118.714 201.292C118.671 201.367 118.616 201.386 118.513 201.357C117.899 201.187 117.49 201.039 116.998 200.479C116.867 200.33 117.065 200.304 117.175 199.905C117.194 199.836 117.168 199.784 117.134 199.74C117.101 199.697 116.819 199.267 116.703 199.092C116.59 198.922 116.516 198.963 116.457 198.971C116.402 198.978 116.338 198.991 116.275 199.003C116.211 199.015 116.113 199.06 116.044 199.171C115.976 199.284 115.776 199.562 115.867 200.029C115.959 200.497 116.388 200.883 116.447 200.937C116.507 200.991 117.317 201.829 118.352 202.055C119.006 202.198 119.247 202.174 119.54 202.07C119.718 202.007 120.057 201.731 120.093 201.492C120.128 201.254 120.091 201.064 120.059 201.029C120.028 200.991 119.96 200.979 119.857 200.951Z" fill="#787878"/>
<rect x="77.3647" y="130.092" width="15.7742" height="15.7742" rx="2.81683" transform="rotate(-11.0709 77.3647 130.092)" fill="white"/>
<path fill-rule="evenodd" clip-rule="evenodd" d="M86.6003 142.449C88.0898 140.096 87.972 141.208 90.1866 139.566C91.2407 138.785 92.2435 137.051 91.7198 135.337L86.9076 136.281C86.7769 137.23 86.4449 141.702 86.6003 142.449Z" fill="black"/>
<path fill-rule="evenodd" clip-rule="evenodd" d="M85.1074 139.701C85.2682 138.766 85.4257 137.532 85.3814 136.58L84.3525 136.782C84.1741 135.116 84.3931 135.817 85.4514 135.444C85.9687 135.079 85.1236 132.941 88.7304 131.331C84.2332 130.064 80.6867 136.749 85.1074 139.701Z" fill="black"/>
<path fill-rule="evenodd" clip-rule="evenodd" d="M85.5777 141.281C84.8215 140.38 81.6809 138.733 82.4943 135.011C83.1844 131.854 85.0232 131.405 87.6669 130.823C85.6292 130.525 82.9293 130.957 81.6435 133.976C80.3711 136.817 82.1329 141.21 85.5777 141.281L85.5777 141.281Z" fill="black"/>
<path fill-rule="evenodd" clip-rule="evenodd" d="M87.1567 135.198L91.5466 134.339C91.2088 133.121 90.162 131.994 88.9674 132.204C87.7534 132.417 87.0239 134.012 87.1567 135.198L87.1567 135.198Z" fill="black"/>
<rect x="82.8359" y="158.341" width="74.1594" height="6.91316" rx="3.45658" transform="rotate(-11.0709 82.8359 158.341)" fill="black" fill-opacity="0.1"/>
<rect x="85.6826" y="169.501" width="52.6055" height="6.7443" rx="3.37215" transform="rotate(-11.0709 85.6826 169.501)" fill="#F0F0F0"/>
<path d="M119.489 131.115C119.555 131.455 119.688 131.778 119.879 132.067C120.071 132.355 120.317 132.603 120.604 132.796C120.891 132.989 121.214 133.124 121.553 133.192C121.892 133.261 122.241 133.262 122.581 133.195C122.921 133.129 123.244 132.996 123.532 132.805C123.821 132.614 124.068 132.367 124.261 132.08C124.455 131.793 124.589 131.471 124.658 131.132C124.726 130.792 124.728 130.443 124.661 130.103C124.595 129.764 124.462 129.441 124.271 129.152C124.079 128.864 123.833 128.616 123.546 128.423C123.259 128.23 122.936 128.095 122.597 128.026C122.258 127.958 121.909 127.957 121.569 128.023C121.229 128.09 120.906 128.222 120.618 128.414C120.33 128.605 120.082 128.851 119.889 129.139C119.695 129.426 119.561 129.748 119.492 130.087C119.424 130.426 119.422 130.776 119.489 131.115Z" stroke="black" stroke-width="0.5983" stroke-linecap="round" stroke-linejoin="round"/>
<path d="M124.316 129.224C124.57 129.003 124.76 128.718 124.867 128.399C124.974 128.079 124.993 127.737 124.922 127.407C124.777 126.728 124.371 126.133 123.792 125.749C123.801 125.872 123.785 125.995 123.745 126.112C123.705 126.228 123.642 126.335 123.559 126.427C123.477 126.518 123.377 126.592 123.265 126.643C123.153 126.695 123.032 126.724 122.909 126.727C122.525 126.514 122.222 126.181 122.046 125.779C121.87 125.376 121.832 124.927 121.937 124.501C120.32 124.817 119.472 125.973 119.547 127.385C119.314 127.457 119.062 127.437 118.842 127.331C118.622 127.225 118.45 127.039 118.361 126.812C117.407 128.009 117.733 129.989 119.447 130.411" stroke="black" stroke-width="0.5983" stroke-linecap="round" stroke-linejoin="round"/>
<path d="M123.368 130.361L122.075 130.614L121.75 128.951" stroke="black" stroke-width="0.5983" stroke-linecap="round" stroke-linejoin="round"/>
<rect x="127.282" y="124.134" width="40.5226" height="6.75377" rx="3.37688" transform="rotate(-11.0709 127.282 124.134)" fill="white"/>
<g filter="url(#filter5_d_4857_1529)">
<rect x="-0.467285" y="152.653" width="134.792" height="158.719" rx="7.97585" transform="rotate(9.30253 -0.467285 152.653)" fill="white"/>
<rect x="-0.467285" y="152.653" width="134.792" height="158.719" rx="7.97585" transform="rotate(9.30253 -0.467285 152.653)" fill="url(#paint2_linear_4857_1529)"/>
<rect x="-0.302743" y="152.882" width="134.393" height="158.321" rx="7.77646" transform="rotate(9.30253 -0.302743 152.882)" stroke="#DCDCDC" stroke-width="0.398793"/>
</g>
<path d="M-20.251 275.901L112.375 297.626" stroke="#787878" stroke-opacity="0.23" stroke-width="0.398793"/>
<rect x="46.4722" y="292.89" width="59.4201" height="19.5408" rx="4.06635" transform="rotate(9.30253 46.4722 292.89)" fill="#FCFEFF"/>
<rect x="46.3876" y="292.772" width="59.625" height="19.7457" rx="4.1688" transform="rotate(9.30253 46.3876 292.772)" stroke="black" stroke-opacity="0.2" stroke-width="0.204895"/>
<rect x="50.7246" y="298.417" width="49.3778" height="8.9042" rx="4.4521" transform="rotate(9.30253 50.7246 298.417)" fill="#F0F0F0"/>
<rect x="-15.3145" y="282.768" width="59.4201" height="19.5408" rx="4.06635" transform="rotate(9.30253 -15.3145 282.768)" fill="#FCFEFF"/>
<rect x="-15.399" y="282.65" width="59.625" height="19.7457" rx="4.1688" transform="rotate(9.30253 -15.399 282.65)" stroke="black" stroke-opacity="0.2" stroke-width="0.204895"/>
<rect x="1.3335" y="291.14" width="34.8073" height="8.9042" rx="4.4521" transform="rotate(9.30253 1.3335 291.14)" fill="#F0F0F0"/>
<g filter="url(#filter6_d_4857_1529)">
<rect x="-7.73047" y="251.273" width="18.7515" height="18.7515" rx="4.68788" transform="rotate(9.30253 -7.73047 251.273)" fill="white"/>
<rect x="-7.5898" y="251.469" width="18.4106" height="18.4106" rx="4.51741" transform="rotate(9.30253 -7.5898 251.469)" stroke="#DCDCDC" stroke-width="0.340937"/>
</g>
<g filter="url(#filter7_d_4857_1529)">
<rect x="15.4849" y="255.081" width="18.7515" height="18.7515" rx="4.68788" transform="rotate(9.30253 15.4849 255.081)" fill="white"/>
<rect x="15.6255" y="255.277" width="18.4106" height="18.4106" rx="4.51741" transform="rotate(9.30253 15.6255 255.277)" stroke="#DCDCDC" stroke-width="0.340937"/>
</g>
<g filter="url(#filter8_d_4857_1529)">
<rect x="38.6992" y="258.878" width="18.7515" height="18.7515" rx="4.68788" transform="rotate(9.30253 38.6992 258.878)" fill="white"/>
<rect x="38.8399" y="259.074" width="18.4106" height="18.4106" rx="4.51741" transform="rotate(9.30253 38.8399 259.074)" stroke="#DCDCDC" stroke-width="0.340937"/>
</g>
<path d="M-3.40321 257.509L4.94749 258.877C4.94749 258.877 5.78256 259.014 5.64577 259.849L4.68827 265.694C4.68827 265.694 4.55149 266.529 3.71642 266.392L-4.63428 265.024C-4.63428 265.024 -5.46935 264.888 -5.33257 264.053L-4.37507 258.207C-4.37507 258.207 -4.23828 257.372 -3.40321 257.509Z" stroke="#787878" stroke-width="0.846199" stroke-linecap="round" stroke-linejoin="round"/>
<path d="M-3.98926 257.624L-0.283591 261.489C-0.156801 261.622 0.00941018 261.709 0.190094 261.739C0.370779 261.768 0.556189 261.738 0.718494 261.654L5.46373 259.172" stroke="#787878" stroke-width="0.846199" stroke-linecap="round" stroke-linejoin="round"/>
<path d="M49.9166 275.211C48.9063 275.045 47.9163 274.633 46.9466 273.973C45.977 273.313 45.1171 272.461 44.3669 271.417C43.6167 270.373 43.0837 269.286 42.7679 268.157C42.452 267.028 42.3769 265.958 42.5424 264.947C42.5699 264.779 42.6488 264.648 42.7792 264.555C42.9094 264.461 43.0586 264.428 43.2266 264.456L45.0557 264.755C45.1776 264.775 45.275 264.836 45.3478 264.937C45.4206 265.039 45.4638 265.158 45.4772 265.294L45.5602 266.993C45.5577 267.121 45.5374 267.233 45.4992 267.33C45.4611 267.426 45.4002 267.505 45.3168 267.565L43.7977 268.668C43.9614 269.088 44.1424 269.484 44.3408 269.857C44.5392 270.229 44.7665 270.588 45.0228 270.934C45.2909 271.318 45.581 271.676 45.8932 272.009C46.2053 272.342 46.5403 272.645 46.898 272.918L48.3489 271.841C48.4516 271.76 48.5632 271.711 48.6834 271.695C48.8036 271.679 48.9177 271.689 49.0254 271.724L50.5245 272.319C50.6494 272.375 50.7469 272.462 50.8168 272.582C50.8867 272.701 50.911 272.825 50.8897 272.955L50.6008 274.719C50.5733 274.887 50.4944 275.018 50.364 275.111C50.2338 275.205 50.0846 275.238 49.9166 275.211ZM43.5234 267.885L44.7572 266.987L44.6921 265.501L43.2942 265.272C43.2517 265.64 43.2473 266.035 43.2811 266.457C43.315 266.878 43.3957 267.354 43.5234 267.885ZM47.5675 273.417C47.8975 273.641 48.263 273.84 48.664 274.013C49.0649 274.186 49.4599 274.313 49.849 274.395L50.078 272.997L48.7773 272.502L47.5675 273.417Z" fill="#787878"/>
<path d="M27.6633 262.391C26.8677 261.281 25.686 260.549 24.3389 260.328C21.5583 259.873 18.925 261.765 18.4695 264.545C18.324 265.434 18.4136 266.339 18.7289 267.177L17.5854 269.673L20.3742 269.409C21.0444 269.931 21.839 270.278 22.684 270.417L22.6863 270.417C25.4647 270.872 28.1479 268.988 28.6034 266.208C28.8241 264.861 28.4588 263.501 27.6633 262.391ZM22.8255 269.567C22.0713 269.444 21.3661 269.121 20.7857 268.634L20.6484 268.518L18.9946 268.674L19.6705 267.196L19.5966 267.021C19.2858 266.284 19.1915 265.478 19.3214 264.685C19.6999 262.375 21.889 260.802 24.2016 261.181C25.3216 261.364 26.3019 261.972 26.9626 262.895C27.6233 263.817 27.9372 264.949 27.7515 266.068C27.3727 268.381 25.1358 269.946 22.8255 269.567ZM25.6388 266.804C25.5242 266.72 24.9539 266.314 24.8447 266.255C24.736 266.192 24.6552 266.158 24.5504 266.272C24.4455 266.385 24.1585 266.627 24.0694 266.701C23.9829 266.774 23.9061 266.773 23.7916 266.689C23.1117 266.197 22.6731 265.827 22.322 264.908C22.229 264.664 22.4854 264.723 22.8051 264.281C22.8597 264.203 22.8512 264.127 22.8298 264.058C22.8084 263.99 22.6578 263.328 22.5946 263.059C22.5326 262.797 22.4225 262.814 22.346 262.796C22.2741 262.78 22.19 262.766 22.106 262.752C22.0219 262.739 21.8804 262.748 21.7441 262.854C21.6074 262.962 21.2326 263.214 21.1311 263.834C21.0295 264.454 21.3833 265.128 21.4309 265.222C21.4807 265.316 22.097 266.724 23.2727 267.478C24.0158 267.955 24.3244 268.035 24.7339 268.042C24.983 268.045 25.5289 267.86 25.6818 267.581C25.8347 267.303 25.876 267.051 25.8527 266.994C25.8325 266.932 25.7537 266.886 25.6388 266.804Z" fill="#787878"/>
<rect x="5.64893" y="159.716" width="20.7968" height="20.7968" rx="3.71371" transform="rotate(9.30253 5.64893 159.716)" fill="white"/>
<path fill-rule="evenodd" clip-rule="evenodd" d="M11.3915 179.23C14.3124 177.005 13.6568 178.325 17.1474 177.312C18.8089 176.83 20.844 175.148 20.9832 172.79L14.6026 171.747C14.0053 172.86 11.5426 178.235 11.3915 179.23Z" fill="black"/>
<path fill-rule="evenodd" clip-rule="evenodd" d="M10.8103 175.148C11.438 174.066 12.199 172.613 12.5813 171.417L11.2172 171.193C11.7612 169.053 11.71 170.02 13.1893 170.044C13.9964 169.83 13.9333 166.8 19.1298 166.466C14.1531 162.836 6.70134 169.471 10.8103 175.148Z" fill="black"/>
<path fill-rule="evenodd" clip-rule="evenodd" d="M10.6638 177.32C10.1429 175.859 7.01742 172.382 9.73078 168.156C12.0327 164.571 14.5115 164.86 18.0459 165.354C15.6643 164.05 12.1291 163.345 9.15449 166.486C6.27784 169.413 6.4388 175.652 10.6639 177.32L10.6638 177.32Z" fill="black"/>
<path fill-rule="evenodd" clip-rule="evenodd" d="M15.4098 170.523L21.2297 171.476C21.371 169.816 20.5947 167.943 19.0218 167.654C17.4234 167.361 15.79 168.996 15.4098 170.523L15.4098 170.523Z" fill="black"/>
<rect x="-0.543457" y="197.142" width="97.772" height="9.11434" rx="4.55717" transform="rotate(9.30253 -0.543457 197.142)" fill="black" fill-opacity="0.1"/>
<rect x="-2.15674" y="212.229" width="69.3554" height="8.89171" rx="4.44586" transform="rotate(9.30253 -2.15674 212.229)" fill="#F0F0F0"/>
<path d="M57.2407 180.318C57.1669 180.768 57.1826 181.229 57.2867 181.673C57.3909 182.117 57.5815 182.536 57.8477 182.907C58.1139 183.277 58.4505 183.592 58.8383 183.832C59.226 184.073 59.6573 184.234 60.1076 184.308C60.5578 184.382 61.0181 184.366 61.4623 184.262C61.9065 184.158 62.3258 183.967 62.6963 183.701C63.0669 183.435 63.3813 183.098 63.6217 182.711C63.8622 182.323 64.0239 181.892 64.0976 181.441C64.1714 180.991 64.1557 180.531 64.0516 180.087C63.9474 179.642 63.7568 179.223 63.4906 178.853C63.2243 178.482 62.8878 178.168 62.5 177.927C62.1123 177.687 61.681 177.525 61.2307 177.451C60.7805 177.377 60.3201 177.393 59.876 177.497C59.4318 177.601 59.0125 177.792 58.6419 178.058C58.2714 178.325 57.957 178.661 57.7165 179.049C57.4761 179.437 57.3144 179.868 57.2407 180.318Z" stroke="black" stroke-width="0.788801" stroke-linecap="round" stroke-linejoin="round"/>
<path d="M64.0751 180.195C64.4909 180.039 64.8571 179.774 65.1355 179.428C65.414 179.082 65.5945 178.668 65.6582 178.228C65.7906 177.322 65.5625 176.4 65.0227 175.66C64.9775 175.815 64.9012 175.961 64.7984 176.086C64.6956 176.212 64.5684 176.315 64.4245 176.39C64.2806 176.466 64.123 176.511 63.9612 176.523C63.7993 176.536 63.6366 176.516 63.4829 176.463C63.1059 176.024 62.884 175.473 62.8514 174.895C62.8188 174.317 62.9774 173.744 63.3026 173.266C61.1598 172.915 59.5813 173.954 59.0258 175.733C58.7043 175.715 58.4016 175.575 58.1786 175.343C57.9555 175.11 57.8285 174.802 57.8229 174.48C56.0947 175.522 55.5889 178.119 57.5125 179.427" stroke="black" stroke-width="0.788801" stroke-linecap="round" stroke-linejoin="round"/>
<path d="M62.3825 181.161L60.6683 180.88L61.0293 178.676" stroke="black" stroke-width="0.788801" stroke-linecap="round" stroke-linejoin="round"/>
<rect x="70.0771" y="175.263" width="53.4252" height="8.9042" rx="4.4521" transform="rotate(9.30253 70.0771 175.263)" fill="white"/>
<defs>
<filter id="filter0_d_4857_1529" x="-48.9353" y="0.000288963" width="152.593" height="165.683" filterUnits="userSpaceOnUse" color-interpolation-filters="sRGB">
<feFlood flood-opacity="0" result="BackgroundImageFix"/>
<feColorMatrix in="SourceAlpha" type="matrix" values="0 0 0 0 0 0 0 0 0 0 0 0 0 0 0 0 0 0 127 0" result="hardAlpha"/>
<feOffset dy="1.0923"/>
<feGaussianBlur stdDeviation="10.923"/>
<feComposite in2="hardAlpha" operator="out"/>
<feColorMatrix type="matrix" values="0 0 0 0 0 0 0 0 0 0 0 0 0 0 0 0 0 0 0.05 0"/>
<feBlend mode="normal" in2="BackgroundImageFix" result="effect1_dropShadow_4857_1529"/>
<feBlend mode="normal" in="SourceGraphic" in2="effect1_dropShadow_4857_1529" result="shape"/>
</filter>
<filter id="filter1_d_4857_1529" x="48.0007" y="85.114" width="169.754" height="184.081" filterUnits="userSpaceOnUse" color-interpolation-filters="sRGB">
<feFlood flood-opacity="0" result="BackgroundImageFix"/>
<feColorMatrix in="SourceAlpha" type="matrix" values="0 0 0 0 0 0 0 0 0 0 0 0 0 0 0 0 0 0 127 0" result="hardAlpha"/>
<feOffset dy="1.20993"/>
<feGaussianBlur stdDeviation="12.0993"/>
<feComposite in2="hardAlpha" operator="out"/>
<feColorMatrix type="matrix" values="0 0 0 0 0 0 0 0 0 0 0 0 0 0 0 0 0 0 0.05 0"/>
<feBlend mode="normal" in2="BackgroundImageFix" result="effect1_dropShadow_4857_1529"/>
<feBlend mode="normal" in="SourceGraphic" in2="effect1_dropShadow_4857_1529" result="shape"/>
</filter>
<filter id="filter2_d_4857_1529" x="89.4748" y="193.597" width="21.796" height="21.7955" filterUnits="userSpaceOnUse" color-interpolation-filters="sRGB">
<feFlood flood-opacity="0" result="BackgroundImageFix"/>
<feColorMatrix in="SourceAlpha" type="matrix" values="0 0 0 0 0 0 0 0 0 0 0 0 0 0 0 0 0 0 127 0" result="hardAlpha"/>
<feOffset dy="0.158462"/>
<feGaussianBlur stdDeviation="1.58462"/>
<feComposite in2="hardAlpha" operator="out"/>
<feColorMatrix type="matrix" values="0 0 0 0 0 0 0 0 0 0 0 0 0 0 0 0 0 0 0.05 0"/>
<feBlend mode="normal" in2="BackgroundImageFix" result="effect1_dropShadow_4857_1529"/>
<feBlend mode="normal" in="SourceGraphic" in2="effect1_dropShadow_4857_1529" result="shape"/>
</filter>
<filter id="filter3_d_4857_1529" x="106.986" y="190.173" width="21.796" height="21.7955" filterUnits="userSpaceOnUse" color-interpolation-filters="sRGB">
<feFlood flood-opacity="0" result="BackgroundImageFix"/>
<feColorMatrix in="SourceAlpha" type="matrix" values="0 0 0 0 0 0 0 0 0 0 0 0 0 0 0 0 0 0 127 0" result="hardAlpha"/>
<feOffset dy="0.158462"/>
<feGaussianBlur stdDeviation="1.58462"/>
<feComposite in2="hardAlpha" operator="out"/>
<feColorMatrix type="matrix" values="0 0 0 0 0 0 0 0 0 0 0 0 0 0 0 0 0 0 0.05 0"/>
<feBlend mode="normal" in2="BackgroundImageFix" result="effect1_dropShadow_4857_1529"/>
<feBlend mode="normal" in="SourceGraphic" in2="effect1_dropShadow_4857_1529" result="shape"/>
</filter>
<filter id="filter4_d_4857_1529" x="124.497" y="186.749" width="21.796" height="21.7955" filterUnits="userSpaceOnUse" color-interpolation-filters="sRGB">
<feFlood flood-opacity="0" result="BackgroundImageFix"/>
<feColorMatrix in="SourceAlpha" type="matrix" values="0 0 0 0 0 0 0 0 0 0 0 0 0 0 0 0 0 0 127 0" result="hardAlpha"/>
<feOffset dy="0.158462"/>
<feGaussianBlur stdDeviation="1.58462"/>
<feComposite in2="hardAlpha" operator="out"/>
<feColorMatrix type="matrix" values="0 0 0 0 0 0 0 0 0 0 0 0 0 0 0 0 0 0 0.05 0"/>
<feBlend mode="normal" in2="BackgroundImageFix" result="effect1_dropShadow_4857_1529"/>
<feBlend mode="normal" in="SourceGraphic" in2="effect1_dropShadow_4857_1529" result="shape"/>
</filter>
<filter id="filter5_d_4857_1529" x="-56.8443" y="123.529" width="220.116" height="239.861" filterUnits="userSpaceOnUse" color-interpolation-filters="sRGB">
<feFlood flood-opacity="0" result="BackgroundImageFix"/>
<feColorMatrix in="SourceAlpha" type="matrix" values="0 0 0 0 0 0 0 0 0 0 0 0 0 0 0 0 0 0 127 0" result="hardAlpha"/>
<feOffset dy="1.59517"/>
<feGaussianBlur stdDeviation="15.9517"/>
<feComposite in2="hardAlpha" operator="out"/>
<feColorMatrix type="matrix" values="0 0 0 0 0 0 0 0 0 0 0 0 0 0 0 0 0 0 0.05 0"/>
<feBlend mode="normal" in2="BackgroundImageFix" result="effect1_dropShadow_4857_1529"/>
<feBlend mode="normal" in="SourceGraphic" in2="effect1_dropShadow_4857_1529" result="shape"/>
</filter>
<filter id="filter6_d_4857_1529" x="-14.2447" y="247.999" width="28.5022" height="28.5022" filterUnits="userSpaceOnUse" color-interpolation-filters="sRGB">
<feFlood flood-opacity="0" result="BackgroundImageFix"/>
<feColorMatrix in="SourceAlpha" type="matrix" values="0 0 0 0 0 0 0 0 0 0 0 0 0 0 0 0 0 0 127 0" result="hardAlpha"/>
<feOffset dy="0.208916"/>
<feGaussianBlur stdDeviation="2.08916"/>
<feComposite in2="hardAlpha" operator="out"/>
<feColorMatrix type="matrix" values="0 0 0 0 0 0 0 0 0 0 0 0 0 0 0 0 0 0 0.05 0"/>
<feBlend mode="normal" in2="BackgroundImageFix" result="effect1_dropShadow_4857_1529"/>
<feBlend mode="normal" in="SourceGraphic" in2="effect1_dropShadow_4857_1529" result="shape"/>
</filter>
<filter id="filter7_d_4857_1529" x="8.9706" y="251.807" width="28.5022" height="28.5022" filterUnits="userSpaceOnUse" color-interpolation-filters="sRGB">
<feFlood flood-opacity="0" result="BackgroundImageFix"/>
<feColorMatrix in="SourceAlpha" type="matrix" values="0 0 0 0 0 0 0 0 0 0 0 0 0 0 0 0 0 0 127 0" result="hardAlpha"/>
<feOffset dy="0.208916"/>
<feGaussianBlur stdDeviation="2.08916"/>
<feComposite in2="hardAlpha" operator="out"/>
<feColorMatrix type="matrix" values="0 0 0 0 0 0 0 0 0 0 0 0 0 0 0 0 0 0 0.05 0"/>
<feBlend mode="normal" in2="BackgroundImageFix" result="effect1_dropShadow_4857_1529"/>
<feBlend mode="normal" in="SourceGraphic" in2="effect1_dropShadow_4857_1529" result="shape"/>
</filter>
<filter id="filter8_d_4857_1529" x="32.185" y="255.604" width="28.5022" height="28.5022" filterUnits="userSpaceOnUse" color-interpolation-filters="sRGB">
<feFlood flood-opacity="0" result="BackgroundImageFix"/>
<feColorMatrix in="SourceAlpha" type="matrix" values="0 0 0 0 0 0 0 0 0 0 0 0 0 0 0 0 0 0 127 0" result="hardAlpha"/>
<feOffset dy="0.208916"/>
<feGaussianBlur stdDeviation="2.08916"/>
<feComposite in2="hardAlpha" operator="out"/>
<feColorMatrix type="matrix" values="0 0 0 0 0 0 0 0 0 0 0 0 0 0 0 0 0 0 0.05 0"/>
<feBlend mode="normal" in2="BackgroundImageFix" result="effect1_dropShadow_4857_1529"/>
<feBlend mode="normal" in="SourceGraphic" in2="effect1_dropShadow_4857_1529" result="shape"/>
</filter>
<linearGradient id="paint0_linear_4857_1529" x1="18.1495" y1="36.8281" x2="18.1495" y2="79.7007" gradientUnits="userSpaceOnUse">
<stop stop-color="#D0F56B" stop-opacity="0.4"/>
<stop offset="1" stop-color="#D0F56B" stop-opacity="0"/>
</linearGradient>
<linearGradient id="paint1_linear_4857_1529" x1="122.271" y1="126.687" x2="122.271" y2="174.176" gradientUnits="userSpaceOnUse">
<stop stop-color="#E6B2FA"/>
<stop offset="1" stop-color="#E6B2FA" stop-opacity="0"/>
</linearGradient>
<linearGradient id="paint2_linear_4857_1529" x1="66.9287" y1="152.653" x2="66.9287" y2="215.264" gradientUnits="userSpaceOnUse">
<stop stop-color="#FE9355" stop-opacity="0.4"/>
<stop offset="1" stop-color="#E6B2FA" stop-opacity="0"/>
</linearGradient>
</defs>
</svg>
