<svg width="15" height="14" viewBox="0 0 15 14" fill="none" xmlns="http://www.w3.org/2000/svg">
<path d="M0.447754 12.6276L3.8751 13.181C4.5889 13.2801 5.31516 13.1335 5.93467 12.7653L9.52343 10.6317C9.76451 10.4883 9.93876 10.255 10.0078 9.98315C10.0769 9.71128 10.0352 9.42311 9.89177 9.18202C9.74837 8.94094 9.51507 8.76669 9.2432 8.69761C8.97133 8.62854 8.68316 8.67029 8.44207 8.81368L5.63914 10.48" stroke="black" stroke-width="0.895566" stroke-linecap="round" stroke-linejoin="round"/>
<path d="M0.447754 9.87553L1.90413 9.0102C2.44288 8.6896 3.06455 8.53587 3.69063 8.56843L5.13973 8.64368C5.27327 8.64432 5.4053 8.67205 5.52782 8.72519C5.65034 8.77833 5.76081 8.85577 5.85254 8.95283C5.94427 9.04989 6.01535 9.16455 6.06149 9.28988C6.10762 9.4152 6.12786 9.54858 6.12096 9.68195C6.10859 9.92224 6.0089 10.1497 5.84062 10.3217C5.67234 10.4937 5.44705 10.5983 5.20708 10.6159L3.35627 10.6068" stroke="black" stroke-width="0.895566" stroke-linecap="round" stroke-linejoin="round"/>
<path d="M4.63477 7.37577V3.10069C4.63477 2.77709 4.76323 2.46673 4.99194 2.23779C5.22065 2.00886 5.53088 1.88008 5.85448 1.87976H13.1831C13.3435 1.87968 13.5023 1.9112 13.6505 1.97252C13.7987 2.03385 13.9334 2.12377 14.0468 2.23715C14.1603 2.35053 14.2503 2.48515 14.3117 2.63332C14.373 2.78149 14.4046 2.94031 14.4046 3.10069V7.37577C14.4046 7.69975 14.276 8.01045 14.0469 8.23953C13.8178 8.46862 13.5071 8.59731 13.1831 8.59731H11.132" stroke="black" stroke-width="0.895566" stroke-linecap="round" stroke-linejoin="round"/>
<path d="M4.63379 4.32269H8.89856" stroke="black" stroke-width="0.895566" stroke-linecap="round" stroke-linejoin="round"/>
<path d="M10.1396 4.32269H14.4044" stroke="black" stroke-width="0.895566" stroke-linecap="round" stroke-linejoin="round"/>
<path d="M11.1307 0.848255C11.2441 1.37934 10.8392 1.87986 10.2962 1.87986H8.74187C8.19881 1.87986 7.79389 1.37934 7.90729 0.848255C7.94874 0.724151 8.03052 0.617482 8.13961 0.545234C8.2487 0.472985 8.37882 0.43931 8.50926 0.449571H10.5282C10.6587 0.439277 10.7889 0.472929 10.8981 0.545173C11.0073 0.617417 11.0892 0.724102 11.1307 0.848255Z" stroke="black" stroke-width="0.895566" stroke-linecap="round" stroke-linejoin="round"/>
<path d="M9.20367 3.84216H9.83416C9.83416 3.84216 10.1394 3.84216 10.1394 4.1474V5.13531C10.1394 5.13531 10.1394 5.44054 9.83416 5.44054H9.20367C9.20367 5.44054 8.89844 5.44054 8.89844 5.13531V4.1474C8.89844 4.1474 8.89844 3.84216 9.20367 3.84216Z" stroke="black" stroke-width="0.895566" stroke-linecap="round" stroke-linejoin="round"/>
</svg>
