<svg width="21" height="21" viewBox="0 0 21 21" fill="none" xmlns="http://www.w3.org/2000/svg">
<path d="M12.9435 13.9655L12.4739 14.4598C12.4739 14.4598 11.3579 15.6348 8.3118 12.4277C5.26568 9.22066 6.38165 8.04577 6.38165 8.04577L6.67732 7.7345C7.40566 6.96768 7.47432 5.73658 6.83887 4.83781L5.53899 2.99931C4.75248 1.88692 3.23269 1.73997 2.3312 2.68906L0.713188 4.39253C0.266193 4.86313 -0.0333497 5.47318 0.00297729 6.14991C0.0959079 7.88124 0.835714 11.6062 4.96389 15.9525C9.34162 20.5614 13.4492 20.7446 15.129 20.5788C15.6603 20.5263 16.1223 20.2399 16.4946 19.8478L17.9591 18.3061C18.9475 17.2655 18.6688 15.4814 17.4041 14.7534L15.4346 13.6198C14.6042 13.1418 13.5925 13.2822 12.9435 13.9655Z" fill="#676767"/>
<path d="M15.4628 10.3084C18.3094 10.3084 20.617 8.00082 20.617 5.15422C20.617 2.30763 18.3094 0 15.4628 0C12.6162 0 10.3086 2.30763 10.3086 5.15422C10.3086 5.97873 10.5022 6.75803 10.8464 7.44913C10.9379 7.63279 10.9683 7.8427 10.9153 8.04091L10.6084 9.18823C10.4751 9.68633 10.9307 10.142 11.4288 10.0087L12.5761 9.70169C12.7744 9.64871 12.9843 9.67912 13.168 9.77066C13.859 10.1149 14.6383 10.3084 15.4628 10.3084Z" fill="#676767"/>
<path d="M15.9779 2.06165C16.1914 2.06165 16.3645 2.21549 16.3645 2.40526V2.79283C16.8643 2.90726 17.2662 3.23765 17.4362 3.66529C17.5073 3.84419 17.4015 4.04031 17.2003 4.10354C16.999 4.16672 16.7784 4.07304 16.7072 3.89415C16.6009 3.62679 16.3139 3.43611 15.9779 3.43611C15.5509 3.43611 15.2048 3.74379 15.2048 4.12333C15.2048 4.37669 15.2984 4.49172 15.4166 4.57265C15.5686 4.67676 15.7858 4.74115 16.0927 4.82599C16.3656 4.90149 16.7283 4.99742 17.0112 5.19108C17.3279 5.40797 17.5242 5.72829 17.5242 6.18502C17.5242 6.82545 17.0314 7.36362 16.3645 7.51619V7.9031C16.3645 8.09288 16.1914 8.24671 15.9779 8.24671C15.7644 8.24671 15.5913 8.09288 15.5913 7.9031V7.51519C15.0915 7.40073 14.6896 7.07069 14.5196 6.64306C14.4485 6.46418 14.5543 6.26804 14.7555 6.20482C14.9568 6.14163 15.1774 6.23533 15.2486 6.41422C15.3549 6.68158 15.6419 6.87225 15.9779 6.87225C16.4049 6.87225 16.751 6.56458 16.751 6.18502C16.751 5.93168 16.6574 5.81663 16.5392 5.73571C16.3872 5.6316 16.17 5.5672 15.8631 5.48237C15.5902 5.40687 15.2275 5.31094 14.9447 5.11728C14.6279 4.90039 14.4316 4.58007 14.4316 4.12333C14.4316 3.48289 14.9244 2.94474 15.5913 2.79216V2.40526C15.5913 2.21549 15.7644 2.06165 15.9779 2.06165Z" fill="#ECECEC"/>
</svg>
