<svg width="22" height="22" viewBox="0 0 22 22" fill="none" xmlns="http://www.w3.org/2000/svg">
<rect width="21.7497" height="21.7497" rx="10.8748" fill="black"/>
<rect x="0.111553" y="0.111553" width="21.5266" height="21.5266" rx="10.7633" stroke="#0EA2B1" stroke-opacity="0.2" stroke-width="0.223106"/>
<path fill-rule="evenodd" clip-rule="evenodd" d="M15.0309 5.45262C14.8016 5.03305 14.199 5.03305 13.9697 5.45262L13.4867 6.33621C13.3869 6.51887 13.2367 6.66907 13.0541 6.769L12.1708 7.25237C11.7516 7.4818 11.7516 8.08392 12.1708 8.31332L13.0541 8.7967C13.2367 8.89662 13.3869 9.04683 13.4867 9.22948L13.9697 10.1131C14.199 10.5327 14.8016 10.5327 15.0309 10.1131L15.5139 9.22948C15.6137 9.04683 15.7639 8.89662 15.9465 8.7967L16.8298 8.31332C17.249 8.08392 17.249 7.4818 16.8298 7.25237L15.9465 6.769C15.7639 6.66907 15.6137 6.51887 15.5139 6.33621L15.0309 5.45262ZM8.10041 14.8604C7.83911 14.7251 7.64484 14.4864 7.55801 14.2035C7.50051 14.0163 7.42976 13.7751 7.36236 13.5163C6.39219 12.6941 5.77515 11.465 5.77515 10.092C5.77515 7.61493 7.78213 5.60635 10.2585 5.60635C10.5338 5.60635 10.8038 5.63125 11.0661 5.67903C11.329 5.7269 11.5032 5.9788 11.4554 6.24165C11.4075 6.5045 11.1556 6.67878 10.8927 6.6309C10.6873 6.59349 10.4754 6.57389 10.2585 6.57389C8.31702 6.57389 6.74268 8.14874 6.74268 10.092C6.74268 11.2163 7.26914 12.2172 8.09064 12.862C8.17549 12.9286 8.23565 13.0217 8.26156 13.1264C8.33436 13.4208 8.41711 13.7052 8.48293 13.9196C8.50209 13.982 8.544 14.0077 8.58227 14.0117C8.89094 14.044 9.42661 14.081 10.2585 14.081C11.0903 14.081 11.6259 14.0439 11.9347 14.0116C11.9729 14.0076 12.0148 13.9819 12.034 13.9195C12.0998 13.7051 12.1826 13.4207 12.2554 13.1263C12.2813 13.0216 12.3414 12.9285 12.4263 12.8619C12.8393 12.5377 13.1779 12.1232 13.4124 11.6486C13.5307 11.409 13.8208 11.3108 14.0604 11.4291C14.2999 11.5474 14.3982 11.8375 14.2798 12.0771C14.006 12.6315 13.6212 13.1208 13.1546 13.5162C13.0872 13.775 13.0164 14.0162 12.9589 14.2034C12.8732 14.4825 12.683 14.7186 12.4269 14.8548L12.372 15.362C12.3152 15.8863 11.9395 16.3617 11.3644 16.4373C11.076 16.4751 10.7011 16.5062 10.2473 16.5062C9.77011 16.5062 9.39996 16.4718 9.12801 16.4307C8.62743 16.3549 8.29815 15.9571 8.21446 15.5111C8.18004 15.3277 8.14025 15.1054 8.10041 14.8604Z" fill="url(#paint0_linear_4880_1109)"/>
<defs>
<linearGradient id="paint0_linear_4880_1109" x1="11.4597" y1="5.13794" x2="11.4597" y2="16.5062" gradientUnits="userSpaceOnUse">
<stop stop-color="#36D7ED"/>
<stop offset="1" stop-color="#EEFC53"/>
</linearGradient>
</defs>
</svg>
