<svg width="13" height="12" viewBox="0 0 13 12" fill="none" xmlns="http://www.w3.org/2000/svg">
<path d="M11.1115 0.46298C11.1115 0.718677 10.9042 0.92596 10.6485 0.92596H1.96403C1.39072 0.92596 0.92596 1.39072 0.92596 1.96403C0.92596 2.2391 1.03514 2.50293 1.22951 2.69757L4.35664 5.82892C4.53138 6.00069 4.6298 6.23546 4.6298 6.48049V9.2596C4.6298 9.77099 5.04436 10.1856 5.55576 10.1856H6.01874C6.27444 10.1856 6.48172 9.97827 6.48172 9.72258C6.48172 9.46688 6.689 9.2596 6.9447 9.2596C7.20039 9.2596 7.40768 9.46688 7.40768 9.72258V10.1856C7.40768 10.4311 7.31012 10.6667 7.13647 10.8403C6.96282 11.014 6.7273 11.1115 6.48172 11.1115H4.6298C4.38422 11.1115 4.1487 11.014 3.97505 10.8403C3.8014 10.6667 3.70384 10.4311 3.70384 10.1856V10.0986C3.70384 7.78276 2.78386 5.56174 1.14629 3.92417L0.273158 3.05104C0.186503 2.9649 0.117754 2.86246 0.0708718 2.74962C0.0239901 2.63679 -9.65274e-05 2.51579 2.90719e-07 2.39361V0.92596C2.90719e-07 0.68038 0.0975564 0.444858 0.271208 0.271207C0.444859 0.0975561 0.68038 0 0.92596 0H10.6485C10.9042 0 11.1115 0.207283 11.1115 0.46298Z" fill="black"/>
<path d="M12.8294 3.37513L11.4404 1.98619C11.3974 1.9428 11.3462 1.90835 11.2898 1.88485C11.2334 1.86134 11.1729 1.84924 11.1117 1.84924C11.0506 1.84924 10.9901 1.86134 10.9337 1.88485C10.8773 1.90835 10.8261 1.9428 10.783 1.98619L6.90434 5.86905C6.63386 6.13981 6.48193 6.50688 6.48193 6.8896C6.48193 7.68712 7.12846 8.33365 7.92598 8.33365C8.3087 8.33365 8.67577 8.18172 8.94653 7.91124L12.8294 4.03256C12.8728 3.98952 12.9072 3.93832 12.9307 3.8819C12.9542 3.82548 12.9663 3.76497 12.9663 3.70385C12.9663 3.64273 12.9542 3.58221 12.9307 3.5258C12.9072 3.46938 12.8728 3.41817 12.8294 3.37513ZM8.29649 7.25523C8.19887 7.35284 8.06647 7.40769 7.92842 7.40769C7.64094 7.40769 7.40789 7.17464 7.40789 6.88716C7.40789 6.7491 7.46273 6.61671 7.56035 6.51909L9.35472 4.72472C9.558 4.52144 9.88758 4.52144 10.0909 4.72472C10.2941 4.928 10.2941 5.25758 10.0909 5.46086L8.29649 7.25523ZM11.4798 4.07192C11.2765 4.27519 10.9469 4.27519 10.7437 4.07192C10.5404 3.86864 10.5404 3.53906 10.7437 3.33578C10.9469 3.1325 11.2765 3.1325 11.4798 3.33578C11.6831 3.53906 11.6831 3.86864 11.4798 4.07192Z" fill="black"/>
</svg>
