<svg width="21" height="17" viewBox="0 0 21 17" fill="none" xmlns="http://www.w3.org/2000/svg">
<path d="M0 7.73134V8.76218C0 12.1511 -6.14431e-08 13.8455 0.935966 14.986C1.10731 15.1948 1.29875 15.3862 1.50754 15.5575C2.64801 16.4935 4.34245 16.4935 7.73134 16.4935C11.1202 16.4935 12.8146 16.4935 13.9552 15.5575C14.1639 15.3862 14.3553 15.1948 14.5267 14.986C15.2499 14.1047 15.4143 12.8928 15.4516 10.8239L16.1414 11.1632C18.1472 12.1661 19.1502 12.6676 19.8836 12.2144C20.6169 11.7612 20.6169 10.6399 20.6169 8.39716V8.09636C20.6169 5.85368 20.6169 4.73235 19.8836 4.27911C19.1502 3.82588 18.1472 4.32736 16.1414 5.33031L15.4516 5.66967C15.4143 3.60077 15.2499 2.38878 14.5267 1.50754C14.3553 1.29875 14.1639 1.10731 13.9552 0.935966C12.8146 -6.14431e-08 11.1202 0 7.73134 0C4.34245 0 2.64801 -6.14431e-08 1.50754 0.935966C1.29875 1.10731 1.10731 1.29875 0.935966 1.50754C-6.14431e-08 2.64801 0 4.34245 0 7.73134Z" fill="#676767"/>
</svg>
