<svg width="45" height="61" viewBox="0 0 45 61" fill="none" xmlns="http://www.w3.org/2000/svg">
<ellipse cx="30.4291" cy="30.2408" rx="30.4291" ry="30.2408" fill="#D0F56B"/>
<path d="M30.4287 0.755859C46.8211 0.755859 60.1025 13.9616 60.1025 30.2412C60.1023 46.5206 46.821 59.7256 30.4287 59.7256C14.0366 59.7254 0.756089 46.5205 0.755859 30.2412C0.755859 13.9618 14.0365 0.756044 30.4287 0.755859Z" stroke="#787878" stroke-opacity="0.13" stroke-width="1.51204"/>
<path d="M25.8068 45.1818H34.9084C42.4931 45.1818 45.527 42.1667 45.527 34.6289V25.5836C45.527 18.0459 42.4931 15.0308 34.9084 15.0308H25.8068C18.2221 15.0308 15.1882 18.0459 15.1882 25.5836V34.6289C15.1882 42.1667 18.2221 45.1818 25.8068 45.1818Z" stroke="black" stroke-width="2.26133" stroke-miterlimit="10" stroke-linecap="round" stroke-linejoin="round"/>
<path d="M35.6669 26.7143C36.9235 26.7143 37.9423 25.7019 37.9423 24.453C37.9423 23.2041 36.9235 22.1916 35.6669 22.1916C34.4102 22.1916 33.3915 23.2041 33.3915 24.453C33.3915 25.7019 34.4102 26.7143 35.6669 26.7143Z" stroke="black" stroke-width="2.26133" stroke-miterlimit="10" stroke-linecap="round" stroke-linejoin="round"/>
<path d="M25.0483 26.7143C26.305 26.7143 27.3237 25.7019 27.3237 24.453C27.3237 23.2041 26.305 22.1916 25.0483 22.1916C23.7916 22.1916 22.7729 23.2041 22.7729 24.453C22.7729 25.7019 23.7916 26.7143 25.0483 26.7143Z" stroke="black" stroke-width="2.26133" stroke-miterlimit="10" stroke-linecap="round" stroke-linejoin="round"/>
<path d="M24.8966 32.0661H35.8186C36.577 32.0661 37.1838 32.6691 37.1838 33.4229C37.1838 37.1767 34.1348 40.2069 30.3576 40.2069C26.5804 40.2069 23.5314 37.1767 23.5314 33.4229C23.5314 32.6691 24.1382 32.0661 24.8966 32.0661Z" stroke="black" stroke-width="2.26133" stroke-miterlimit="10" stroke-linecap="round" stroke-linejoin="round"/>
</svg>
