<svg width="26" height="26" viewBox="0 0 26 26" fill="none" xmlns="http://www.w3.org/2000/svg">
<path d="M1.0957 12.5957C1.0957 7.17455 1.0957 4.46397 2.77984 2.77984C4.46397 1.0957 7.17455 1.0957 12.5957 1.0957C18.0168 1.0957 20.7275 1.0957 22.4115 2.77984C24.0957 4.46397 24.0957 7.17455 24.0957 12.5957C24.0957 18.0168 24.0957 20.7275 22.4115 22.4115C20.7275 24.0957 18.0168 24.0957 12.5957 24.0957C7.17455 24.0957 4.46397 24.0957 2.77984 22.4115C1.0957 20.7275 1.0957 18.0168 1.0957 12.5957Z" stroke="black" stroke-width="2.19048"/>
<path d="M6.8457 14.8959L9.48253 12.2591C9.93164 11.81 10.6598 11.81 11.1089 12.2591L12.9325 14.0827C13.3816 14.5318 14.1098 14.5318 14.5589 14.0827L18.3457 10.2959M18.3457 10.2959V13.1709M18.3457 10.2959H15.4707" stroke="black" stroke-width="2.19048" stroke-linecap="round" stroke-linejoin="round"/>
</svg>
