<svg width="24" height="23" viewBox="0 0 24 23" fill="none" xmlns="http://www.w3.org/2000/svg">
<path d="M14.6449 0.0128881C15.8554 0.1356 16.8 1.15722 16.8 2.4V4.8H21.6C22.9255 4.8 24 5.87452 24 7.2V20.4C24 21.7255 22.9255 22.8 21.6 22.8H2.4C1.07452 22.8 0 21.7255 0 20.4V7.2C0 5.87452 1.07452 4.8 2.4 4.8H7.2V2.4C7.2 1.07452 8.27452 0 9.6 0H14.4L14.6449 0.0128881ZM2.4 20.4H21.6V7.2H2.4V20.4ZM17.4 15C18.0628 15 18.6 15.5372 18.6 16.2C18.6 16.8628 18.0628 17.4 17.4 17.4H6.6C5.93726 17.4 5.4 16.8628 5.4 16.2C5.4 15.5372 5.93726 15 6.6 15H17.4ZM17.4 10.2C18.0628 10.2 18.6 10.7372 18.6 11.4C18.6 12.0628 18.0628 12.6 17.4 12.6H6.6C5.93726 12.6 5.4 12.0628 5.4 11.4C5.4 10.7372 5.93726 10.2 6.6 10.2H17.4ZM9.6 4.8H14.4V2.4H9.6V4.8Z" fill="white"/>
</svg>
