<svg width="24" height="24" viewBox="0 0 24 24" fill="none" xmlns="http://www.w3.org/2000/svg">
<path d="M23.9823 1.81772C23.9234 0.849028 23.151 0.0765658 22.1823 0.0176917C20.6727 -0.0723033 16.8146 0.0656977 13.613 3.26614L13.043 3.84334H6.04327C5.532 3.84046 5.04093 4.04277 4.68006 4.40495L0.563998 8.52341C-0.481482 9.56818 -0.00390646 11.3529 1.42363 11.736C1.49888 11.7562 1.57528 11.7717 1.65241 11.7826L6.26888 12.4271L11.5741 17.7323L12.2186 22.3512C12.3196 23.072 12.8211 23.673 13.5122 23.9016C13.7095 23.9675 13.9161 24.0012 14.1242 24.0012C14.633 24.0022 15.1211 23.8 15.4802 23.4396L19.5986 19.3235C19.9608 18.9627 20.1631 18.4716 20.1603 17.9603V10.9606L20.7327 10.3882C23.9343 7.18659 24.0723 3.32854 23.9823 1.81772ZM6.04327 5.76337H11.1229L6.37928 10.5058L1.92002 9.88423L6.04327 5.76337ZM14.9726 4.62935C16.8388 2.75165 19.4236 1.76907 22.0659 1.93292C22.2361 4.5768 21.2551 7.16519 19.3754 9.03222L12.4802 15.9251L8.0785 11.5234L14.9726 4.62935ZM18.2402 17.9603L14.1206 22.0836L13.4978 17.6231L18.2402 12.8807V17.9603ZM9.34091 19.1003C8.80091 20.2836 6.99488 23.0436 1.92002 23.0436C1.38982 23.0436 0.960007 22.6138 0.960007 22.0836C0.960007 17.0087 3.72004 15.2027 4.90326 14.6615C5.57576 14.3548 6.32809 14.8911 6.25744 15.6269C6.22465 15.9683 6.01218 16.2664 5.70007 16.4087C4.92846 16.7603 3.22564 17.8919 2.92563 21.078C6.11168 20.778 7.24569 19.0751 7.59489 18.3035C7.90159 17.631 8.82128 17.5427 9.25033 18.1446C9.44947 18.4239 9.48325 18.7882 9.34091 19.1003Z" fill="black"/>
</svg>
