<svg width="15" height="15" viewBox="0 0 15 15" fill="none" xmlns="http://www.w3.org/2000/svg">
<path fill-rule="evenodd" clip-rule="evenodd" d="M3.91598 1.56539C5.01829 1.44319 6.12634 1.34221 7.24791 1.34221C8.36948 1.34221 9.47753 1.44319 10.5798 1.56539C11.8144 1.70224 12.8112 2.70066 12.9422 3.93283C13.0587 5.02819 13.1536 6.13118 13.1536 7.24791C13.1536 8.36463 13.0587 9.46763 12.9422 10.5629C12.8112 11.7952 11.8144 12.7936 10.5798 12.9305C9.47753 13.0527 8.36948 13.1536 7.24791 13.1536C6.12634 13.1536 5.01829 13.0527 3.91598 12.9305C2.68143 12.7936 1.68463 11.7952 1.55359 10.5629C1.43709 9.46763 1.34221 8.36463 1.34221 7.24791C1.34221 6.13118 1.43709 5.02819 1.55359 3.93283C1.68463 2.70066 2.68143 1.70224 3.91598 1.56539ZM7.24791 0C6.05034 0 4.88303 0.107755 3.7681 0.231351C1.9101 0.437317 0.416918 1.92903 0.218908 3.79089C0.100947 4.90007 0 6.05914 0 7.24791C0 8.43666 0.100947 9.59575 0.218908 10.7049C0.416918 12.5668 1.9101 14.0585 3.7681 14.2644C4.88303 14.388 6.05034 14.4958 7.24791 14.4958C8.44548 14.4958 9.61279 14.388 10.7278 14.2644C12.5857 14.0585 14.0789 12.5668 14.2769 10.7049C14.3949 9.59575 14.4958 8.43666 14.4958 7.24791C14.4958 6.05914 14.3949 4.90007 14.2769 3.79089C14.0789 1.92903 12.5857 0.437317 10.7278 0.231351C9.61279 0.107755 8.44548 0 7.24791 0ZM10.183 5.4499C10.5124 5.15107 10.5372 4.64178 10.2384 4.31236C9.93955 3.98293 9.43024 3.95813 9.10082 4.25696C8.29723 4.98593 7.68549 5.6484 7.16773 6.45653C6.84009 6.96792 6.55894 7.52388 6.28963 8.17134L5.43106 7.28593C5.12143 6.96664 4.61159 6.95879 4.29229 7.26841C3.97299 7.57804 3.96514 8.08787 4.27477 8.40718L6.01621 10.203C6.21073 10.4036 6.49532 10.4891 6.76815 10.4288C7.04097 10.3685 7.26306 10.1711 7.35492 9.90718C7.75493 8.75814 8.10599 7.97774 8.52392 7.32541C8.93866 6.67806 9.44095 6.12303 10.183 5.4499Z" fill="white"/>
</svg>
