<svg width="115" height="32" viewBox="0 0 115 32" fill="none" xmlns="http://www.w3.org/2000/svg">
<path d="M39.9118 15.9106C39.9118 16.9735 40.1697 17.8049 40.6853 18.4047C41.2115 19.0046 41.9429 19.3045 42.8795 19.3045C43.3426 19.3045 43.8319 19.2308 44.3476 19.0835C44.8632 18.9256 45.3473 18.7046 45.7998 18.4205L45.9577 20.9462C45.5157 21.1777 45.0316 21.3566 44.5054 21.4829C43.9898 21.6092 43.4794 21.6723 42.9742 21.6723C41.8061 21.6723 40.8011 21.446 39.9592 20.9935C39.1278 20.5305 38.4912 19.8675 38.0492 19.0046C37.6072 18.1416 37.3862 17.1103 37.3862 15.9106C37.3862 14.7109 37.6072 13.6796 38.0492 12.8166C38.4912 11.9537 39.1278 11.296 39.9592 10.8435C40.8011 10.3804 41.8061 10.1489 42.9742 10.1489C43.4794 10.1489 43.9898 10.212 44.5054 10.3383C45.0316 10.4646 45.5157 10.6382 45.9577 10.8592L45.7998 13.3849C45.3473 13.1113 44.8632 12.9008 44.3476 12.7535C43.8319 12.5956 43.3426 12.5167 42.8795 12.5167C41.9429 12.5167 41.2115 12.8166 40.6853 13.4165C40.1697 14.0058 39.9118 14.8372 39.9118 15.9106ZM49.7257 9.59641V21.4197H47.5V9.59641H49.7257ZM54.1475 21.4197H51.9376V15.5949H51.2114V13.5428H54.1475V21.4197ZM52.8215 12.5009C52.4322 12.5009 52.127 12.3904 51.906 12.1694C51.6955 11.9484 51.5903 11.6433 51.5903 11.2539C51.5903 10.8645 51.6955 10.5593 51.906 10.3383C52.127 10.1173 52.4322 10.0068 52.8215 10.0068C53.1899 10.0068 53.4793 10.1173 53.6897 10.3383C53.9107 10.5593 54.0212 10.8645 54.0212 11.2539C54.0212 11.6433 53.9107 11.9484 53.6897 12.1694C53.4793 12.3904 53.1899 12.5009 52.8215 12.5009ZM59.6845 21.6723C58.99 21.6723 58.3428 21.5355 57.7429 21.2619C57.1431 20.9883 56.6485 20.541 56.2591 19.9201C55.8802 19.2887 55.6908 18.4784 55.6908 17.4892C55.6908 16.1947 56.0276 15.1739 56.7011 14.4268C57.3746 13.6796 58.2901 13.306 59.4477 13.306C60.5843 13.306 61.4736 13.648 62.1155 14.3321C62.7574 15.0161 63.0784 15.979 63.0784 17.2208C63.0784 17.5576 63.0521 17.8312 62.9995 18.0416H57.9481C58.0849 19.1151 58.7111 19.6518 59.8266 19.6518C60.2265 19.6518 60.6106 19.5939 60.9789 19.4781C61.3473 19.3624 61.663 19.2045 61.9261 19.0046L62.0208 21.1356C61.3894 21.4934 60.6106 21.6723 59.6845 21.6723ZM60.9789 16.9682C60.9368 16.4947 60.779 16.1263 60.5054 15.8632C60.2423 15.5896 59.8897 15.4528 59.4477 15.4528C59.0373 15.4528 58.6953 15.6107 58.4217 15.9264C58.1586 16.2316 57.9955 16.6473 57.9323 17.1734L60.9789 16.9682ZM65.6687 13.5428L66.3948 16.6841H66.4738C66.4843 15.7685 66.679 14.9793 67.0578 14.3163C67.4472 13.6428 68.1049 13.306 69.031 13.306C69.7887 13.306 70.4044 13.6164 70.8779 14.2373C71.3515 14.8477 71.5883 15.6843 71.5883 16.7472V21.4197H69.3783V16.9998C69.3783 16.5052 69.2678 16.1263 69.0468 15.8632C68.8363 15.5896 68.5259 15.4528 68.1155 15.4528C67.7787 15.4528 67.484 15.5791 67.2315 15.8317C66.9789 16.0842 66.7895 16.4 66.6632 16.7788C66.5369 17.1577 66.4738 17.5365 66.4738 17.9154V21.4197H64.248V13.5428H65.6687ZM78.399 21.4987C78.0833 21.6144 77.6044 21.6723 76.9625 21.6723C76.0259 21.6618 75.2629 21.404 74.6736 20.8988C74.0948 20.3832 73.8054 19.5255 73.8054 18.3258V15.5949H72.732V13.5428H74.0737L73.8054 11.2223H76.3153L75.4471 13.5428H78.3358V15.5949H76.0154V18.1837C76.0154 18.6994 76.1364 19.0572 76.3784 19.2571C76.6205 19.4466 76.9467 19.5413 77.3571 19.5413C77.757 19.5413 78.0727 19.4992 78.3043 19.415L78.399 21.4987ZM83.698 9.9583C83.5541 9.9583 83.4179 9.98913 83.2895 10.0508C83.161 10.1125 83.0479 10.2127 82.9503 10.3514C82.8578 10.485 82.7833 10.6571 82.7268 10.8678C82.6703 11.0785 82.642 11.3329 82.642 11.6309V13.527H84.33V14.082H82.642V20.1557C82.642 20.8545 82.5495 21.4994 82.3645 22.0903C82.1847 22.6812 81.9098 23.19 81.5398 23.6165C81.1698 24.0481 80.7074 24.3847 80.1524 24.6262C79.5974 24.8677 78.95 24.9884 78.21 24.9884C77.948 24.9884 77.6962 24.9653 77.4547 24.9191C77.2132 24.878 76.9999 24.8189 76.8149 24.7418C76.6299 24.6647 76.4835 24.5722 76.3756 24.4643C76.2625 24.3615 76.206 24.2459 76.206 24.1175C76.206 24.025 76.2189 23.9299 76.2446 23.8323C76.2703 23.7398 76.3088 23.655 76.3602 23.5779C76.4116 23.5008 76.4758 23.4366 76.5529 23.3852C76.6248 23.339 76.7096 23.3158 76.8072 23.3158C76.8637 23.3158 76.9151 23.3441 76.9614 23.4006C77.0025 23.4572 77.0462 23.5265 77.0924 23.6087C77.1387 23.691 77.1926 23.7809 77.2543 23.8785C77.3108 23.9813 77.3853 24.0738 77.4778 24.156C77.5703 24.2382 77.6859 24.3076 77.8246 24.3641C77.9583 24.4206 78.1227 24.4489 78.3179 24.4489C78.58 24.4489 78.8112 24.3949 79.0116 24.287C79.212 24.1843 79.3842 24.0404 79.5281 23.8554C79.6719 23.6704 79.7927 23.452 79.8903 23.2002C79.988 22.9484 80.065 22.6787 80.1216 22.3909C80.1781 22.1032 80.2166 21.8026 80.2372 21.4891C80.2629 21.1757 80.2757 20.8622 80.2757 20.5488V14.082H78.8575V13.527H80.2757V12.6252C80.2757 12.173 80.3297 11.7799 80.4376 11.4459C80.5506 11.1068 80.6971 10.819 80.8769 10.5826C81.0619 10.3463 81.27 10.1536 81.5013 10.0045C81.7325 9.85553 81.9663 9.73734 82.2027 9.64999C82.4442 9.56264 82.678 9.50354 82.9041 9.47271C83.1302 9.44188 83.328 9.42647 83.4976 9.42647C83.8624 9.42647 84.1861 9.45473 84.4687 9.51125C84.7514 9.56264 84.9877 9.63457 85.1779 9.72707C85.368 9.81442 85.5119 9.91719 85.6095 10.0354C85.7071 10.1536 85.7559 10.2743 85.7559 10.3976C85.7559 10.4901 85.7405 10.5852 85.7097 10.6828C85.684 10.7753 85.6455 10.8627 85.5941 10.9449C85.5427 11.022 85.4785 11.0862 85.4014 11.1376C85.3294 11.1838 85.2472 11.207 85.1547 11.207C85.0982 11.207 85.0468 11.1761 85.0006 11.1145C84.9543 11.0528 84.9055 10.9757 84.8541 10.8832C84.8027 10.7907 84.7462 10.6905 84.6846 10.5826C84.6229 10.4747 84.5458 10.3745 84.4533 10.282C84.366 10.1895 84.2606 10.1125 84.1373 10.0508C84.014 9.98913 83.8675 9.9583 83.698 9.9583ZM88.6615 21.6723C87.4408 21.6723 86.4884 21.304 85.8043 20.5673C85.1308 19.8307 84.7941 18.8046 84.7941 17.4892C84.7941 16.1632 85.1308 15.1371 85.8043 14.411C86.4884 13.6743 87.4408 13.306 88.6615 13.306C89.8717 13.306 90.8136 13.6743 91.4871 14.411C92.1606 15.1476 92.4974 16.179 92.4974 17.5049C92.4974 18.8204 92.1606 19.8465 91.4871 20.5831C90.8136 21.3092 89.8717 21.6723 88.6615 21.6723ZM87.0356 17.4892C87.0356 18.1942 87.1777 18.7309 87.4618 19.0993C87.746 19.4676 88.1459 19.6518 88.6615 19.6518C89.1666 19.6518 89.556 19.4676 89.8296 19.0993C90.1138 18.7309 90.2558 18.1942 90.2558 17.4892C90.2558 16.7841 90.1138 16.2474 89.8296 15.879C89.556 15.5107 89.1666 15.3265 88.6615 15.3265C88.1459 15.3265 87.746 15.5107 87.4618 15.879C87.1777 16.2474 87.0356 16.7841 87.0356 17.4892ZM95.157 13.5428L95.9305 16.8419H95.9778C95.9884 15.8843 96.1357 15.0582 96.4198 14.3636C96.704 13.6585 97.1775 13.306 97.8405 13.306C98.1352 13.306 98.4404 13.3744 98.7561 13.5112L98.6614 16.1158C98.2194 15.9264 97.8353 15.8317 97.509 15.8317C96.9934 15.8317 96.6093 16.0579 96.3567 16.5105C96.1041 16.9524 95.9778 17.5891 95.9778 18.4205V21.4197H93.7521V13.5428H95.157ZM105.641 15.958C105.357 15.8106 105.03 15.6896 104.662 15.5949C104.304 15.4897 103.952 15.437 103.604 15.437C103.026 15.437 102.563 15.6002 102.215 15.9264C101.879 16.2526 101.71 16.7735 101.71 17.4892C101.71 18.2048 101.879 18.7257 102.215 19.0519C102.563 19.3676 103.026 19.5255 103.604 19.5255C103.952 19.5255 104.304 19.4781 104.662 19.3834C105.03 19.2887 105.357 19.1624 105.641 19.0046L105.751 21.1672C105.162 21.5039 104.404 21.6723 103.478 21.6723C102.763 21.6723 102.105 21.5355 101.505 21.2619C100.905 20.9883 100.416 20.541 100.037 19.9201C99.6686 19.2887 99.4844 18.4784 99.4844 17.4892C99.4844 16.4999 99.6686 15.6949 100.037 15.074C100.416 14.4426 100.905 13.99 101.505 13.7164C102.105 13.4428 102.763 13.306 103.478 13.306C103.91 13.306 104.32 13.3481 104.709 13.4323C105.109 13.5165 105.457 13.6375 105.751 13.7953L105.641 15.958ZM110.762 21.6723C110.067 21.6723 109.42 21.5355 108.82 21.2619C108.22 20.9883 107.726 20.541 107.336 19.9201C106.957 19.2887 106.768 18.4784 106.768 17.4892C106.768 16.1947 107.105 15.1739 107.778 14.4268C108.452 13.6796 109.367 13.306 110.525 13.306C111.661 13.306 112.551 13.648 113.193 14.3321C113.835 15.0161 114.156 15.979 114.156 17.2208C114.156 17.5576 114.129 17.8312 114.077 18.0416H109.025C109.162 19.1151 109.788 19.6518 110.904 19.6518C111.304 19.6518 111.688 19.5939 112.056 19.4781C112.424 19.3624 112.74 19.2045 113.003 19.0046L113.098 21.1356C112.467 21.4934 111.688 21.6723 110.762 21.6723ZM112.056 16.9682C112.014 16.4947 111.856 16.1263 111.583 15.8632C111.319 15.5896 110.967 15.4528 110.525 15.4528C110.114 15.4528 109.772 15.6107 109.499 15.9264C109.236 16.2316 109.073 16.6473 109.01 17.1734L112.056 16.9682Z" fill="#0F0F0F"/>
<mask id="mask0_4857_2282" style="mask-type:alpha" maskUnits="userSpaceOnUse" x="0" y="0" width="32" height="32">
<rect width="31.8268" height="31.8268" rx="5.68336" fill="url(#paint0_linear_4857_2282)"/>
</mask>
<g mask="url(#mask0_4857_2282)">
<g filter="url(#filter0_f_4857_2282)">
<rect width="31.8268" height="31.8268" rx="5.68336" fill="url(#paint1_radial_4857_2282)"/>
</g>
</g>
<path fill-rule="evenodd" clip-rule="evenodd" d="M13.4981 28.0453C17.3591 23.963 16.6954 26.1184 21.7166 23.7253C24.1065 22.5863 26.7639 19.5421 26.3907 15.9462L16.4965 15.9501C15.8699 17.7794 13.4801 26.5053 13.4981 28.0453Z" fill="black"/>
<path fill-rule="evenodd" clip-rule="evenodd" d="M11.6087 22.0178C12.2891 20.2297 13.0791 17.847 13.3603 15.945H11.2449C11.537 12.5775 11.6989 14.0513 13.939 13.7223C15.105 13.1986 14.26 8.63787 22.0254 6.84808C13.6114 2.5971 3.99874 14.4606 11.6087 22.0178Z" fill="black"/>
<path fill-rule="evenodd" clip-rule="evenodd" d="M11.9264 25.3376C10.7782 23.2602 5.19774 18.7815 8.25016 11.728C10.8398 5.7441 14.6548 5.56755 20.1149 5.43983C16.1956 4.05985 10.6822 3.86961 6.96664 9.34818C3.34639 14.481 5.1328 23.863 11.9265 25.3376H11.9264Z" fill="black"/>
<path fill-rule="evenodd" clip-rule="evenodd" d="M17.4117 13.8982H26.4369C26.2397 11.3562 24.6038 8.71846 22.1569 8.6716C19.6704 8.62398 17.6082 11.4986 17.4116 13.8982H17.4117Z" fill="black"/>
<defs>
<filter id="filter0_f_4857_2282" x="-2.85854" y="-2.85854" width="37.5437" height="37.5439" filterUnits="userSpaceOnUse" color-interpolation-filters="sRGB">
<feFlood flood-opacity="0" result="BackgroundImageFix"/>
<feBlend mode="normal" in="SourceGraphic" in2="BackgroundImageFix" result="shape"/>
<feGaussianBlur stdDeviation="1.42927" result="effect1_foregroundBlur_4857_2282"/>
</filter>
<linearGradient id="paint0_linear_4857_2282" x1="15.9134" y1="-4.3315e-08" x2="14.4829" y2="34.0768" gradientUnits="userSpaceOnUse">
<stop stop-color="#35E834"/>
<stop offset="1" stop-color="#D0F56B"/>
</linearGradient>
<radialGradient id="paint1_radial_4857_2282" cx="0" cy="0" r="1" gradientTransform="matrix(0 17.0684 -17.3111 -0.726705 15.9134 17.0684)" gradientUnits="userSpaceOnUse">
<stop stop-color="#35E834"/>
<stop offset="1" stop-color="#D0F56B"/>
</radialGradient>
</defs>
</svg>
