<svg width="25" height="25" viewBox="0 0 25 25" fill="none" xmlns="http://www.w3.org/2000/svg">
<path d="M14.8715 14.1367C14.1867 14.9156 13.3532 15.5562 12.4154 16.0182V18.6788C12.4154 18.914 12.322 19.1396 12.1557 19.3058C11.9894 19.4721 11.7638 19.5656 11.5286 19.5656H6.20755C5.97236 19.5656 5.74679 19.4721 5.58047 19.3058C5.41415 19.1396 5.32071 18.914 5.32071 18.6788V16.0182C4.04446 15.385 2.96098 14.4217 2.18272 13.2283C1.40448 12.0349 0.959849 10.655 0.894994 9.23173C0.83014 7.80847 1.14742 6.39382 1.81391 5.1346C2.4804 3.8754 3.47178 2.81752 4.68515 2.07084C5.89852 1.32415 7.28966 0.915847 8.71411 0.88833C9.90249 0.865372 11.0779 1.10814 12.1557 1.59528" stroke="white" stroke-width="1.77368" stroke-linecap="round" stroke-linejoin="round"/>
<path d="M5.32422 23.9415H12.4189" stroke="white" stroke-width="1.77368" stroke-linecap="round" stroke-linejoin="round"/>
<path d="M13.0801 6.97756C12.4577 6.86928 12.4577 5.97573 13.0801 5.86745C15.3351 5.47515 17.1286 3.75759 17.618 1.52168L17.6556 1.35029C17.7902 0.735119 18.6662 0.73129 18.8061 1.34526L18.8517 1.54499C19.3593 3.77034 21.1532 5.47341 23.4021 5.86461C24.0277 5.97346 24.0277 6.87155 23.4021 6.98038C21.1532 7.3716 19.3593 9.07467 18.8517 11.3L18.8061 11.4997C18.6662 12.1137 17.7902 12.1099 17.6556 11.4947L17.618 11.3233C17.1286 9.08744 15.3351 7.36986 13.0801 6.97756Z" stroke="white" stroke-width="1.77368" stroke-linecap="round" stroke-linejoin="round"/>
</svg>
