<svg width="27" height="27" viewBox="0 0 27 27" fill="none" xmlns="http://www.w3.org/2000/svg">
<path d="M5.76465 25.941H13.4509" stroke="#D0F56B" stroke-width="1.92155" stroke-linecap="round" stroke-linejoin="round"/>
<path d="M14.4291 7.56777C13.7652 7.4503 13.7652 6.48103 14.4291 6.36357C16.8347 5.93802 18.748 4.07486 19.2702 1.64946L19.3102 1.46354C19.4539 0.796235 20.3882 0.79208 20.5376 1.45809L20.5863 1.67475C21.1276 4.08872 23.0414 5.93612 25.4403 6.36049C26.1077 6.47855 26.1077 7.45278 25.4403 7.57084C23.0414 7.99522 21.1276 9.84262 20.5863 12.2566L20.5376 12.4732C20.3882 13.1393 19.4539 13.1351 19.3102 12.4678L19.2702 12.2819C18.748 9.85647 16.8347 7.99331 14.4291 7.56777Z" stroke="#D0F56B" stroke-width="1.92155" stroke-linecap="round" stroke-linejoin="round"/>
<path d="M13.8517 2.07411C12.5069 1.31654 10.9839 0.932738 9.44066 0.962551C7.89746 0.992362 6.39035 1.4347 5.07582 2.24365C3.76128 3.05259 2.68723 4.19866 1.96519 5.56284C1.24313 6.92705 0.899396 8.45964 0.969659 10.0016C1.03992 11.5434 1.52162 13.0384 2.36476 14.3313C3.20788 15.6242 4.38171 16.6678 5.76437 17.3539V20.2362C5.76437 20.491 5.86559 20.7354 6.04578 20.9155C6.22596 21.0957 6.47033 21.197 6.72514 21.197H12.4898C12.7446 21.197 12.989 21.0957 13.1692 20.9155C13.3494 20.7354 13.4506 20.491 13.4506 20.2362V17.3539C14.5702 16.8022 15.5526 16.0157 16.3333 15.0526" stroke="#35E834" stroke-width="1.92155" stroke-linecap="round" stroke-linejoin="round"/>
</svg>
