<svg width="52" height="52" viewBox="0 0 52 52" fill="none" xmlns="http://www.w3.org/2000/svg">
<path d="M15.953 -0.000626003L19.5249 0.680253L10.7708 46.6052L7.19882 45.9243L15.953 -0.000626003Z" fill="#3DD8E7"/>
<path d="M4.73853 10.6636L5.41941 7.09168L51.3444 15.8458L50.6635 19.4178L4.73853 10.6636Z" fill="#3DD8E7"/>
<path d="M2.37574 23.059L3.05662 19.4871L48.9816 28.2412L48.3007 31.8131L2.37574 23.059Z" fill="#3DD8E7"/>
<path d="M4.2662e-05 35.5221L0.680922 31.9502L46.6059 40.7043L45.925 44.2763L4.2662e-05 35.5221Z" fill="#3DD8E7"/>
<path d="M28.2698 2.34719L31.8417 3.02807L23.0876 48.953L19.5156 48.2721L28.2698 2.34719Z" fill="#3DD8E7"/>
<path d="M40.5188 4.68208L44.0907 5.36296L35.3366 51.2879L31.7646 50.607L40.5188 4.68208Z" fill="#3DD8E7"/>
</svg>
