<svg width="22" height="24" viewBox="0 0 22 24" fill="none" xmlns="http://www.w3.org/2000/svg">
<path fill-rule="evenodd" clip-rule="evenodd" d="M8.36485 23.4252C12.2258 19.3429 11.5621 21.4983 16.5833 19.1052C18.9732 17.9662 21.6306 14.9219 21.2574 11.3261L11.3632 11.3299C10.7366 13.1592 8.34682 21.8852 8.36485 23.4252Z" fill="black"/>
<path fill-rule="evenodd" clip-rule="evenodd" d="M6.47541 17.3977C7.15581 15.6096 7.94578 13.2269 8.22698 11.3249H6.11156C6.40369 7.95743 6.56561 9.43118 8.80574 9.10217C9.97171 8.57851 9.1267 4.01776 16.8921 2.22796C8.47814 -2.02302 -1.13456 9.84049 6.47541 17.3977Z" fill="black"/>
<path fill-rule="evenodd" clip-rule="evenodd" d="M6.7931 20.7175C5.6449 18.6401 0.0644438 14.1614 3.11686 7.10787C5.70646 1.12399 9.52148 0.947429 14.9816 0.81971C11.0623 -0.560271 5.54889 -0.750507 1.83334 4.72806C-1.78691 9.86086 -0.000503304 19.2429 6.79316 20.7175H6.7931Z" fill="black"/>
<path fill-rule="evenodd" clip-rule="evenodd" d="M12.2784 9.27807H21.3036C21.1064 6.73608 19.4705 4.09834 17.0236 4.05149C14.5371 4.00386 12.4749 6.87844 12.2783 9.27807H12.2784Z" fill="black"/>
</svg>
