<svg width="26" height="28" viewBox="0 0 26 28" fill="none" xmlns="http://www.w3.org/2000/svg">
<path fill-rule="evenodd" clip-rule="evenodd" d="M9.92297 27.8072C14.5036 22.9641 13.7161 25.5212 19.6732 22.682C22.5085 21.3308 25.6612 17.7191 25.2184 13.4531L13.4802 13.4577C12.7368 15.6279 9.90159 25.9802 9.92297 27.8072Z" fill="url(#paint0_linear_4857_2010)"/>
<path fill-rule="evenodd" clip-rule="evenodd" d="M7.68163 20.6604C8.48884 18.5391 9.42604 15.7123 9.75965 13.4558H7.24996C7.59654 9.46071 7.78863 11.2091 10.4463 10.8188C11.8296 10.1975 10.8271 4.78676 20.0398 2.66339C10.0576 -2.37989 -1.34668 11.6947 7.68163 20.6604Z" fill="url(#paint1_linear_4857_2010)"/>
<path fill-rule="evenodd" clip-rule="evenodd" d="M8.05919 24.5788C6.697 22.1143 0.0764548 16.8008 3.69777 8.43263C6.77003 1.33348 11.2961 1.12401 17.7738 0.972487C13.1241 -0.664694 6.58309 -0.890387 2.17503 5.60927C-2.11995 11.6987 -0.00059711 22.8294 8.05927 24.5788H8.05919Z" fill="#35E834"/>
<path fill-rule="evenodd" clip-rule="evenodd" d="M14.5675 11.0139H25.2748C25.0409 7.99814 23.1 4.86878 20.1971 4.81319C17.2471 4.75669 14.8007 8.16703 14.5674 11.0139H14.5675Z" fill="#35E834"/>
<defs>
<linearGradient id="paint0_linear_4857_2010" x1="17.5916" y1="13.4531" x2="12.4839" y2="27.7666" gradientUnits="userSpaceOnUse">
<stop stop-color="#35E834"/>
<stop offset="1" stop-color="#D0F56B"/>
</linearGradient>
<linearGradient id="paint1_linear_4857_2010" x1="12.2191" y1="1.60156" x2="12.2191" y2="20.6604" gradientUnits="userSpaceOnUse">
<stop stop-color="#36D7ED"/>
<stop offset="1" stop-color="#EEFC53"/>
</linearGradient>
</defs>
</svg>
