<svg width="161" height="45" viewBox="0 0 161 45" fill="none" xmlns="http://www.w3.org/2000/svg">
<path d="M55.8963 20.8749C55.8963 22.3634 56.2574 23.5277 56.9795 24.3678C57.7165 25.2079 58.7408 25.6279 60.0525 25.6279C60.7009 25.6279 61.3863 25.5248 62.1084 25.3184C62.8306 25.0974 63.5086 24.7879 64.1423 24.3899L64.3634 27.9271C63.7444 28.2514 63.0664 28.5019 62.3295 28.6788C61.6073 28.8556 60.8925 28.944 60.1851 28.944C58.5492 28.944 57.1417 28.6272 55.9626 27.9934C54.7983 27.345 53.9066 26.4164 53.2876 25.2079C52.6686 23.9994 52.3591 22.555 52.3591 20.8749C52.3591 19.1947 52.6686 17.7504 53.2876 16.5418C53.9066 15.3333 54.7983 14.4121 55.9626 13.7784C57.1417 13.1299 58.5492 12.8057 60.1851 12.8057C60.8925 12.8057 61.6073 12.8941 62.3295 13.071C63.0664 13.2478 63.7444 13.491 64.3634 13.8005L64.1423 17.3377C63.5086 16.9545 62.8306 16.6597 62.1084 16.4534C61.3863 16.2323 60.7009 16.1218 60.0525 16.1218C58.7408 16.1218 57.7165 16.5418 56.9795 17.3819C56.2574 18.2072 55.8963 19.3716 55.8963 20.8749ZM69.6405 12.0319V28.5903H66.5234V12.0319H69.6405ZM75.8331 28.5903H72.7381V20.4327H71.7212V17.5588H75.8331V28.5903ZM73.9761 16.0997C73.4308 16.0997 73.0034 15.9449 72.6939 15.6354C72.3991 15.3259 72.2518 14.8985 72.2518 14.3532C72.2518 13.8079 72.3991 13.3805 72.6939 13.071C73.0034 12.7615 73.4308 12.6067 73.9761 12.6067C74.492 12.6067 74.8973 12.7615 75.192 13.071C75.5015 13.3805 75.6563 13.8079 75.6563 14.3532C75.6563 14.8985 75.5015 15.3259 75.192 15.6354C74.8973 15.9449 74.492 16.0997 73.9761 16.0997ZM83.5876 28.944C82.6149 28.944 81.7085 28.7525 80.8684 28.3693C80.0284 27.9861 79.3357 27.3597 78.7903 26.4901C78.2598 25.6058 77.9945 24.471 77.9945 23.0856C77.9945 21.2728 78.4661 19.8432 79.4094 18.7968C80.3526 17.7504 81.6348 17.2272 83.256 17.2272C84.8478 17.2272 86.0931 17.7061 86.9922 18.6641C87.8912 19.6221 88.3407 20.9707 88.3407 22.7098C88.3407 23.1814 88.3039 23.5646 88.2302 23.8594H81.1558C81.3474 25.3627 82.2244 26.1143 83.7866 26.1143C84.3467 26.1143 84.8846 26.0332 85.4004 25.8711C85.9163 25.709 86.3584 25.4879 86.7269 25.2079L86.8595 28.1924C85.9752 28.6935 84.8846 28.944 83.5876 28.944ZM85.4004 22.3561C85.3415 21.6928 85.1204 21.177 84.7372 20.8085C84.3688 20.4253 83.875 20.2338 83.256 20.2338C82.6812 20.2338 82.2022 20.4548 81.8191 20.897C81.4506 21.3244 81.2222 21.9065 81.1337 22.6435L85.4004 22.3561ZM91.9684 17.5588L92.9853 21.9581H93.0959C93.1106 20.6759 93.3833 19.5705 93.9139 18.642C94.4592 17.6988 95.3803 17.2272 96.6773 17.2272C97.7384 17.2272 98.6006 17.6619 99.2638 18.5315C99.9271 19.3863 100.259 20.558 100.259 22.0466V28.5903H97.1636V22.4003C97.1636 21.7076 97.0089 21.177 96.6994 20.8085C96.4046 20.4253 95.9698 20.2338 95.395 20.2338C94.9234 20.2338 94.5107 20.4106 94.157 20.7643C93.8033 21.118 93.538 21.5602 93.3612 22.0908C93.1843 22.6213 93.0959 23.1519 93.0959 23.6825V28.5903H89.9787V17.5588H91.9684ZM109.797 28.7009C109.355 28.863 108.684 28.944 107.785 28.944C106.473 28.9293 105.405 28.5682 104.58 27.8608C103.769 27.1386 103.364 25.9374 103.364 24.2573V20.4327H101.86V17.5588H103.74L103.364 14.309H106.879L105.663 17.5588H109.709V20.4327H106.459V24.0583C106.459 24.7805 106.628 25.2816 106.967 25.5616C107.306 25.8269 107.763 25.9596 108.338 25.9596C108.898 25.9596 109.34 25.9006 109.664 25.7827L109.797 28.7009ZM117.218 12.5388C117.017 12.5388 116.826 12.5819 116.646 12.6683C116.466 12.7546 116.308 12.895 116.171 13.0893C116.041 13.2764 115.937 13.5175 115.858 13.8125C115.779 14.1076 115.739 14.4638 115.739 14.8812V17.5367H118.103V18.3139H115.739V26.82C115.739 27.7987 115.61 28.7019 115.351 29.5295C115.099 30.357 114.714 31.0695 114.196 31.6668C113.677 32.2713 113.03 32.7427 112.253 33.0809C111.475 33.4191 110.569 33.5882 109.532 33.5882C109.165 33.5882 108.813 33.5559 108.474 33.4911C108.136 33.4335 107.838 33.3508 107.579 33.2428C107.319 33.1349 107.114 33.0053 106.963 32.8542C106.805 32.7103 106.726 32.5484 106.726 32.3684C106.726 32.2389 106.744 32.1058 106.78 31.969C106.816 31.8395 106.87 31.7208 106.942 31.6128C107.014 31.5049 107.104 31.4149 107.212 31.343C107.312 31.2782 107.431 31.2458 107.568 31.2458C107.647 31.2458 107.719 31.2854 107.784 31.3645C107.841 31.4437 107.902 31.5409 107.967 31.656C108.032 31.7711 108.107 31.8971 108.194 32.0338C108.273 32.1777 108.377 32.3073 108.507 32.4224C108.636 32.5376 108.798 32.6347 108.993 32.7139C109.18 32.793 109.41 32.8326 109.683 32.8326C110.05 32.8326 110.374 32.757 110.655 32.6059C110.936 32.462 111.177 32.2605 111.378 32.0014C111.58 31.7424 111.749 31.4365 111.886 31.0839C112.022 30.7313 112.13 30.3535 112.209 29.9505C112.289 29.5475 112.343 29.1265 112.371 28.6875C112.407 28.2485 112.425 27.8095 112.425 27.3705V18.3139H110.439V17.5367H112.425V16.2737C112.425 15.6404 112.501 15.0899 112.652 14.6221C112.81 14.1471 113.015 13.7442 113.267 13.4131C113.526 13.0821 113.818 12.8122 114.142 12.6035C114.465 12.3948 114.793 12.2293 115.124 12.107C115.462 11.9846 115.79 11.9019 116.106 11.8587C116.423 11.8155 116.7 11.7939 116.937 11.7939C117.448 11.7939 117.902 11.8335 118.298 11.9127C118.693 11.9846 119.024 12.0854 119.291 12.2149C119.557 12.3373 119.758 12.4812 119.895 12.6467C120.032 12.8122 120.1 12.9813 120.1 13.154C120.1 13.2836 120.079 13.4167 120.035 13.5534C120 13.683 119.946 13.8053 119.874 13.9205C119.802 14.0284 119.712 14.1184 119.604 14.1903C119.503 14.2551 119.388 14.2875 119.258 14.2875C119.179 14.2875 119.107 14.2443 119.042 14.1579C118.978 14.0716 118.909 13.9636 118.837 13.8341C118.765 13.7046 118.686 13.5642 118.6 13.4131C118.513 13.262 118.406 13.1217 118.276 12.9921C118.154 12.8626 118.006 12.7546 117.833 12.6683C117.661 12.5819 117.456 12.5388 117.218 12.5388ZM124.169 28.944C122.46 28.944 121.126 28.4282 120.168 27.3965C119.225 26.3649 118.753 24.9279 118.753 23.0856C118.753 21.2286 119.225 19.7916 120.168 18.7747C121.126 17.743 122.46 17.2272 124.169 17.2272C125.864 17.2272 127.183 17.743 128.127 18.7747C129.07 19.8063 129.542 21.2507 129.542 23.1077C129.542 24.95 129.07 26.387 128.127 27.4186C127.183 28.4356 125.864 28.944 124.169 28.944ZM121.892 23.0856C121.892 24.0731 122.091 24.8247 122.489 25.3406C122.887 25.8564 123.447 26.1143 124.169 26.1143C124.877 26.1143 125.422 25.8564 125.805 25.3406C126.203 24.8247 126.402 24.0731 126.402 23.0856C126.402 22.0981 126.203 21.3465 125.805 20.8307C125.422 20.3148 124.877 20.0569 124.169 20.0569C123.447 20.0569 122.887 20.3148 122.489 20.8307C122.091 21.3465 121.892 22.0981 121.892 23.0856ZM133.266 17.5588L134.35 22.1792H134.416C134.431 20.838 134.637 19.6811 135.035 18.7083C135.433 17.7209 136.096 17.2272 137.025 17.2272C137.437 17.2272 137.865 17.323 138.307 17.5145L138.174 21.1623C137.555 20.897 137.017 20.7643 136.56 20.7643C135.838 20.7643 135.3 21.0812 134.946 21.7149C134.593 22.334 134.416 23.2256 134.416 24.3899V28.5903H131.299V17.5588H133.266ZM147.949 20.9412C147.551 20.7349 147.094 20.5654 146.578 20.4327C146.077 20.2853 145.583 20.2116 145.097 20.2116C144.286 20.2116 143.638 20.4401 143.151 20.897C142.68 21.3539 142.444 22.0834 142.444 23.0856C142.444 24.0878 142.68 24.8173 143.151 25.2742C143.638 25.7164 144.286 25.9374 145.097 25.9374C145.583 25.9374 146.077 25.8711 146.578 25.7385C147.094 25.6058 147.551 25.429 147.949 25.2079L148.103 28.2366C147.278 28.7082 146.217 28.944 144.92 28.944C143.918 28.944 142.997 28.7525 142.157 28.3693C141.317 27.9861 140.631 27.3597 140.101 26.4901C139.585 25.6058 139.327 24.471 139.327 23.0856C139.327 21.7002 139.585 20.5727 140.101 19.7032C140.631 18.8189 141.317 18.1851 142.157 17.8019C142.997 17.4187 143.918 17.2272 144.92 17.2272C145.524 17.2272 146.099 17.2861 146.644 17.404C147.204 17.5219 147.691 17.6914 148.103 17.9125L147.949 20.9412ZM155.12 28.944C154.148 28.944 153.241 28.7525 152.401 28.3693C151.561 27.9861 150.868 27.3597 150.323 26.4901C149.793 25.6058 149.527 24.471 149.527 23.0856C149.527 21.2728 149.999 19.8432 150.942 18.7968C151.885 17.7504 153.168 17.2272 154.789 17.2272C156.381 17.2272 157.626 17.7061 158.525 18.6641C159.424 19.6221 159.874 20.9707 159.874 22.7098C159.874 23.1814 159.837 23.5646 159.763 23.8594H152.689C152.88 25.3627 153.757 26.1143 155.319 26.1143C155.879 26.1143 156.417 26.0332 156.933 25.8711C157.449 25.709 157.891 25.4879 158.26 25.2079L158.392 28.1924C157.508 28.6935 156.417 28.944 155.12 28.944ZM156.933 22.3561C156.874 21.6928 156.653 21.177 156.27 20.8085C155.902 20.4253 155.408 20.2338 154.789 20.2338C154.214 20.2338 153.735 20.4548 153.352 20.897C152.983 21.3244 152.755 21.9065 152.667 22.6435L156.933 22.3561Z" fill="white"/>
<mask id="mask0_4912_1355" style="mask-type:alpha" maskUnits="userSpaceOnUse" x="0" y="0" width="45" height="45">
<rect width="44.573" height="44.573" rx="7.95946" fill="url(#paint0_linear_4912_1355)"/>
</mask>
<g mask="url(#mask0_4912_1355)">
<g filter="url(#filter0_f_4912_1355)">
<rect width="44.573" height="44.573" rx="7.95946" fill="url(#paint1_radial_4912_1355)"/>
</g>
</g>
<path fill-rule="evenodd" clip-rule="evenodd" d="M18.9038 39.2766C24.3111 33.5594 23.3816 36.578 30.4137 33.2265C33.7607 31.6314 37.4823 27.3679 36.9597 22.332L23.103 22.3374C22.2254 24.8993 18.8786 37.1199 18.9038 39.2766Z" fill="black"/>
<path fill-rule="evenodd" clip-rule="evenodd" d="M16.2577 30.8353C17.2106 28.3311 18.3169 24.9942 18.7107 22.3304H15.7481C16.1572 17.6144 16.384 19.6784 19.5213 19.2176C21.1542 18.4842 19.9708 12.0969 30.8461 9.59037C19.0625 3.63693 5.60001 20.2516 16.2577 30.8353Z" fill="black"/>
<path fill-rule="evenodd" clip-rule="evenodd" d="M16.7027 35.4848C15.0947 32.5754 7.27934 26.303 11.5542 16.4247C15.1809 8.04434 20.5238 7.79708 28.1706 7.61821C22.6817 5.68556 14.9602 5.41914 9.75665 13.0918C4.68655 20.2802 7.18838 33.4196 16.7028 35.4848H16.7027Z" fill="black"/>
<path fill-rule="evenodd" clip-rule="evenodd" d="M24.3844 19.4641H37.0241C36.7479 15.9041 34.4568 12.21 31.03 12.1444C27.5476 12.0777 24.6597 16.1035 24.3843 19.4641H24.3844Z" fill="black"/>
<defs>
<filter id="filter0_f_4912_1355" x="-4.00335" y="-4.00335" width="52.5797" height="52.5795" filterUnits="userSpaceOnUse" color-interpolation-filters="sRGB">
<feFlood flood-opacity="0" result="BackgroundImageFix"/>
<feBlend mode="normal" in="SourceGraphic" in2="BackgroundImageFix" result="shape"/>
<feGaussianBlur stdDeviation="2.00167" result="effect1_foregroundBlur_4912_1355"/>
</filter>
<linearGradient id="paint0_linear_4912_1355" x1="22.2865" y1="-6.06621e-08" x2="20.2831" y2="47.724" gradientUnits="userSpaceOnUse">
<stop stop-color="#35E834"/>
<stop offset="1" stop-color="#D0F56B"/>
</linearGradient>
<radialGradient id="paint1_radial_4912_1355" cx="0" cy="0" r="1" gradientTransform="matrix(0 23.9041 -24.2439 -1.01774 22.2865 23.9041)" gradientUnits="userSpaceOnUse">
<stop stop-color="#35E834"/>
<stop offset="1" stop-color="#D0F56B"/>
</radialGradient>
</defs>
</svg>
