<svg width="25" height="25" viewBox="0 0 25 25" fill="none" xmlns="http://www.w3.org/2000/svg">
<path d="M0.799805 12.0082C0.799805 6.72461 0.799805 4.08281 2.44122 2.4414C4.08262 0.799988 6.72443 0.799988 12.0081 0.799988C17.2916 0.799988 19.9335 0.799988 21.5749 2.4414C23.2163 4.08281 23.2163 6.72461 23.2163 12.0082C23.2163 17.2918 23.2163 19.9337 21.5749 21.575C19.9335 23.2165 17.2916 23.2165 12.0081 23.2165C6.72443 23.2165 4.08262 23.2165 2.44122 21.575C0.799805 19.9337 0.799805 17.2918 0.799805 12.0082Z" stroke="black" stroke-width="1.6"/>
<path d="M6.40381 14.2499L8.97374 11.68C9.41145 11.2423 10.1211 11.2423 10.5588 11.68L12.3362 13.4574C12.7739 13.8951 13.4836 13.8951 13.9213 13.4574L17.6121 9.76663M17.6121 9.76663V12.5687M17.6121 9.76663H14.81" stroke="black" stroke-width="1.6" stroke-linecap="round" stroke-linejoin="round"/>
</svg>
