<svg width="23" height="23" viewBox="0 0 23 23" fill="none" xmlns="http://www.w3.org/2000/svg">
<path d="M11.0894 0.799013C9.22801 0.799593 7.40163 1.30505 5.80479 2.26153C4.20796 3.21803 2.90046 4.58973 2.02157 6.23055C1.14267 7.87137 0.725286 9.71987 0.813876 11.5791C0.902464 13.4384 1.49371 15.2388 2.52463 16.7886L0.799011 21.3798L6.57745 20.3349C7.96889 21.0148 9.49583 21.372 11.0445 21.3797C12.5932 21.3873 14.1236 21.0454 15.5217 20.3792C16.9197 19.7131 18.1496 18.7399 19.1191 17.5323C20.0887 16.3249 20.7735 14.914 21.1218 13.4051C21.4704 11.8961 21.4739 10.3279 21.1319 8.81748C20.7899 7.30701 20.1116 5.8932 19.1472 4.68144C18.1828 3.46966 16.9573 2.49121 15.5622 1.81898C14.167 1.14675 12.6381 0.798099 11.0894 0.799013Z" stroke="black" stroke-width="1.59801" stroke-linecap="round" stroke-linejoin="round"/>
<path d="M5.8186 12.6872C6.6176 15.5636 9.81359 17.3214 12.69 16.5224C14.4478 15.8832 15.886 14.445 16.3654 12.6872" stroke="black" stroke-width="1.59801" stroke-linecap="round" stroke-linejoin="round"/>
<path d="M7.49697 8.69225C7.27634 8.69225 7.09747 8.51338 7.09747 8.29275C7.09747 8.07211 7.27634 7.89325 7.49697 7.89325" stroke="black" stroke-width="1.59801" stroke-linecap="round" stroke-linejoin="round"/>
<path d="M7.49707 8.69225C7.71771 8.69225 7.89657 8.51338 7.89657 8.29275C7.89657 8.07211 7.71771 7.89325 7.49707 7.89325" stroke="black" stroke-width="1.59801" stroke-linecap="round" stroke-linejoin="round"/>
<path d="M14.688 8.69225C14.4673 8.69225 14.2885 8.51338 14.2885 8.29275C14.2885 8.07211 14.4673 7.89325 14.688 7.89325" stroke="black" stroke-width="1.59801" stroke-linecap="round" stroke-linejoin="round"/>
<path d="M14.6881 8.69225C14.9087 8.69225 15.0876 8.51338 15.0876 8.29275C15.0876 8.07211 14.9087 7.89325 14.6881 7.89325" stroke="black" stroke-width="1.59801" stroke-linecap="round" stroke-linejoin="round"/>
</svg>
