<svg width="22" height="22" viewBox="0 0 22 22" fill="none" xmlns="http://www.w3.org/2000/svg">
<path d="M6.92307 19.2308L0.769226 20.7692L2.30769 16.1538V2.30769C2.30769 1.89966 2.46978 1.50835 2.75829 1.21983C3.04681 0.931314 3.43812 0.769226 3.84615 0.769226H19.2308C19.6388 0.769226 20.0301 0.931314 20.3186 1.21983C20.6071 1.50835 20.7692 1.89966 20.7692 2.30769V17.6923C20.7692 18.1003 20.6071 18.4917 20.3186 18.7801C20.0301 19.0686 19.6388 19.2308 19.2308 19.2308H6.92307Z" stroke="black" stroke-width="1.53846" stroke-linecap="round" stroke-linejoin="round"/>
<path d="M9.23077 7.69228C9.23077 7.23586 9.36611 6.78969 9.6197 6.4102C9.87327 6.03069 10.2337 5.73491 10.6553 5.56025C11.077 5.38559 11.541 5.33988 11.9887 5.42893C12.4363 5.51797 12.8475 5.73776 13.1703 6.06049C13.493 6.38323 13.7128 6.79442 13.8018 7.24208C13.8909 7.68973 13.8452 8.15373 13.6705 8.5754C13.4958 8.99706 13.2001 9.35748 12.8205 9.61105C12.4411 9.86463 11.9949 9.99997 11.5385 9.99997V11.5384" stroke="black" stroke-width="1.53846" stroke-linecap="round" stroke-linejoin="round"/>
<path d="M11.5385 15.3846C11.3261 15.3846 11.1539 15.2124 11.1539 15C11.1539 14.7876 11.3261 14.6154 11.5385 14.6154" stroke="black" stroke-width="1.53846" stroke-linecap="round" stroke-linejoin="round"/>
<path d="M11.5383 15.3845C11.7507 15.3845 11.9229 15.2123 11.9229 14.9999C11.9229 14.7875 11.7507 14.6153 11.5383 14.6153" stroke="black" stroke-width="1.53846" stroke-linecap="round" stroke-linejoin="round"/>
</svg>
