<svg width="21" height="19" viewBox="0 0 21 19" fill="none" xmlns="http://www.w3.org/2000/svg">
<path d="M20.8752 0.376561C20.7273 0.142308 20.4697 0.000176043 20.1927 2.71725e-07H0.809482C0.187762 -0.000493562 -0.201346 0.672234 0.109091 1.2109C0.144514 1.27237 0.187887 1.3289 0.238074 1.37904L4.5135 5.65345L0.238074 9.92786C-0.201789 10.3672 -0.00106692 11.118 0.599376 11.2793C0.667894 11.2977 0.738537 11.307 0.809482 11.3069H14.299L11.3875 17.4207C11.1065 17.9753 11.5312 18.6261 12.152 18.5922C12.4542 18.5757 12.7218 18.3916 12.8453 18.1153L20.9216 1.15492C21.0407 0.904679 21.0232 0.610864 20.8752 0.376561ZM15.0673 9.69163H2.75891L6.2267 6.22485C6.54252 5.90937 6.54252 5.39752 6.2267 5.08204L2.75891 1.61527H18.9116L15.0673 9.69163Z" fill="black"/>
</svg>
