<svg width="22" height="22" viewBox="0 0 22 22" fill="none" xmlns="http://www.w3.org/2000/svg">
<path d="M4.61517 10.7702V6.72406C4.62719 5.92872 4.79602 5.14358 5.11201 4.41359C5.42798 3.68362 5.8849 3.02317 6.45656 2.47008C7.02823 1.917 7.70341 1.48214 8.44343 1.19045C9.18343 0.89875 9.97374 0.755939 10.769 0.770198C11.5643 0.755939 12.3546 0.89875 13.0946 1.19045C13.8347 1.48214 14.5098 1.917 15.0815 2.47008C15.6532 3.02317 16.1101 3.68362 16.4261 4.41359C16.742 5.14358 16.9109 5.92872 16.9229 6.72406V10.7702" stroke="black" stroke-width="1.53847" stroke-linecap="round" stroke-linejoin="round"/>
<path d="M2.30769 8.46219H3.84616C4.05017 8.46219 4.24584 8.54324 4.39008 8.6875C4.53434 8.83174 4.61539 9.02741 4.61539 9.23142V13.8468C4.61539 14.0508 4.53434 14.2465 4.39008 14.3907C4.24584 14.535 4.05017 14.6161 3.84616 14.6161H2.30769C1.89966 14.6161 1.50835 14.454 1.21983 14.1655C0.931314 13.8769 0.769226 13.4856 0.769226 13.0776V10.0007C0.769226 9.59262 0.931314 9.20131 1.21983 8.91279C1.50835 8.62428 1.89966 8.46219 2.30769 8.46219Z" stroke="black" stroke-width="1.53847" stroke-linecap="round" stroke-linejoin="round"/>
<path d="M19.2305 14.6161H17.6921C17.4881 14.6161 17.2924 14.535 17.1481 14.3907C17.0039 14.2465 16.9228 14.0508 16.9228 13.8468V9.23142C16.9228 9.02741 17.0039 8.83174 17.1481 8.6875C17.2924 8.54324 17.4881 8.46219 17.6921 8.46219H19.2305C19.6385 8.46219 20.0299 8.62428 20.3184 8.91279C20.6068 9.20131 20.769 9.59262 20.769 10.0007V13.0776C20.769 13.4856 20.6068 13.8769 20.3184 14.1655C20.0299 14.454 19.6385 14.6161 19.2305 14.6161Z" stroke="black" stroke-width="1.53847" stroke-linecap="round" stroke-linejoin="round"/>
<path d="M13.8456 18.8466C14.6617 18.8466 15.4443 18.5225 16.0213 17.9454C16.5984 17.3683 16.9226 16.5857 16.9226 15.7697V12.3081" stroke="black" stroke-width="1.53847" stroke-linecap="round" stroke-linejoin="round"/>
<path d="M13.8462 18.8467C13.8462 19.3567 13.6436 19.8459 13.283 20.2065C12.9223 20.5672 12.4332 20.7698 11.9231 20.7698H9.61543C9.1054 20.7698 8.61626 20.5672 8.25562 20.2065C7.89497 19.8459 7.69235 19.3567 7.69235 18.8467C7.69235 18.3367 7.89497 17.8475 8.25562 17.4868C8.61626 17.1262 9.1054 16.9236 9.61543 16.9236H11.9231C12.4332 16.9236 12.9223 17.1262 13.283 17.4868C13.6436 17.8475 13.8462 18.3367 13.8462 18.8467Z" stroke="black" stroke-width="1.53847" stroke-linecap="round" stroke-linejoin="round"/>
</svg>
