<svg width="18" height="23" viewBox="0 0 18 23" fill="none" xmlns="http://www.w3.org/2000/svg">
<path d="M4.47187 17.7188H13.5281V16.0312H4.47187V17.7188ZM4.47187 12.9375H13.5281V11.25H4.47187V12.9375ZM1.6875 22.5C1.2375 22.5 0.84375 22.3312 0.50625 21.9937C0.16875 21.6562 0 21.2625 0 20.8125V1.6875C0 1.2375 0.16875 0.84375 0.50625 0.50625C0.84375 0.16875 1.2375 0 1.6875 0H11.8406L18 6.15937V20.8125C18 21.2625 17.8312 21.6562 17.4937 21.9937C17.1562 22.3312 16.7625 22.5 16.3125 22.5H1.6875ZM10.9969 6.91875V1.6875H1.6875V20.8125H16.3125V6.91875H10.9969Z" fill="black"/>
</svg>
