<svg width="45" height="45" viewBox="0 0 45 45" fill="none" xmlns="http://www.w3.org/2000/svg">
<rect width="45" height="45" rx="9.8" fill="#C2BAFB"/>
<path d="M23.3799 15.7571C20.7217 15.7571 17.943 15.7571 15.6136 16.1735C14.497 16.373 13.6175 17.2256 13.3777 18.3343C13 20.0811 13 21.7106 13 24.1908C13 26.6711 13 28.3005 13.3777 30.0474C13.6175 31.156 14.497 32.0086 15.6136 32.2082C17.943 32.6245 20.7217 32.6245 23.3799 32.6245C26.0382 32.6245 28.8169 32.6245 31.1462 32.2082C32.2628 32.0086 33.1424 31.156 33.3821 30.0474C33.7598 28.3005 33.7598 26.6711 33.7598 24.1908C33.7598 21.7106 33.7598 20.0811 33.3821 18.3343C33.1424 17.2256 32.2628 16.373 31.1462 16.1735C28.8169 15.7571 26.0382 15.7571 23.3799 15.7571Z" stroke="black" stroke-width="1.80207" stroke-linecap="round" stroke-linejoin="round"/>
<path d="M19.0537 15.7573V14.604C19.0537 12.6135 20.6673 10.9999 22.6578 10.9999H24.0995C26.09 10.9999 27.7036 12.6135 27.7036 14.604V15.7573" stroke="black" stroke-width="1.80207" stroke-linecap="round" stroke-linejoin="round"/>
<path d="M13.0122 21.8123L22.2446 24.8943C22.9854 25.1416 23.7864 25.1416 24.5271 24.8943L33.7595 21.8123" stroke="black" stroke-width="1.80207" stroke-linecap="round" stroke-linejoin="round"/>
</svg>
