<svg width="45" height="45" viewBox="0 0 45 45" fill="none" xmlns="http://www.w3.org/2000/svg">
<rect width="45" height="45" rx="9.8" fill="#D0F56B"/>
<path d="M33.7492 20.9171V31.037C33.7492 31.5146 33.5701 31.9326 33.2119 32.2908C32.8536 32.649 32.4357 32.8281 31.9581 32.8281H14.0168C13.5392 32.8281 13.1213 32.649 12.763 32.2908C12.4048 31.9326 12.2257 31.5146 12.2257 31.037V20.9171C11.6684 20.4394 11.3003 19.8524 11.1211 19.1558C10.942 18.4592 10.9619 17.7627 11.1809 17.0661L12.4645 13.0361C12.6237 12.4987 12.9023 12.0808 13.3004 11.7823C13.6984 11.4837 14.1561 11.3345 14.6736 11.3345H31.1819C31.7391 11.3345 32.2268 11.4887 32.6447 11.7972C33.0626 12.1057 33.3512 12.5186 33.5104 13.0361L34.8239 17.0661C35.0428 17.7627 35.0577 18.4592 34.8687 19.1558C34.6796 19.8524 34.3064 20.4394 33.7492 20.9171ZM25.6891 19.9916C26.2662 19.9916 26.7538 19.8026 27.1519 19.4244C27.5498 19.0463 27.7091 18.5886 27.6295 18.0512L26.8832 13.1256H23.898V18.0512C23.898 18.5687 24.0671 19.0214 24.4054 19.4095C24.7437 19.7976 25.1716 19.9916 25.6891 19.9916ZM20.1067 19.9916C20.6639 19.9916 21.1366 19.8026 21.5247 19.4244C21.9128 19.0463 22.1068 18.5886 22.1068 18.0512V13.1256H19.1216L18.3753 18.0512C18.2956 18.5687 18.435 19.0214 18.7932 19.4095C19.1514 19.7976 19.5893 19.9916 20.1067 19.9916ZM14.6736 19.9916C15.1512 19.9916 15.5641 19.8275 15.9125 19.4991C16.2607 19.1707 16.4647 18.7677 16.5244 18.2901L17.3006 13.1256H14.3153L12.9421 17.484C12.7431 18.101 12.8227 18.6732 13.181 19.2006C13.5392 19.7279 14.0367 19.9916 14.6736 19.9916ZM31.3013 19.9916C31.9381 19.9916 32.4407 19.7329 32.8089 19.2155C33.177 18.698 33.2616 18.1209 33.0626 17.484L31.6894 13.1256H28.7042L29.4803 18.2901C29.54 18.7677 29.744 19.1707 30.0923 19.4991C30.4406 19.8275 30.8436 19.9916 31.3013 19.9916ZM14.0168 31.037H31.9581V21.7529C31.978 21.7728 31.9133 21.7828 31.764 21.7828H31.3013C30.8038 21.7828 30.3311 21.6783 29.8833 21.4693C29.4356 21.2604 28.9927 20.9369 28.5549 20.4991C28.2365 20.8972 27.8385 21.2106 27.3608 21.4395C26.8832 21.6683 26.3558 21.7828 25.7787 21.7828C25.1816 21.7828 24.6691 21.6982 24.2413 21.529C23.8134 21.3599 23.4004 21.0763 23.0024 20.6782C22.7039 21.0365 22.3257 21.3101 21.868 21.4992C21.4102 21.6883 20.8928 21.7828 20.3157 21.7828C19.6987 21.7828 19.1514 21.6733 18.6738 21.4544C18.1962 21.2355 17.7881 20.9171 17.4499 20.4991C16.9722 20.9171 16.5045 21.2355 16.0468 21.4544C15.589 21.6733 15.1313 21.7828 14.6736 21.7828H14.2706C14.1412 21.7828 14.0566 21.7728 14.0168 21.7529V31.037Z" fill="black"/>
</svg>
