<svg width="45" height="45" viewBox="0 0 45 45" fill="none" xmlns="http://www.w3.org/2000/svg">
<rect width="45" height="45" rx="9.8" fill="#35E834"/>
<path d="M10.9998 16.316L15.097 18.5211L18.7542 17.8878C19.9887 17.6741 21.2539 18.0275 22.199 18.8501" stroke="black" stroke-width="1.86711" stroke-linecap="round" stroke-linejoin="round"/>
<path d="M31.0416 27.8878L25.2487 32.0018C23.9753 32.9063 22.2736 32.9225 20.9831 32.0427L10.9998 25.2372" stroke="black" stroke-width="1.86711" stroke-linecap="round" stroke-linejoin="round"/>
<path d="M34.9999 25.1937L30.9011 27.9946L24.5414 22.8594L22.2021 24.562C21.2509 25.2543 19.9221 25.0678 19.1982 24.1404C18.476 23.2151 18.6154 21.8842 19.5135 21.1285L21.9493 19.0791C23.1168 18.0968 24.6344 17.6333 26.1514 17.7956L29.9477 18.2018L34.9999 15.4709" stroke="black" stroke-width="1.86711" stroke-linecap="round" stroke-linejoin="round"/>
<path d="M24.5427 22.8731C26.073 24.2365 28.2432 23.5409 29.0502 22.4279" stroke="black" stroke-width="1.86711" stroke-linecap="round" stroke-linejoin="round"/>
</svg>
