<svg width="20" height="23" viewBox="0 0 20 23" fill="none" xmlns="http://www.w3.org/2000/svg">
<path d="M6.19715 2.27143C4.83649 2.64617 3.48514 3.05391 2.14429 3.49428C2.02176 3.5338 1.91283 3.60701 1.82997 3.70554C1.7471 3.80407 1.69365 3.92394 1.67572 4.05143C0.884293 9.98999 2.71286 14.3228 4.89429 17.1771C5.81748 18.398 6.91881 19.4734 8.16143 20.3671C8.65571 20.7157 9.09286 20.9671 9.43714 21.1286C9.60857 21.2095 9.7481 21.2657 9.85571 21.2971C9.90316 21.3115 9.95132 21.3234 10 21.3328C10.0482 21.3234 10.0959 21.3115 10.1429 21.2971C10.2514 21.2647 10.3914 21.2086 10.5629 21.1286C10.9057 20.9671 11.3443 20.7143 11.8386 20.3671C13.0812 19.4734 14.1825 18.398 15.1057 17.1771C17.2871 14.3243 19.1157 9.98999 18.3243 4.05143C18.3064 3.92394 18.2529 3.80407 18.17 3.70554C18.0872 3.60701 17.9782 3.5338 17.8557 3.49428C16.9257 3.19 15.3557 2.69428 13.8029 2.27286C12.2171 1.84286 10.7586 1.52428 10 1.52428C9.24286 1.52428 7.78286 1.84143 6.19715 2.27143ZM5.81715 0.799999C7.36715 0.378571 9.01429 0 10 0C10.9857 0 12.6329 0.378571 14.1829 0.799999C15.7686 1.22857 17.3671 1.73571 18.3071 2.04286C18.7001 2.17264 19.0486 2.41066 19.3124 2.72957C19.5762 3.04848 19.7447 3.43534 19.7986 3.84571C20.65 10.2414 18.6743 14.9814 16.2771 18.1171C15.2602 19.4582 14.0482 20.6394 12.6814 21.6214C12.2093 21.962 11.7084 22.2608 11.1843 22.5143C10.7843 22.7028 10.3543 22.8571 10 22.8571C9.64571 22.8571 9.21714 22.7028 8.81572 22.5143C8.29163 22.2608 7.79068 21.962 7.31857 21.6214C5.95179 20.6394 4.73978 19.4582 3.72286 18.1171C1.32572 14.9814 -0.649992 10.2414 0.201436 3.84571C0.255275 3.43534 0.423783 3.04848 0.687603 2.72957C0.951422 2.41066 1.29985 2.17264 1.69286 2.04286C3.05751 1.59573 4.43267 1.18132 5.81715 0.799999Z" fill="black"/>
<path d="M14.0772 7.35121C14.1437 7.41756 14.1965 7.49638 14.2325 7.58316C14.2685 7.66994 14.2871 7.76297 14.2871 7.85692C14.2871 7.95087 14.2685 8.0439 14.2325 8.13068C14.1965 8.21746 14.1437 8.29628 14.0772 8.36263L9.79149 12.6483C9.72514 12.7149 9.64632 12.7676 9.55954 12.8036C9.47276 12.8397 9.37973 12.8582 9.28578 12.8582C9.19182 12.8582 9.09879 12.8397 9.01202 12.8036C8.92524 12.7676 8.84641 12.7149 8.78006 12.6483L6.63721 10.5055C6.5708 10.4391 6.51812 10.3602 6.48217 10.2735C6.44623 10.1867 6.42773 10.0937 6.42773 9.99977C6.42773 9.90585 6.44623 9.81285 6.48217 9.72608C6.51812 9.63931 6.5708 9.56047 6.63721 9.49406C6.70362 9.42765 6.78246 9.37497 6.86923 9.33903C6.956 9.30309 7.049 9.28459 7.14292 9.28459C7.23684 9.28459 7.32984 9.30309 7.41661 9.33903C7.50338 9.37497 7.58222 9.42765 7.64864 9.49406L9.28578 11.1326L13.0658 7.35121C13.1321 7.28469 13.2109 7.23191 13.2977 7.1959C13.3845 7.15989 13.4775 7.14136 13.5715 7.14136C13.6654 7.14136 13.7585 7.15989 13.8453 7.1959C13.932 7.23191 14.0109 7.28469 14.0772 7.35121Z" fill="black"/>
</svg>
