<svg width="25" height="25" viewBox="0 0 25 25" fill="none" xmlns="http://www.w3.org/2000/svg">
<path d="M5.90968 3.87183H18.1366C18.1366 3.87183 20.1744 3.87183 20.1744 5.90965V18.1366C20.1744 18.1366 20.1744 20.1744 18.1366 20.1744H5.90968C5.90968 20.1744 3.87186 20.1744 3.87186 18.1366V5.90965C3.87186 5.90965 3.87186 3.87183 5.90968 3.87183Z" stroke="black" stroke-width="1.63026" stroke-linecap="round" stroke-linejoin="round"/>
<path d="M8.9664 8.96643H15.0799V15.0799H8.9664V8.96643Z" stroke="black" stroke-width="1.63026" stroke-linecap="round" stroke-linejoin="round"/>
<path d="M8.9664 0.815125V3.87185" stroke="black" stroke-width="1.63026" stroke-linecap="round" stroke-linejoin="round"/>
<path d="M15.0799 0.815125V3.87185" stroke="black" stroke-width="1.63026" stroke-linecap="round" stroke-linejoin="round"/>
<path d="M8.9664 20.1744V23.2312" stroke="black" stroke-width="1.63026" stroke-linecap="round" stroke-linejoin="round"/>
<path d="M15.0799 20.1744V23.2312" stroke="black" stroke-width="1.63026" stroke-linecap="round" stroke-linejoin="round"/>
<path d="M20.1744 8.96643H23.2311" stroke="black" stroke-width="1.63026" stroke-linecap="round" stroke-linejoin="round"/>
<path d="M20.1744 14.061H23.2311" stroke="black" stroke-width="1.63026" stroke-linecap="round" stroke-linejoin="round"/>
<path d="M0.815125 8.96643H3.87185" stroke="black" stroke-width="1.63026" stroke-linecap="round" stroke-linejoin="round"/>
<path d="M0.815125 14.061H3.87185" stroke="black" stroke-width="1.63026" stroke-linecap="round" stroke-linejoin="round"/>
</svg>
