<svg width="26" height="26" viewBox="0 0 26 26" fill="none" xmlns="http://www.w3.org/2000/svg">
<path d="M15.4749 15.4667C15.9118 15.0446 16.2602 14.5396 16.4997 13.9813C16.7393 13.4229 16.8651 12.8225 16.8699 12.215C16.8747 11.6074 16.7584 11.005 16.5278 10.443C16.2972 9.88094 15.9568 9.37048 15.5266 8.94147C15.0965 8.51245 14.5851 8.17347 14.0224 7.94433C13.4598 7.71519 12.8571 7.6005 12.2496 7.60695C11.642 7.6134 11.0419 7.74086 10.4842 7.98188C9.92655 8.22291 9.4225 8.57267 9.00153 9.01072C8.17151 9.87443 7.71362 11.0294 7.72633 12.2272C7.73905 13.425 8.22135 14.57 9.06952 15.4159C9.91769 16.2618 11.064 16.741 12.2618 16.7505C13.4597 16.76 14.6134 16.2991 15.4749 15.4667ZM15.4749 15.4667L18.3335 18.3334" stroke="black" stroke-width="2" stroke-linecap="round" stroke-linejoin="round"/>
<path d="M1 9.53333C1 6.54667 1 5.05333 1.58133 3.912C2.09265 2.90851 2.90851 2.09265 3.912 1.58133C5.05333 1 6.54667 1 9.53333 1H16.4667C19.4533 1 20.9467 1 22.088 1.58133C23.0915 2.09265 23.9074 2.90851 24.4187 3.912C25 5.05333 25 6.54667 25 9.53333V16.4667C25 19.4533 25 20.9467 24.4187 22.088C23.9074 23.0915 23.0915 23.9074 22.088 24.4187C20.9467 25 19.4533 25 16.4667 25H9.53333C6.54667 25 5.05333 25 3.912 24.4187C2.90851 23.9074 2.09265 23.0915 1.58133 22.088C1 20.9467 1 19.4533 1 16.4667V9.53333Z" stroke="black" stroke-width="2" stroke-linecap="round" stroke-linejoin="round"/>
</svg>
