<svg width="20" height="23" viewBox="0 0 20 23" fill="none" xmlns="http://www.w3.org/2000/svg">
<path d="M2.91667 22.2222C2.10648 22.2222 1.41787 21.9386 0.850833 21.3714C0.283611 20.8043 0 20.1157 0 19.3056V17.2222C0 16.7639 0.163239 16.3715 0.489722 16.045C0.816017 15.7187 1.20833 15.5556 1.66667 15.5556H3.33333V1.66667C3.33333 1.20833 3.49656 0.815928 3.82306 0.489444C4.14933 0.16315 4.54167 0 5 0H18.3333C18.7917 0 19.1841 0.16315 19.5106 0.489444C19.8368 0.815928 20 1.20833 20 1.66667V19.3056C20 20.1157 19.7165 20.8043 19.1494 21.3714C18.5822 21.9386 17.8935 22.2222 17.0833 22.2222H2.91667ZM17.0808 20.5556C17.4343 20.5556 17.7315 20.4357 17.9722 20.1961C18.2129 19.9565 18.3333 19.6596 18.3333 19.3056V1.66667H5V15.5556H14.1667C14.625 15.5556 15.0174 15.7187 15.3439 16.045C15.6702 16.3715 15.8333 16.7639 15.8333 17.2222V19.3056C15.8333 19.6596 15.9529 19.9565 16.1919 20.1961C16.431 20.4357 16.7273 20.5556 17.0808 20.5556ZM7.5 6.66667C7.26389 6.66667 7.066 6.58628 6.90639 6.42556C6.74656 6.265 6.66667 6.06594 6.66667 5.82833C6.66667 5.59094 6.74656 5.3935 6.90639 5.23611C7.066 5.07872 7.26389 5 7.5 5H15.8333C16.0694 5 16.2674 5.08039 16.4272 5.24111C16.5868 5.40167 16.6667 5.60072 16.6667 5.83833C16.6667 6.07572 16.5868 6.27317 16.4272 6.43055C16.2674 6.58794 16.0694 6.66667 15.8333 6.66667H7.5ZM7.5 10C7.26389 10 7.066 9.91961 6.90639 9.75889C6.74656 9.59833 6.66667 9.39928 6.66667 9.16167C6.66667 8.92428 6.74656 8.72683 6.90639 8.56944C7.066 8.41206 7.26389 8.33333 7.5 8.33333H15.8333C16.0694 8.33333 16.2674 8.41372 16.4272 8.57444C16.5868 8.735 16.6667 8.93406 16.6667 9.17167C16.6667 9.40906 16.5868 9.6065 16.4272 9.76389C16.2674 9.92128 16.0694 10 15.8333 10H7.5ZM2.88889 20.5556H14.1667V17.2222H1.66667V19.3056C1.66667 19.6596 1.78704 19.9565 2.02778 20.1961C2.2685 20.4357 2.55556 20.5556 2.88889 20.5556ZM2.88889 20.5556H1.66667H14.1667H2.88889Z" fill="black"/>
</svg>
