<svg width="26" height="22" viewBox="0 0 26 22" fill="none" xmlns="http://www.w3.org/2000/svg">
<path d="M1.96973 3.87373C4.42653 6.24866 6.98548 8.44804 9.79797 10.3867C11.4927 11.5548 13.7215 11.5548 15.4161 10.3866C18.2287 8.44798 20.7876 6.24858 23.2444 3.87366" stroke="black" stroke-width="1.80102" stroke-linecap="round" stroke-linejoin="round"/>
<path d="M6.48585 1.23341C5.1682 1.3593 3.93982 1.85927 3.00099 2.6518C2.06217 3.44434 1.4683 4.48266 1.31621 5.59749C1.09144 7.29367 0.900391 9.03264 0.900391 10.8081C0.900391 12.5835 1.09144 14.3241 1.31621 16.0187C1.4683 17.1336 2.06217 18.1719 3.00099 18.9643C3.93982 19.7569 5.1682 20.2569 6.48585 20.3828C8.4769 20.5634 10.5223 20.7156 12.607 20.7156C14.6917 20.7156 16.7371 20.5634 18.7301 20.3828C20.0477 20.2569 21.276 19.7569 22.2149 18.9643C23.1537 18.1719 23.7475 17.1336 23.8997 16.0187C24.1207 14.3225 24.3136 12.5835 24.3136 10.8081C24.3136 9.03266 24.1225 7.29208 23.8977 5.59749C23.7457 4.48266 23.1518 3.44434 22.2131 2.6518C21.2742 1.85927 20.0457 1.3593 18.7281 1.23341C16.739 1.0527 14.6936 0.900513 12.607 0.900513C10.5204 0.900513 8.4769 1.0527 6.48585 1.23341Z" stroke="black" stroke-width="1.80102" stroke-linecap="round" stroke-linejoin="round"/>
</svg>
