<svg width="25" height="22" viewBox="0 0 25 22" fill="none" xmlns="http://www.w3.org/2000/svg">
<path d="M24.1463 0.23921C23.8702 0.000767267 23.4848 -0.0652902 23.145 0.0675957L0.991444 8.73727C-0.123812 9.17094 -0.351392 10.6493 0.581816 11.3983C0.778192 11.5559 1.00993 11.6635 1.25708 11.7117L6.99714 12.8387V19.239C6.99483 19.9524 7.42809 20.5949 8.09028 20.8602C8.75151 21.1302 9.51058 20.9685 10.0044 20.4524L12.7722 17.5818L17.1633 21.4253C17.4801 21.7063 17.8887 21.8618 18.3122 21.8626C18.4978 21.8624 18.6822 21.8333 18.8588 21.7762C19.4459 21.5899 19.89 21.1059 20.0252 20.5049L24.4622 1.20226C24.5431 0.847528 24.4216 0.477116 24.1463 0.23921ZM17.4628 4.17451L7.66942 11.1881L2.24746 10.1245L17.4628 4.17451ZM8.74616 19.239V14.0488L11.456 16.4253L8.74616 19.239ZM18.3144 20.1135L9.27634 12.1883L22.2847 2.86493L18.3144 20.1135Z" fill="black"/>
</svg>
