<svg width="19" height="25" viewBox="0 0 19 25" fill="none" xmlns="http://www.w3.org/2000/svg">
<path d="M16.6127 4.68961V1.70885C16.6127 1.44534 16.508 1.19262 16.3217 1.00628C16.1353 0.819952 15.8826 0.715271 15.6191 0.715271H2.7025C2.17547 0.715271 1.67003 0.924633 1.29736 1.2973C0.924694 1.66997 0.715332 2.17541 0.715332 2.70244M16.6127 4.68961H2.7025C2.17547 4.68961 1.67003 4.48024 1.29736 4.10758C0.924694 3.73491 0.715332 3.22947 0.715332 2.70244M16.6127 4.68961C16.8762 4.68961 17.1289 4.79429 17.3152 4.98062C17.5016 5.16695 17.6063 5.41967 17.6063 5.68319V22.5741C17.6063 22.8376 17.5016 23.0903 17.3152 23.2767C17.1289 23.463 16.8762 23.5677 16.6127 23.5677H2.7025C2.17547 23.5677 1.67003 23.3583 1.29736 22.9857C0.924694 22.613 0.715332 22.1076 0.715332 21.5805V2.70244" stroke="black" stroke-width="1.43059" stroke-linecap="round" stroke-linejoin="round"/>
<path d="M9.62397 9.94046L10.6443 12.3073H12.63C12.7302 12.3036 12.8292 12.3308 12.9134 12.3854C12.9976 12.4399 13.0629 12.5191 13.1004 12.6122C13.1379 12.7052 13.1457 12.8076 13.1229 12.9053C13.1001 13.0029 13.0476 13.0912 12.9728 13.158L11.249 14.6935L12.2037 16.89C12.2456 16.9904 12.2549 17.1015 12.2304 17.2076C12.2059 17.3136 12.1487 17.4093 12.067 17.4812C11.9852 17.553 11.883 17.5975 11.7747 17.6082C11.6663 17.6189 11.5574 17.5954 11.4631 17.541L9.15987 16.2409L6.85266 17.541C6.75836 17.5962 6.64909 17.6203 6.54033 17.6099C6.43158 17.5995 6.32884 17.5552 6.2467 17.4832C6.16455 17.4111 6.10715 17.3151 6.08263 17.2086C6.05812 17.1021 6.06773 16.9907 6.1101 16.89L7.06548 14.6941L5.34169 13.1593C5.26641 13.0927 5.21356 13.0045 5.19038 12.9067C5.1672 12.8089 5.17483 12.7063 5.21222 12.613C5.24961 12.5197 5.31493 12.4403 5.39924 12.3856C5.48354 12.3308 5.5827 12.3035 5.68313 12.3073H7.6688L8.69047 9.94046C8.73592 9.85626 8.8033 9.78592 8.88547 9.73689C8.96764 9.68787 9.06154 9.66199 9.15722 9.66199C9.25291 9.66199 9.34681 9.68787 9.42898 9.73689C9.51115 9.78592 9.57852 9.85626 9.62397 9.94046Z" stroke="black" stroke-width="1.2" stroke-linecap="round" stroke-linejoin="round"/>
</svg>
