<svg width="23" height="26" viewBox="0 0 23 26" fill="none" xmlns="http://www.w3.org/2000/svg">
<path d="M9.61947 10.5818C12.2759 10.5818 14.4294 8.4283 14.4294 5.77187C14.4294 3.11544 12.2759 0.961975 9.61947 0.961975C6.96304 0.961975 4.80957 3.11544 4.80957 5.77187C4.80957 8.4283 6.96304 10.5818 9.61947 10.5818Z" stroke="black" stroke-width="1.92396" stroke-linecap="round" stroke-linejoin="round"/>
<path d="M12.5057 24.0491H0.961914V23.0061C0.977231 21.5397 1.36398 20.1009 2.08603 18.8246C2.80809 17.5481 3.84189 16.4755 5.09086 15.7068C6.33986 14.9382 7.76328 14.4987 9.22816 14.4294C10.6931 14.36 12.1516 14.6631 13.4676 15.3103" stroke="black" stroke-width="1.92396" stroke-linecap="round" stroke-linejoin="round"/>
<path d="M13.5587 20.4323C13.067 20.3467 13.067 19.6409 13.5587 19.5554C15.34 19.2455 16.7567 17.8888 17.1433 16.1226L17.173 15.9872C17.2793 15.5012 17.9713 15.4982 18.0818 15.9832L18.1178 16.141C18.5188 17.8988 19.9359 19.2441 21.7123 19.5532C22.2064 19.6391 22.2064 20.3486 21.7123 20.4346C19.9359 20.7435 18.5188 22.0888 18.1178 23.8468L18.0818 24.0045C17.9713 24.4894 17.2793 24.4865 17.173 24.0005L17.1433 23.8651C16.7567 22.0989 15.34 20.7421 13.5587 20.4323Z" stroke="black" stroke-width="1.40107" stroke-linecap="round" stroke-linejoin="round"/>
</svg>
