<svg width="29" height="16" viewBox="0 0 29 16" fill="none" xmlns="http://www.w3.org/2000/svg">
<rect x="0.7" y="0.7" width="14.105" height="14.105" rx="7.05252" fill="#9E9E9E" stroke="black" stroke-width="1.4"/>
<rect x="13.2864" y="0.7" width="14.105" height="14.105" rx="7.05252" fill="#E2E2E2" stroke="black" stroke-width="1.4"/>
<path d="M4.99427 11.1568H3.89331L7.07763 2.48462H8.16166L11.346 11.1568H10.245L7.65352 3.85659H7.58577L4.99427 11.1568ZM5.40078 7.76924H9.83851V8.70082H5.40078V7.76924Z" fill="black"/>
<path d="M17.0916 12.2119V3.21191H20.6112C21.3125 3.21191 21.8909 3.32031 22.3465 3.53711C22.802 3.75098 23.1412 4.03955 23.364 4.40283C23.5869 4.76318 23.6983 5.16309 23.6983 5.60254C23.6983 5.98926 23.6213 6.30859 23.4673 6.56055C23.3165 6.8125 23.1166 7.01172 22.8675 7.1582C22.6217 7.30469 22.3547 7.41309 22.0663 7.4834V7.57129C22.3743 7.58887 22.684 7.68555 22.9953 7.86133C23.3067 8.03711 23.5672 8.28906 23.7769 8.61719C23.9867 8.94531 24.0916 9.34668 24.0916 9.82129C24.0916 10.2725 23.9769 10.6782 23.7475 11.0386C23.5181 11.3989 23.1559 11.6846 22.6611 11.8955C22.1662 12.1064 21.5223 12.2119 20.7292 12.2119H17.0916ZM18.3107 11.2451H20.7292C21.5255 11.2451 22.0909 11.1074 22.4251 10.832C22.7627 10.5537 22.9314 10.2168 22.9314 9.82129C22.9314 9.5166 22.8446 9.23535 22.6709 8.97754C22.4972 8.7168 22.2498 8.50879 21.9286 8.35352C21.6075 8.19531 21.2273 8.11621 20.7882 8.11621H18.3107V11.2451ZM18.3107 7.16699H20.5719C20.9389 7.16699 21.2699 7.10254 21.5649 6.97363C21.8631 6.84473 22.099 6.66309 22.2727 6.42871C22.4497 6.19434 22.5382 5.91895 22.5382 5.60254C22.5382 5.20703 22.3842 4.87158 22.0761 4.59619C21.7681 4.31787 21.2798 4.17871 20.6112 4.17871H18.3107V7.16699Z" fill="black"/>
</svg>
