<svg width="23" height="23" viewBox="0 0 23 23" fill="none" xmlns="http://www.w3.org/2000/svg">
<path d="M11.0915 20.9667L6.34082 21.3784L6.75255 16.6277L16.634 6.80958C16.7814 6.65874 16.9577 6.53891 17.152 6.45709C17.3465 6.37527 17.5553 6.33313 17.7663 6.33313C17.9772 6.33313 18.1861 6.37527 18.3805 6.45709C18.575 6.53891 18.7511 6.65874 18.8985 6.80958L20.9097 8.83655C21.058 8.98376 21.1759 9.15892 21.2563 9.35188C21.3367 9.54485 21.3781 9.75184 21.3781 9.96089C21.3781 10.1699 21.3367 10.3769 21.2563 10.5699C21.1759 10.7629 21.058 10.938 20.9097 11.0852L11.0915 20.9667Z" fill="#A4A4A4" stroke="black" stroke-width="1.58357" stroke-linecap="round" stroke-linejoin="round"/>
<path d="M1.20215 6.2366C0.654946 6.1398 0.654946 5.34102 1.20215 5.24421C3.18459 4.89351 4.76135 3.35807 5.19164 1.35927L5.22462 1.20605C5.34301 0.656115 6.11307 0.652691 6.23618 1.20156L6.27623 1.38011C6.72244 3.36949 8.29963 4.89195 10.2766 5.24168C10.8266 5.33897 10.8266 6.14184 10.2766 6.23914C8.29963 6.58887 6.72244 8.11133 6.27623 10.1007L6.23618 10.2793C6.11307 10.8281 5.34301 10.8247 5.22462 10.2748L5.19164 10.1215C4.76135 8.12275 3.18459 6.5873 1.20215 6.2366Z" stroke="#787878" stroke-width="1.58357" stroke-linecap="round" stroke-linejoin="round"/>
</svg>
