<svg width="24" height="24" viewBox="0 0 24 24" fill="none" xmlns="http://www.w3.org/2000/svg">
<path d="M10.8685 13.2764L10.8684 18.1532" stroke="black" stroke-width="1.58358" stroke-linecap="round" stroke-linejoin="round"/>
<path d="M5.34391 10.6097C4.79049 10.4789 3.53637 9.62619 3.34717 7.96387" stroke="#787878" stroke-width="1.58358" stroke-linecap="round" stroke-linejoin="round"/>
<path d="M3.40939 15.433C2.84633 15.8939 2.39739 16.9385 2.25195 17.7752" stroke="#787878" stroke-width="1.58358" stroke-linecap="round" stroke-linejoin="round"/>
<path d="M18.3279 15.433C18.8908 15.8939 19.3398 16.9385 19.4853 17.7752" stroke="#787878" stroke-width="1.58358" stroke-linecap="round" stroke-linejoin="round"/>
<path d="M20.4593 10.6451C20.754 11.4312 20.9201 12.3055 20.9201 13.1896C20.9201 14.8216 20.3543 16.7775 19.4577 17.7774C19.4677 17.9012 19.4727 18.0266 19.4727 18.1531C19.4727 20.6232 17.5438 22.6255 15.1644 22.6255C12.785 22.6255 10.8561 20.6232 10.8561 18.1531C10.8561 20.6232 8.92683 22.6255 6.54741 22.6255C4.16801 22.6255 2.23912 20.6232 2.23912 18.1531C2.23912 18.0266 2.24419 17.9012 2.25412 17.7774C1.35748 16.7775 0.791748 14.8216 0.791748 13.1896C0.791748 10.9658 1.84217 8.8037 3.34894 7.95381C3.33448 7.81466 3.32707 7.67333 3.32707 7.53021C3.32707 5.37208 5.01244 3.62256 7.09144 3.62256C8.03628 3.62256 8.8998 3.9839 9.56078 4.58072" fill="black" fill-opacity="0.36"/>
<path d="M20.4593 10.6451C20.754 11.4312 20.9201 12.3055 20.9201 13.1896C20.9201 14.8216 20.3543 16.7775 19.4577 17.7774C19.4677 17.9012 19.4727 18.0266 19.4727 18.1531C19.4727 20.6232 17.5438 22.6255 15.1644 22.6255C12.785 22.6255 10.8561 20.6232 10.8561 18.1531C10.8561 20.6232 8.92683 22.6255 6.54741 22.6255C4.16801 22.6255 2.23912 20.6232 2.23912 18.1531C2.23912 18.0266 2.24419 17.9012 2.25412 17.7774C1.35748 16.7775 0.791748 14.8216 0.791748 13.1896C0.791748 10.9658 1.84217 8.8037 3.34894 7.95381C3.33448 7.81466 3.32707 7.67333 3.32707 7.53021C3.32707 5.37208 5.01244 3.62256 7.09144 3.62256C8.03628 3.62256 8.8998 3.9839 9.56078 4.58072" stroke="black" stroke-width="1.58358" stroke-linecap="round" stroke-linejoin="round"/>
<path d="M12.7886 6.23662C12.2414 6.13982 12.2414 5.34103 12.7886 5.24423C14.771 4.89353 16.3478 3.35808 16.7781 1.35927L16.8111 1.20605C16.9295 0.656115 17.6995 0.652691 17.8227 1.20156L17.8627 1.38011C18.3088 3.36949 19.8861 4.89196 21.863 5.24169C22.413 5.33899 22.413 6.14186 21.863 6.23915C19.8861 6.58889 18.3088 8.11135 17.8627 10.1007L17.8227 10.2793C17.6995 10.8282 16.9295 10.8247 16.8111 10.2748L16.7781 10.1216C16.3478 8.12277 14.771 6.58732 12.7886 6.23662Z" stroke="#787878" stroke-width="1.58358" stroke-linecap="round" stroke-linejoin="round"/>
</svg>
