<svg width="22" height="22" viewBox="0 0 22 22" fill="none" xmlns="http://www.w3.org/2000/svg">
<path d="M19.3935 10.1264C19.3935 8.2927 18.8494 6.50022 17.8303 4.97584C16.8111 3.45146 15.3626 2.26371 13.6681 1.56293C11.9736 0.862146 10.1092 0.679837 8.31107 1.03907C6.5129 1.39831 4.86173 2.28295 3.56656 3.58101C2.27138 4.87907 1.39042 6.53221 1.03518 8.33117C0.679944 10.1301 0.8664 11.994 1.57095 13.687C2.2755 15.3799 3.46647 16.8258 4.99311 17.8416C6.51976 18.8574 8.31344 19.3974 10.1471 19.3933" stroke="black" stroke-width="1.71908" stroke-linecap="round" stroke-linejoin="round"/>
<path d="M10.1265 4.97803V10.1263L11.1561 11.156" stroke="black" stroke-width="1.71908" stroke-linecap="round" stroke-linejoin="round"/>
<path d="M20.4229 14.2449C20.4229 18.3636 17.8488 20.4229 16.8191 20.4229C15.7895 20.4229 13.2153 18.3636 13.2153 14.2449C14.245 14.2449 15.7895 13.7301 16.8191 12.7004C17.8488 13.7301 19.3933 14.2449 20.4229 14.2449Z" fill="#A4A4A4" stroke="#787878" stroke-width="1.71908" stroke-linecap="round" stroke-linejoin="round"/>
</svg>
