<svg width="21" height="22" viewBox="0 0 21 22" fill="none" xmlns="http://www.w3.org/2000/svg">
<path d="M8.88916 3.23242H14.95C16.9583 3.23242 18.5864 4.86053 18.5864 6.8689C18.5864 8.74073 17.1722 10.2822 15.3538 10.4832" stroke="black" stroke-width="1.61621" stroke-linecap="round" stroke-linejoin="round"/>
<path d="M10.5054 10.5054H4.44458C2.43621 10.5054 0.808105 12.1335 0.808105 14.1418C0.808105 16.0137 2.22235 17.5551 4.04062 17.7562" stroke="black" stroke-width="1.61621" stroke-linecap="round" stroke-linejoin="round"/>
<path d="M19.3945 17.7783H8.88916" stroke="black" stroke-width="1.61621" stroke-linecap="round" stroke-linejoin="round"/>
<path d="M4.04053 3.23242H0.808105" stroke="black" stroke-width="1.61621" stroke-linecap="round" stroke-linejoin="round"/>
<path d="M16.9702 20.1805C17.8793 20.1805 19.0915 18.9683 19.3945 17.7562C19.0915 16.544 17.8793 15.3319 16.9702 15.3319" stroke="black" stroke-width="1.61621" stroke-linecap="round" stroke-linejoin="round"/>
<path d="M8.88916 3.23242C8.88916 4.57134 7.80376 5.65674 6.46484 5.65674C5.12593 5.65674 4.04053 4.57134 4.04053 3.23242C4.04053 1.8935 5.12593 0.808105 6.46484 0.808105C7.80376 0.808105 8.88916 1.8935 8.88916 3.23242Z" fill="#A4A4A4" stroke="#545454" stroke-width="1.61621" stroke-linecap="round" stroke-linejoin="round"/>
<path d="M8.88916 17.7783C8.88916 19.1172 7.80376 20.2026 6.46484 20.2026C5.12593 20.2026 4.04053 19.1172 4.04053 17.7783C4.04053 16.4395 5.12593 15.354 6.46484 15.354C7.80376 15.354 8.88916 16.4395 8.88916 17.7783Z" fill="#A4A4A4" stroke="#545454" stroke-width="1.61621" stroke-linecap="round" stroke-linejoin="round"/>
<path d="M15.354 10.5054C15.354 11.8443 14.2686 12.9297 12.9297 12.9297C11.5908 12.9297 10.5054 11.8443 10.5054 10.5054C10.5054 9.16645 11.5908 8.08105 12.9297 8.08105C14.2686 8.08105 15.354 9.16645 15.354 10.5054Z" fill="#A4A4A4" stroke="#545454" stroke-width="1.61621" stroke-linecap="round" stroke-linejoin="round"/>
</svg>
