<svg width="14" height="14" viewBox="0 0 14 14" fill="none" xmlns="http://www.w3.org/2000/svg">
<path fill-rule="evenodd" clip-rule="evenodd" d="M3.64696 1.45785C4.67355 1.34405 5.70548 1.25 6.75 1.25C7.79452 1.25 8.82645 1.34405 9.853 1.45785C11.0028 1.5853 11.9311 2.51513 12.0531 3.66266C12.1616 4.68277 12.25 5.70999 12.25 6.75C12.25 7.79001 12.1616 8.81723 12.0531 9.8373C11.9311 10.9849 11.0028 11.9147 9.853 12.0422C8.82645 12.156 7.79452 12.25 6.75 12.25C5.70548 12.25 4.67355 12.156 3.64696 12.0422C2.49722 11.9147 1.5689 10.9849 1.44686 9.8373C1.33837 8.81723 1.25 7.79001 1.25 6.75C1.25 5.70999 1.33837 4.68277 1.44686 3.66266C1.5689 2.51513 2.49722 1.5853 3.64696 1.45785ZM6.75 0C5.6347 0 4.54758 0.100353 3.50924 0.215458C1.77888 0.407275 0.388277 1.79651 0.20387 3.53047C0.094012 4.56345 0 5.6429 0 6.75C0 7.85709 0.094012 8.93655 0.20387 9.9695C0.388277 11.7035 1.77888 13.0927 3.50924 13.2845C4.54758 13.3996 5.6347 13.5 6.75 13.5C7.8653 13.5 8.95242 13.3996 9.9908 13.2845C11.7211 13.0927 13.1117 11.7035 13.2961 9.9695C13.406 8.93655 13.5 7.85709 13.5 6.75C13.5 5.6429 13.406 4.56345 13.2961 3.53047C13.1117 1.79651 11.7211 0.407275 9.9908 0.215458C8.95242 0.100353 7.8653 0 6.75 0ZM9.48344 5.07551C9.7902 4.79721 9.8133 4.3229 9.53503 4.01611C9.25673 3.70932 8.78241 3.68622 8.47562 3.96452C7.72724 4.64341 7.15752 5.26037 6.67533 6.01299C6.3702 6.48925 6.10836 7.00701 5.85755 7.60999L5.05796 6.78541C4.7696 6.48805 4.29479 6.48074 3.99742 6.76909C3.70006 7.05745 3.69275 7.53226 3.98111 7.82963L5.60292 9.50213C5.78407 9.68894 6.04911 9.7685 6.3032 9.71235C6.55728 9.65619 6.76411 9.47235 6.84966 9.22659C7.22219 8.15648 7.54913 7.42969 7.93835 6.82218C8.3246 6.2193 8.79239 5.7024 9.48344 5.07551Z" fill="#35E834"/>
</svg>
