<svg width="107" height="44" viewBox="0 0 107 44" fill="none" xmlns="http://www.w3.org/2000/svg">
<rect x="3.7115" width="104" height="31.5714" rx="15.7857" transform="rotate(6.75124 3.7115 0)" fill="#6BE8FD"/>
<rect x="3.61052" y="-0.128107" width="104.231" height="31.8021" rx="15.9011" transform="rotate(6.75124 3.61052 -0.128107)" stroke="black" stroke-opacity="0.2" stroke-width="0.230694"/>
<path d="M35.8536 22.4436L36.7105 15.2054L39.7612 15.5665C40.2405 15.6233 40.6386 15.7558 40.9555 15.9641C41.2796 16.1666 41.5144 16.4309 41.6597 16.7568C41.8122 17.077 41.8632 17.4508 41.8126 17.8783C41.7735 18.2086 41.646 18.5088 41.4302 18.7788C41.2215 19.0431 40.9118 19.2462 40.5009 19.388L40.5734 18.7759C40.9135 18.9541 41.1754 19.1558 41.3589 19.3812C41.5424 19.6065 41.6616 19.8472 41.7167 20.1033C41.7718 20.3594 41.7832 20.6235 41.751 20.8955C41.669 21.5886 41.3746 22.1055 40.868 22.4461C40.3685 22.7811 39.714 22.9006 38.9044 22.8048L35.8536 22.4436ZM37.313 21.4342L39.1784 21.655C39.5217 21.6956 39.8049 21.6339 40.0279 21.4699C40.2582 21.3001 40.3921 21.0565 40.4297 20.7391C40.4672 20.4217 40.3939 20.1536 40.2096 19.9348C40.0318 19.7167 39.7713 19.5873 39.428 19.5467L37.5626 19.3258L37.313 21.4342ZM37.6994 18.1697L39.4968 18.3824C39.7689 18.4147 39.9951 18.3626 40.1754 18.2263C40.3565 18.0836 40.462 17.8859 40.4919 17.6333C40.5218 17.3807 40.4646 17.1703 40.3203 17.0021C40.176 16.834 39.9679 16.7338 39.6958 16.7016L37.8984 16.4888L37.6994 18.1697ZM45.0349 23.6487C44.5167 23.5874 44.0581 23.4116 43.6589 23.1213C43.2663 22.8318 42.9682 22.4649 42.7647 22.0204C42.5676 21.5768 42.5005 21.0894 42.5634 20.5582C42.6263 20.0271 42.8053 19.5688 43.1005 19.1834C43.4022 18.7988 43.7777 18.5116 44.2271 18.3217C44.6765 18.1319 45.1635 18.0681 45.6882 18.1302C46.2063 18.1915 46.6618 18.3669 47.0544 18.6564C47.447 18.9459 47.7419 19.3125 47.939 19.7562C48.1433 20.1942 48.2136 20.682 48.15 21.2196C48.0871 21.7507 47.9048 22.2086 47.6031 22.5932C47.3014 22.9778 46.9259 23.2651 46.4765 23.4549C46.0271 23.6447 45.5466 23.7093 45.0349 23.6487ZM45.1729 22.4829C45.4579 22.5166 45.7153 22.4781 45.9452 22.3674C46.1815 22.2574 46.3754 22.0899 46.5268 21.8648C46.6855 21.634 46.7829 21.3664 46.8189 21.062C46.8557 20.7511 46.8231 20.4714 46.7212 20.2229C46.6265 19.9686 46.4771 19.7605 46.273 19.5984C46.0761 19.4306 45.8351 19.3298 45.5502 19.2961C45.2587 19.2616 44.9944 19.3025 44.7573 19.419C44.521 19.5289 44.3239 19.696 44.1659 19.9204C44.0153 20.139 43.9215 20.4037 43.8847 20.7146C43.8487 21.0191 43.8776 21.3016 43.9716 21.5623C44.0727 21.8173 44.2254 22.0259 44.4295 22.188C44.6336 22.35 44.8814 22.4483 45.1729 22.4829ZM51.3729 24.399C50.8547 24.3377 50.3961 24.1619 49.997 23.8716C49.6043 23.5821 49.3062 23.2152 49.1027 22.7707C48.9056 22.327 48.8385 21.8396 48.9014 21.3085C48.9643 20.7774 49.1433 20.3191 49.4385 19.9337C49.7402 19.5491 50.1157 19.2619 50.5651 19.072C51.0145 18.8822 51.5015 18.8184 52.0262 18.8805C52.5444 18.9418 52.9998 19.1172 53.3924 19.4067C53.7851 19.6962 54.0799 20.0628 54.277 20.5065C54.4813 20.9445 54.5516 21.4322 54.488 21.9699C54.4251 22.501 54.2428 22.9589 53.9411 23.3435C53.6395 23.7281 53.2639 24.0154 52.8145 24.2052C52.3651 24.395 51.8846 24.4596 51.3729 24.399ZM51.5109 23.2331C51.7959 23.2669 52.0533 23.2284 52.2832 23.1177C52.5195 23.0077 52.7134 22.8402 52.8648 22.6151C53.0235 22.3843 53.1209 22.1167 53.1569 21.8123C53.1937 21.5014 53.1612 21.2217 53.0592 20.9732C52.9645 20.7189 52.8151 20.5108 52.611 20.3487C52.4141 20.1809 52.1732 20.0801 51.8882 20.0464C51.5967 20.0119 51.3324 20.0528 51.0953 20.1693C50.859 20.2792 50.6619 20.4463 50.504 20.6707C50.3533 20.8893 50.2596 21.154 50.2228 21.4649C50.1867 21.7694 50.2157 22.0519 50.3096 22.3126C50.4108 22.5676 50.5634 22.7762 50.7675 22.9383C50.9717 23.1003 51.2195 23.1986 51.5109 23.2331ZM55.1403 24.7268L56.011 17.372L57.2838 17.5226L56.7133 22.3417L56.2448 22.1384L59.0402 19.829L60.6239 20.0165L58.4192 21.9131L60.0371 25.3065L58.5797 25.134L57.1747 22.1894L57.9509 22.1236L56.1551 23.645L56.6454 22.9149L56.4131 24.8775L55.1403 24.7268ZM62.5815 25.6077L63.4383 18.3694L65.7993 18.6489C66.5636 18.7394 67.2091 18.9734 67.7358 19.3511C68.2698 19.723 68.66 20.1994 68.9065 20.7802C69.1537 21.3547 69.2352 21.9981 69.1509 22.7106C69.0673 23.4166 68.8375 24.0265 68.4614 24.5402C68.0861 25.0475 67.595 25.4229 66.9882 25.6663C66.3887 25.904 65.7067 25.9777 64.9424 25.8872L62.5815 25.6077ZM64.0409 24.5982L65.1096 24.7247C65.6019 24.783 66.038 24.7328 66.418 24.5742C66.8053 24.4099 67.1208 24.1582 67.3645 23.8193C67.609 23.4739 67.7608 23.0518 67.8198 22.553C67.8796 22.0478 67.8306 21.6019 67.6727 21.2155C67.5149 20.829 67.2665 20.5139 66.9275 20.2701C66.595 20.0272 66.1827 19.8765 65.6904 19.8183L64.6217 19.6917L64.0409 24.5982ZM72.1594 26.8597C71.6153 26.7953 71.1538 26.6159 70.7749 26.3215C70.396 26.027 70.1181 25.6559 69.9412 25.208C69.7644 24.7602 69.7062 24.2804 69.7668 23.7687C69.8297 23.2376 69.9986 22.7814 70.2736 22.4002C70.5559 22.0132 70.9087 21.7233 71.3322 21.5304C71.7622 21.3383 72.2233 21.2714 72.7156 21.3297C73.1301 21.3788 73.4848 21.4897 73.7796 21.6625C74.0809 21.8361 74.3274 22.0558 74.5193 22.3215C74.7111 22.5872 74.8469 22.8824 74.9267 23.2072C75.0073 23.5254 75.0265 23.8626 74.9843 24.2189C74.9736 24.3095 74.956 24.4027 74.9315 24.4983C74.9135 24.5947 74.8874 24.677 74.853 24.7452L70.7724 24.2621L70.8874 23.2905L74.2491 23.6885L73.5926 24.0738C73.6862 23.7828 73.7015 23.5153 73.6384 23.2714C73.5818 23.0282 73.4611 22.8268 73.2764 22.667C73.0982 22.508 72.8699 22.412 72.5913 22.379C72.3258 22.3475 72.0813 22.3876 71.8579 22.4991C71.6353 22.6041 71.4536 22.7796 71.3129 23.0256C71.1793 23.266 71.104 23.5691 71.087 23.9348C71.0228 24.2556 71.0307 24.5489 71.1109 24.8145C71.1984 25.0744 71.3442 25.2854 71.5483 25.4475C71.7589 25.6104 72.0099 25.7091 72.3014 25.7436C72.5929 25.7781 72.8463 25.7457 73.0617 25.6464C73.2835 25.5479 73.465 25.4019 73.6061 25.2084L74.5762 25.8355C74.4426 26.0759 74.2543 26.2802 74.011 26.4484C73.7678 26.6167 73.4875 26.7378 73.17 26.8119C72.859 26.8867 72.5222 26.9027 72.1594 26.8597ZM75.6156 27.1507L76.2413 21.8653L77.4363 22.0067L77.2914 23.2309L77.1795 23.0108C77.3219 22.6401 77.55 22.3782 77.8637 22.2248C78.1774 22.0715 78.5318 22.0182 78.9269 22.065C79.3609 22.1164 79.7296 22.2749 80.0331 22.5407C80.3366 22.8066 80.5151 23.1298 80.5685 23.5105L80.2056 23.4971C80.4174 23.0953 80.6975 22.8099 81.0458 22.6409C81.395 22.4655 81.7801 22.4027 82.2011 22.4526C82.5768 22.4971 82.9004 22.6207 83.1719 22.8237C83.45 23.0273 83.6551 23.2914 83.7875 23.6157C83.9206 23.9336 83.9638 24.2901 83.9171 24.6852L83.5145 28.0857L82.2417 27.9351L82.6086 24.8357C82.6362 24.6025 82.6179 24.3968 82.5536 24.2184C82.4894 24.04 82.3881 23.8967 82.2499 23.7884C82.1124 23.6736 81.9368 23.6035 81.723 23.5782C81.5223 23.5544 81.3384 23.5819 81.1714 23.6607C81.0052 23.733 80.8701 23.8483 80.7659 24.0068C80.6618 24.1652 80.5959 24.361 80.5683 24.5942L80.2014 27.6935L78.9287 27.5429L79.2956 24.4435C79.3232 24.2103 79.3048 24.0046 79.2406 23.8262C79.1763 23.6478 79.0718 23.5041 78.9271 23.395C78.7896 23.2802 78.6172 23.2106 78.41 23.186C78.2092 23.1622 78.0253 23.1897 77.8583 23.2685C77.6922 23.3408 77.557 23.4561 77.4529 23.6146C77.3487 23.773 77.2828 23.9688 77.2552 24.202L76.8883 27.3013L75.6156 27.1507ZM87.1619 28.6357C86.6437 28.5744 86.1851 28.3986 85.7859 28.1083C85.3933 27.8188 85.0952 27.4519 84.8917 27.0074C84.6946 26.5637 84.6275 26.0763 84.6904 25.5452C84.7533 25.0141 84.9323 24.5558 85.2275 24.1704C85.5292 23.7858 85.9047 23.4985 86.3541 23.3087C86.8035 23.1189 87.2905 23.0551 87.8152 23.1172C88.3333 23.1785 88.7888 23.3539 89.1814 23.6434C89.574 23.9329 89.8689 24.2995 90.066 24.7432C90.2703 25.1811 90.3406 25.6689 90.277 26.2065C90.2141 26.7377 90.0318 27.1956 89.7301 27.5802C89.4284 27.9648 89.0529 28.2521 88.6035 28.4419C88.1541 28.6317 87.6736 28.6963 87.1619 28.6357ZM87.2999 27.4698C87.5849 27.5036 87.8423 27.4651 88.0722 27.3544C88.3085 27.2444 88.5024 27.0769 88.6538 26.8518C88.8125 26.621 88.9099 26.3534 88.9459 26.049C88.9827 25.7381 88.9501 25.4584 88.8482 25.2098C88.7535 24.9556 88.6041 24.7475 88.4 24.5854C88.2031 24.4176 87.9621 24.3168 87.6771 24.2831C87.3857 24.2486 87.1214 24.2895 86.8843 24.4059C86.648 24.5159 86.4509 24.683 86.2929 24.9074C86.1423 25.126 86.0485 25.3907 86.0117 25.7016C85.9757 26.0061 86.0046 26.2886 86.0986 26.5493C86.1997 26.8043 86.3524 27.0129 86.5565 27.1749C86.7606 27.337 87.0084 27.4353 87.2999 27.4698Z" fill="#000015"/>
<path d="M26.1568 19.5404L19.1007 18.7051" stroke="#298E9F" stroke-width="1.2919" stroke-linecap="round" stroke-linejoin="round"/>
<path d="M23.0465 15.5947L22.2112 22.6509" stroke="#298E9F" stroke-width="1.2919" stroke-linecap="round" stroke-linejoin="round"/>
<path d="M17.0491 11.3071C16.7089 11.2669 16.3666 11.3634 16.0975 11.5755C15.8284 11.7876 15.6546 12.098 15.6143 12.4382L14.3234 23.3432C14.2831 23.6834 14.3796 24.0258 14.5918 24.2949C14.8039 24.5639 15.1142 24.7377 15.4545 24.778L28.2839 26.2968C28.6241 26.337 28.9665 26.2405 29.2355 26.0284C29.5045 25.8163 29.6784 25.5059 29.7187 25.1657L31.0096 14.2607C31.0499 13.9204 30.9533 13.5781 30.7412 13.309C30.5292 13.04 30.2188 12.8662 29.8785 12.8259L17.0491 11.3071Z" stroke="black" stroke-width="1.2919" stroke-linecap="round" stroke-linejoin="round"/>
<path d="M19.2017 9.6106L18.7461 13.4594" stroke="#298E9F" stroke-width="1.2919" stroke-linecap="round" stroke-linejoin="round"/>
<path d="M28.1822 10.6738L27.7266 14.5227" stroke="#298E9F" stroke-width="1.2919" stroke-linecap="round" stroke-linejoin="round"/>
</svg>
