<svg width="100" height="45" viewBox="0 0 100 45" fill="none" xmlns="http://www.w3.org/2000/svg">
<rect x="0.379066" y="8.80259" width="95.6349" height="35.7515" rx="6.23714" transform="rotate(-5.05316 0.379066 8.80259)" fill="black" stroke="#9393FF" stroke-width="0.699259"/>
<path d="M41.0555 27.2149C40.4685 27.2668 39.9207 27.2104 39.4119 27.0457C38.9025 26.8736 38.449 26.6142 38.0515 26.2675C37.6607 25.9127 37.342 25.4841 37.0954 24.9817C36.8488 24.4794 36.6979 23.9162 36.6427 23.2921C36.5875 22.668 36.6372 22.087 36.7919 21.5492C36.9465 21.0114 37.185 20.5335 37.5075 20.1156C37.8374 19.6971 38.2383 19.3621 38.7103 19.1107C39.1816 18.8519 39.7107 18.6965 40.2977 18.6446C40.8624 18.5947 41.3764 18.6503 41.84 18.8115C42.3109 18.9721 42.7128 19.1986 43.0457 19.4911C43.3854 19.7756 43.6375 20.0865 43.8021 20.4239L42.9988 20.8656C42.748 20.401 42.3944 20.0429 41.9378 19.7913C41.4881 19.5315 40.966 19.4279 40.3716 19.4805C39.7624 19.5344 39.2328 19.7272 38.7829 20.059C38.333 20.3908 37.9973 20.8286 37.7759 21.3723C37.5537 21.9086 37.4732 22.5223 37.5343 23.2132C37.5947 23.8968 37.7817 24.4868 38.0951 24.9832C38.4086 25.4796 38.8159 25.8517 39.317 26.0994C39.8175 26.3397 40.3723 26.4329 40.9816 26.379C41.576 26.3265 42.0721 26.1366 42.47 25.8094C42.8753 25.4815 43.1606 25.0669 43.3259 24.5656L44.1943 24.8595C44.0908 25.2131 43.8971 25.5634 43.6133 25.9105C43.3363 26.2495 42.98 26.5393 42.5446 26.78C42.1165 27.02 41.6202 27.165 41.0555 27.2149ZM47.4691 26.6478C47.0902 26.6813 46.7459 26.6406 46.4362 26.5257C46.1259 26.4034 45.8741 26.2235 45.6809 25.986C45.4876 25.7485 45.3766 25.4663 45.3477 25.1394C45.3201 24.8273 45.362 24.5391 45.4734 24.2746C45.5841 24.0028 45.7728 23.7652 46.0393 23.5619C46.3059 23.3586 46.6551 23.2005 47.0869 23.0874L49.3928 22.4904L49.4598 23.2482L47.3515 23.7941C46.9272 23.9065 46.6273 24.0715 46.4518 24.2892C46.2838 24.5062 46.212 24.7522 46.2363 25.0271C46.2599 25.2946 46.384 25.512 46.6085 25.6793C46.8403 25.846 47.1235 25.9146 47.4578 25.885C47.8664 25.8489 48.2155 25.7319 48.505 25.5341C48.7939 25.3288 49.0106 25.0701 49.1552 24.7578C49.2998 24.4455 49.356 24.1073 49.3238 23.7432L49.1898 22.2275C49.1583 21.8709 49.0026 21.5926 48.7229 21.3927C48.4431 21.1928 48.0952 21.1113 47.6792 21.1481C47.3151 21.1803 47.0038 21.3014 46.7453 21.5114C46.4862 21.7141 46.3026 21.9662 46.1945 22.2678L45.4002 21.9224C45.4893 21.66 45.6435 21.4142 45.8629 21.1851C46.0897 20.9554 46.3538 20.7673 46.6554 20.6209C46.9562 20.467 47.2739 20.3752 47.6082 20.3457C48.0466 20.3069 48.4405 20.3582 48.7899 20.4995C49.1468 20.6402 49.4316 20.8546 49.6442 21.1428C49.8637 21.4229 49.9908 21.7599 50.0257 22.1536L50.3883 26.2549L49.5525 26.3288L49.447 25.1363L49.5804 25.248C49.4961 25.4801 49.3507 25.6989 49.1443 25.9044C48.9446 26.1017 48.7011 26.2693 48.4137 26.407C48.1332 26.5366 47.8183 26.6169 47.4691 26.6478ZM52.1075 26.1028L51.3616 17.6663L52.1974 17.5924L52.9434 26.0289L52.1075 26.1028ZM54.6543 25.8777L53.9083 17.4411L54.7441 17.3672L55.4901 25.8037L54.6543 25.8777ZM61.111 25.3067L60.3769 17.0039L61.157 16.935L66.6451 23.492L66.3442 23.5186L65.7263 16.5309L66.6179 16.4521L67.3521 24.7549L66.5719 24.8239L61.0799 18.2222L61.3808 18.1956L62.0026 25.2279L61.111 25.3067ZM72.0037 24.4783C71.4391 24.5283 70.9146 24.4399 70.4303 24.2131C69.9453 23.979 69.5447 23.64 69.2284 23.1962C68.9189 22.7444 68.7375 22.2175 68.6843 21.6157C68.6318 21.0213 68.7185 20.4783 68.9446 19.9865C69.1707 19.4948 69.4985 19.0952 69.9281 18.7876C70.3644 18.472 70.8723 18.2886 71.4519 18.2373C72.0314 18.1861 72.5596 18.2742 73.0364 18.5016C73.5207 18.7283 73.9136 19.0642 74.215 19.5093C74.5239 19.9537 74.7049 20.4768 74.7582 21.0786C74.812 21.6879 74.7225 22.2424 74.4897 22.7422C74.2562 23.2346 73.9209 23.6349 73.4839 23.9431C73.0543 24.2507 72.5609 24.4291 72.0037 24.4783ZM71.9298 23.6425C72.331 23.607 72.6825 23.4748 72.9842 23.246C73.2934 23.0165 73.5254 22.7189 73.6803 22.3533C73.8426 21.987 73.9047 21.5884 73.8666 21.1575C73.8285 20.7265 73.6977 20.3487 73.4743 20.0241C73.2584 19.6987 72.9781 19.4502 72.6334 19.2785C72.2962 19.1061 71.927 19.0377 71.5258 19.0732C71.1246 19.1086 70.7694 19.2411 70.4602 19.4707C70.1585 19.6995 69.9261 19.9934 69.7632 20.3522C69.6002 20.7111 69.5378 21.1059 69.5759 21.5369C69.614 21.9678 69.7451 22.3493 69.9691 22.6814C70.1932 23.0136 70.4738 23.2658 70.811 23.4382C71.1557 23.6099 71.5286 23.678 71.9298 23.6425ZM77.7036 23.8395L75.1248 18.0473L76.0721 17.9636L78.2283 23.0406L77.8939 23.0702L79.0254 17.7024L79.8613 17.6285L81.9171 22.7144L81.5828 22.744L82.8258 17.3664L83.7619 17.2836L82.2395 23.4385L81.4036 23.5124L79.4022 18.534L79.6363 18.5133L78.5395 23.7656L77.7036 23.8395ZM85.3818 20.757L84.8028 14.8441L85.6943 14.7653L86.1619 20.688L85.3818 20.757ZM85.5369 23.1469L85.4285 21.921L86.3201 21.8421L86.4285 23.0681L85.5369 23.1469Z" fill="white"/>
<path d="M24.8391 31.4563C23.5769 31.5679 22.2329 31.354 20.8071 30.8146C19.3813 30.2752 18.0197 29.4622 16.7222 28.3755C15.4131 27.2899 14.3679 26.0926 13.5866 24.7836C12.8054 23.4746 12.3585 22.1831 12.2458 20.9093L12.1528 19.8574L15.9219 19.5242L16.9161 22.7754L15.0495 25.0429C15.4232 25.5399 15.8024 25.9981 16.1869 26.4176C16.5715 26.837 16.9673 27.2172 17.3743 27.5582C17.8323 27.9417 18.3171 28.2963 18.8288 28.6221C19.3405 28.9479 19.8845 29.2384 20.4606 29.4937L22.3241 27.1911L25.5576 27.5943L25.8909 31.3633L24.8391 31.4563Z" fill="#0AD855"/>
</svg>
