<svg width="13" height="13" viewBox="0 0 13 13" fill="none" xmlns="http://www.w3.org/2000/svg">
<path d="M11.8817 12.9619C10.5855 12.9619 9.23533 12.6228 7.83113 11.9447C6.42693 11.2666 5.11274 10.3155 3.88856 9.09131C2.65239 7.86714 1.69523 6.55295 1.01715 5.14874C0.33905 3.74454 0 2.38833 0 1.08016V0H3.87056L4.59066 3.40249L2.48436 5.5448C2.8204 6.08488 3.16547 6.58596 3.51951 7.04802C3.87355 7.51007 4.2426 7.93313 4.62667 8.3172C5.05873 8.74926 5.52079 9.15432 6.01287 9.53238C6.50495 9.91043 7.033 10.2555 7.5971 10.5675L9.7034 8.38921L12.9619 9.09131V12.9619H11.8817Z" fill="white"/>
</svg>
