<svg width="25" height="25" viewBox="0 0 25 25" fill="none" xmlns="http://www.w3.org/2000/svg">
<rect width="24.2489" height="24.2489" rx="12.1244" fill="white" fill-opacity="0.13"/>
<path fill-rule="evenodd" clip-rule="evenodd" d="M17.2238 8.37451C17.0131 8.37451 16.8046 8.41661 16.6104 8.49832C16.4175 8.57949 16.2427 8.69813 16.096 8.84735L9.51956 15.3816C9.43113 15.4695 9.37669 15.5858 9.36593 15.71L9.09181 18.8729C9.07838 19.028 9.13417 19.1811 9.24424 19.2912C9.35432 19.4013 9.50743 19.4571 9.66251 19.4436L12.8254 19.1695C12.9496 19.1587 13.066 19.1043 13.1538 19.0158L19.6878 12.4398L19.6894 12.4382C19.8369 12.2915 19.9539 12.1171 20.0339 11.9251C20.1143 11.7324 20.1556 11.5257 20.1556 11.3169C20.1556 11.1082 20.1143 10.9015 20.0339 10.7087C19.954 10.5168 19.8369 10.3425 19.6895 10.1958L18.3545 8.85034L18.3529 8.8488C18.206 8.69889 18.0306 8.57975 17.8372 8.49832C17.643 8.41661 17.4344 8.37451 17.2238 8.37451Z" fill="#35E834"/>
<path fill-rule="evenodd" clip-rule="evenodd" d="M10.1222 5.36796C9.9137 4.45399 8.60977 4.45969 8.40931 5.37545L8.40099 5.41359L8.38442 5.48902C8.13561 6.60314 7.23966 7.4581 6.11419 7.65389C5.1618 7.81958 5.16181 9.18677 6.11419 9.35245C7.24359 9.54894 8.14187 10.4092 8.38701 11.529L8.40931 11.6309C8.60977 12.5467 9.9137 12.5524 10.1222 11.6384L10.1492 11.5197C10.4037 10.404 11.3031 9.55027 12.4304 9.35414C13.3847 9.18812 13.3847 7.81822 12.4304 7.65221C11.309 7.45713 10.4132 6.61134 10.1533 5.50443C10.1462 5.47412 10.1396 5.44494 10.1325 5.41356L10.1222 5.36796Z" fill="#D0F56B"/>
</svg>
