<svg width="108" height="49" viewBox="0 0 108 49" fill="none" xmlns="http://www.w3.org/2000/svg">
<rect y="17.8897" width="104" height="31.5714" rx="15.7857" transform="rotate(-9.90506 0 17.8897)" fill="#F2B2FA"/>
<rect x="-0.133469" y="17.7959" width="104.231" height="31.8021" rx="15.9011" transform="rotate(-9.90506 -0.133469 17.7959)" stroke="black" stroke-opacity="0.2" stroke-width="0.230694"/>
<rect x="38.5127" y="23.3462" width="51.5459" height="7.10915" rx="3.55457" transform="rotate(-9.90506 38.5127 23.3462)" fill="black" fill-opacity="0.15"/>
<path d="M15.6541 35.6243C16.2274 37.6221 18.1507 38.9736 20.2251 38.845C21.7659 38.7496 23.343 38.6233 24.9252 38.347C26.5073 38.0707 28.0339 37.6551 29.5158 37.2227C31.5111 36.6406 32.8625 34.7173 32.7248 32.6434C32.6232 31.1125 32.4896 29.5459 32.2149 27.9729C31.9402 26.3998 31.535 24.8806 31.1117 23.4059C30.5385 21.4081 28.6152 20.0566 26.5407 20.1851C25 20.2806 23.4229 20.4069 21.8407 20.6831C20.2586 20.9594 18.732 21.3751 17.25 21.8075C15.2548 22.3896 13.9034 24.3129 14.041 26.3867C14.1427 27.9177 14.2763 29.4843 14.551 31.0573C14.8257 32.6303 15.2309 34.1495 15.6541 35.6243Z" stroke="black" stroke-width="1.43449" stroke-linecap="round" stroke-linejoin="round"/>
<path d="M20.0045 31.0151L23.0365 33.2161C23.639 29.532 24.3798 27.8322 26.2989 25.3654" stroke="black" stroke-width="1.43449" stroke-linecap="round" stroke-linejoin="round"/>
</svg>
